<svg width="25" height="25" viewBox="0 0 25 25" fill="none" xmlns="http://www.w3.org/2000/svg">
<g clip-path="url(#clip0_779_2987)">
<path d="M9.66669 11.5C9.66669 12.2956 9.98276 13.0587 10.5454 13.6213C11.108 14.1839 11.871 14.5 12.6667 14.5C13.4623 14.5 14.2254 14.1839 14.788 13.6213C15.3506 13.0587 15.6667 12.2956 15.6667 11.5C15.6667 10.7044 15.3506 9.94129 14.788 9.37868C14.2254 8.81607 13.4623 8.5 12.6667 8.5C11.871 8.5 11.108 8.81607 10.5454 9.37868C9.98276 9.94129 9.66669 10.7044 9.66669 11.5Z" stroke="white" stroke-width="1.5" stroke-linecap="round" stroke-linejoin="round"/>
<path d="M18.3237 17.1572L14.0807 21.4002C13.7057 21.7748 13.1973 21.9853 12.6672 21.9853C12.1371 21.9853 11.6287 21.7748 11.2537 21.4002L7.00969 17.1572C5.89091 16.0384 5.12903 14.6129 4.82038 13.0611C4.51173 11.5092 4.67018 9.90071 5.27569 8.43893C5.88121 6.97714 6.90659 5.72774 8.22217 4.8487C9.53776 3.96967 11.0845 3.50049 12.6667 3.50049C14.2489 3.50049 15.7956 3.96967 17.1112 4.8487C18.4268 5.72774 19.4522 6.97714 20.0577 8.43893C20.6632 9.90071 20.8217 11.5092 20.513 13.0611C20.2044 14.6129 19.4425 16.0384 18.3237 17.1572Z" stroke="white" stroke-width="1.5" stroke-linecap="round" stroke-linejoin="round"/>
</g>
<defs>
<clipPath id="clip0_779_2987">
<rect width="24" height="24" fill="white" transform="translate(0.666687 0.5)"/>
</clipPath>
</defs>
</svg>
