<svg width="75" height="75" viewBox="0 0 75 75" fill="none" xmlns="http://www.w3.org/2000/svg">
<rect x="0.555656" y="0.555664" width="73.8889" height="73.8889" rx="10.8889" fill="#F0F0F0"/>
<g clip-path="url(#clip0_204_4245)">
<path d="M38.3972 30.0616C36.8938 30.0616 34.5672 28.352 32.1169 28.4122C28.8816 28.4551 25.9159 30.2884 24.2491 33.1923C20.8917 39.0206 23.3832 47.6291 26.6581 52.3662C28.2647 54.6722 30.1599 57.2668 32.672 57.1859C35.0826 57.0828 35.9866 55.6206 38.9127 55.6206C41.8165 55.6206 42.6396 57.1859 45.193 57.1241C47.7892 57.0828 49.437 54.7769 51.0229 52.4487C52.8562 49.7717 53.6175 47.1755 53.6587 47.0327C53.5969 47.0121 48.6123 45.0963 48.552 39.3298C48.5108 34.5086 52.4851 32.2026 52.6707 32.0996C50.4044 28.7849 46.9248 28.4138 45.7084 28.3314C42.5365 28.084 39.8801 30.0616 38.3972 30.0616ZM43.7545 25.1991C45.0915 23.5942 45.9748 21.3501 45.729 19.125C43.8148 19.2075 41.5073 20.4017 40.1275 22.0082C38.8905 23.4292 37.8215 25.7162 38.1086 27.8984C40.2306 28.0633 42.4144 26.8073 43.753 25.2007" fill="black"/>
</g>
<defs>
<clipPath id="clip0_204_4245">
<rect width="38.0625" height="38.0625" fill="white" transform="translate(19.125 19.125)"/>
</clipPath>
</defs>
</svg>
