<svg width="1070" height="724" viewBox="0 0 1070 724" fill="none" xmlns="http://www.w3.org/2000/svg">
<g opacity="0.08">
<path d="M1063.66 3.17166L1066.83 3.42205e-05L1070 3.17166L1066.83 6.34328L1063.66 3.17166Z" fill="#929292"/>
<path d="M1023.82 3.17166L1026.99 3.42205e-05L1030.15 3.17166L1026.99 6.34328L1023.82 3.17166Z" fill="#929292"/>
<path d="M983.971 3.17166L987.141 3.42205e-05L990.31 3.17166L987.141 6.34328L983.971 3.17166Z" fill="#929292"/>
<path d="M944.126 3.17166L947.296 3.42205e-05L950.465 3.17166L947.296 6.34328L944.126 3.17166Z" fill="#929292"/>
<path d="M904.281 3.17166L907.451 3.42205e-05L910.62 3.17166L907.451 6.34328L904.281 3.17166Z" fill="#929292"/>
<path d="M864.437 3.17166L867.606 3.42205e-05L870.776 3.17166L867.606 6.34328L864.437 3.17166Z" fill="#929292"/>
<path d="M824.592 3.17166L827.761 3.42205e-05L830.931 3.17166L827.761 6.34328L824.592 3.17166Z" fill="#929292"/>
<path d="M784.747 3.17166L787.917 3.42205e-05L791.086 3.17166L787.917 6.34328L784.747 3.17166Z" fill="#929292"/>
<path d="M744.902 3.17166L748.072 3.42205e-05L751.241 3.17166L748.072 6.34328L744.902 3.17166Z" fill="#929292"/>
<path d="M705.057 3.17166L708.227 3.42205e-05L711.396 3.17166L708.227 6.34328L705.057 3.17166Z" fill="#929292"/>
<path d="M665.212 3.17166L668.382 3.42205e-05L671.552 3.17166L668.382 6.34328L665.212 3.17166Z" fill="#929292"/>
<path d="M625.367 3.17166L628.537 3.42205e-05L631.707 3.17166L628.537 6.34328L625.367 3.17166Z" fill="#929292"/>
<path d="M585.522 3.17166L588.692 3.42205e-05L591.862 3.17166L588.692 6.34328L585.522 3.17166Z" fill="#929292"/>
<path d="M545.678 3.17166L548.847 3.42205e-05L552.017 3.17166L548.847 6.34328L545.678 3.17166Z" fill="#929292"/>
<path d="M505.833 3.17166L509.002 3.42205e-05L512.172 3.17166L509.002 6.34328L505.833 3.17166Z" fill="#929292"/>
<path d="M465.988 3.17166L469.158 3.42205e-05L472.327 3.17166L469.158 6.34328L465.988 3.17166Z" fill="#929292"/>
<path d="M426.143 3.17166L429.313 3.42205e-05L432.482 3.17166L429.313 6.34328L426.143 3.17166Z" fill="#929292"/>
<path d="M386.299 3.17166L389.468 3.42205e-05L392.638 3.17166L389.468 6.34328L386.299 3.17166Z" fill="#929292"/>
<path d="M346.454 3.17166L349.623 3.42205e-05L352.793 3.17166L349.623 6.34328L346.454 3.17166Z" fill="#929292"/>
<path d="M1063.66 43.0416L1066.83 39.87L1070 43.0416L1066.83 46.2132L1063.66 43.0416Z" fill="#929292"/>
<path d="M1023.82 43.0416L1026.99 39.87L1030.15 43.0416L1026.99 46.2132L1023.82 43.0416Z" fill="#929292"/>
<path d="M983.971 43.0416L987.141 39.87L990.31 43.0416L987.141 46.2132L983.971 43.0416Z" fill="#929292"/>
<path d="M944.126 43.0416L947.296 39.87L950.465 43.0416L947.296 46.2132L944.126 43.0416Z" fill="#929292"/>
<path d="M904.281 43.0416L907.451 39.87L910.62 43.0416L907.451 46.2132L904.281 43.0416Z" fill="#929292"/>
<path d="M864.437 43.0416L867.606 39.87L870.776 43.0416L867.606 46.2132L864.437 43.0416Z" fill="#929292"/>
<path d="M824.592 43.0416L827.761 39.87L830.931 43.0416L827.761 46.2132L824.592 43.0416Z" fill="#929292"/>
<path d="M784.747 43.0416L787.917 39.87L791.086 43.0416L787.917 46.2132L784.747 43.0416Z" fill="#929292"/>
<path d="M744.902 43.0416L748.072 39.87L751.241 43.0416L748.072 46.2132L744.902 43.0416Z" fill="#929292"/>
<path d="M705.057 43.0416L708.227 39.87L711.396 43.0416L708.227 46.2132L705.057 43.0416Z" fill="#929292"/>
<path d="M665.212 43.0416L668.382 39.87L671.552 43.0416L668.382 46.2132L665.212 43.0416Z" fill="#929292"/>
<path d="M625.367 43.0416L628.537 39.87L631.707 43.0416L628.537 46.2132L625.367 43.0416Z" fill="#929292"/>
<path d="M585.522 43.0416L588.692 39.87L591.862 43.0416L588.692 46.2132L585.522 43.0416Z" fill="#929292"/>
<path d="M545.678 43.0416L548.847 39.87L552.017 43.0416L548.847 46.2132L545.678 43.0416Z" fill="#929292"/>
<path d="M505.833 43.0416L509.002 39.87L512.172 43.0416L509.002 46.2132L505.833 43.0416Z" fill="#929292"/>
<path d="M465.988 43.0416L469.158 39.87L472.327 43.0416L469.158 46.2132L465.988 43.0416Z" fill="#929292"/>
<path d="M426.143 43.0416L429.313 39.87L432.482 43.0416L429.313 46.2132L426.143 43.0416Z" fill="#929292"/>
<path d="M386.299 43.0416L389.468 39.87L392.638 43.0416L389.468 46.2132L386.299 43.0416Z" fill="#929292"/>
<path d="M346.454 43.0416L349.623 39.87L352.793 43.0416L349.623 46.2132L346.454 43.0416Z" fill="#929292"/>
<path d="M1063.66 82.9116L1066.83 79.7399L1070 82.9116L1066.83 86.0832L1063.66 82.9116Z" fill="#929292"/>
<path d="M1023.82 82.9116L1026.99 79.7399L1030.15 82.9116L1026.99 86.0832L1023.82 82.9116Z" fill="#929292"/>
<path d="M983.971 82.9116L987.141 79.7399L990.31 82.9116L987.141 86.0832L983.971 82.9116Z" fill="#929292"/>
<path d="M944.126 82.9116L947.296 79.7399L950.465 82.9116L947.296 86.0832L944.126 82.9116Z" fill="#929292"/>
<path d="M904.281 82.9116L907.451 79.7399L910.62 82.9116L907.451 86.0832L904.281 82.9116Z" fill="#929292"/>
<path d="M864.437 82.9116L867.606 79.7399L870.776 82.9116L867.606 86.0832L864.437 82.9116Z" fill="#929292"/>
<path d="M824.592 82.9116L827.761 79.7399L830.931 82.9116L827.761 86.0832L824.592 82.9116Z" fill="#929292"/>
<path d="M784.747 82.9116L787.917 79.7399L791.086 82.9116L787.917 86.0832L784.747 82.9116Z" fill="#929292"/>
<path d="M744.902 82.9116L748.072 79.7399L751.241 82.9116L748.072 86.0832L744.902 82.9116Z" fill="#929292"/>
<path d="M705.057 82.9116L708.227 79.7399L711.396 82.9116L708.227 86.0832L705.057 82.9116Z" fill="#929292"/>
<path d="M665.212 82.9116L668.382 79.7399L671.552 82.9116L668.382 86.0832L665.212 82.9116Z" fill="#929292"/>
<path d="M625.367 82.9116L628.537 79.7399L631.707 82.9116L628.537 86.0832L625.367 82.9116Z" fill="#929292"/>
<path d="M585.522 82.9116L588.692 79.7399L591.862 82.9116L588.692 86.0832L585.522 82.9116Z" fill="#929292"/>
<path d="M545.678 82.9116L548.847 79.7399L552.017 82.9116L548.847 86.0832L545.678 82.9116Z" fill="#929292"/>
<path d="M505.833 82.9116L509.002 79.7399L512.172 82.9116L509.002 86.0832L505.833 82.9116Z" fill="#929292"/>
<path d="M465.988 82.9116L469.158 79.7399L472.327 82.9116L469.158 86.0832L465.988 82.9116Z" fill="#929292"/>
<path d="M426.143 82.9116L429.313 79.7399L432.482 82.9116L429.313 86.0832L426.143 82.9116Z" fill="#929292"/>
<path d="M386.299 82.9116L389.468 79.7399L392.638 82.9116L389.468 86.0832L386.299 82.9116Z" fill="#929292"/>
<path d="M346.454 82.9116L349.623 79.7399L352.793 82.9116L349.623 86.0832L346.454 82.9116Z" fill="#929292"/>
<path d="M1063.66 122.782L1066.83 119.61L1070 122.782L1066.83 125.953L1063.66 122.782Z" fill="#929292"/>
<path d="M1023.82 122.782L1026.99 119.61L1030.15 122.782L1026.99 125.953L1023.82 122.782Z" fill="#929292"/>
<path d="M983.971 122.782L987.141 119.61L990.31 122.782L987.141 125.953L983.971 122.782Z" fill="#929292"/>
<path d="M944.126 122.782L947.296 119.61L950.465 122.782L947.296 125.953L944.126 122.782Z" fill="#929292"/>
<path d="M904.281 122.782L907.451 119.61L910.62 122.782L907.451 125.953L904.281 122.782Z" fill="#929292"/>
<path d="M864.437 122.782L867.606 119.61L870.776 122.782L867.606 125.953L864.437 122.782Z" fill="#929292"/>
<path d="M824.592 122.782L827.761 119.61L830.931 122.782L827.761 125.953L824.592 122.782Z" fill="#929292"/>
<path d="M784.747 122.782L787.917 119.61L791.086 122.782L787.917 125.953L784.747 122.782Z" fill="#929292"/>
<path d="M744.902 122.782L748.072 119.61L751.241 122.782L748.072 125.953L744.902 122.782Z" fill="#929292"/>
<path d="M705.057 122.782L708.227 119.61L711.396 122.782L708.227 125.953L705.057 122.782Z" fill="#929292"/>
<path d="M665.212 122.782L668.382 119.61L671.552 122.782L668.382 125.953L665.212 122.782Z" fill="#929292"/>
<path d="M625.367 122.782L628.537 119.61L631.707 122.782L628.537 125.953L625.367 122.782Z" fill="#929292"/>
<path d="M585.522 122.782L588.692 119.61L591.862 122.782L588.692 125.953L585.522 122.782Z" fill="#929292"/>
<path d="M545.678 122.782L548.847 119.61L552.017 122.782L548.847 125.953L545.678 122.782Z" fill="#929292"/>
<path d="M505.833 122.782L509.002 119.61L512.172 122.782L509.002 125.953L505.833 122.782Z" fill="#929292"/>
<path d="M465.988 122.782L469.158 119.61L472.327 122.782L469.158 125.953L465.988 122.782Z" fill="#929292"/>
<path d="M426.143 122.782L429.313 119.61L432.482 122.782L429.313 125.953L426.143 122.782Z" fill="#929292"/>
<path d="M386.299 122.782L389.468 119.61L392.638 122.782L389.468 125.953L386.299 122.782Z" fill="#929292"/>
<path d="M346.454 122.782L349.623 119.61L352.793 122.782L349.623 125.953L346.454 122.782Z" fill="#929292"/>
<path d="M1063.66 162.651L1066.83 159.479L1070 162.651L1066.83 165.823L1063.66 162.651Z" fill="#929292"/>
<path d="M1023.82 162.651L1026.99 159.479L1030.15 162.651L1026.99 165.823L1023.82 162.651Z" fill="#929292"/>
<path d="M983.971 162.651L987.141 159.479L990.31 162.651L987.141 165.823L983.971 162.651Z" fill="#929292"/>
<path d="M944.126 162.651L947.296 159.479L950.465 162.651L947.296 165.823L944.126 162.651Z" fill="#929292"/>
<path d="M904.281 162.651L907.451 159.479L910.62 162.651L907.451 165.823L904.281 162.651Z" fill="#929292"/>
<path d="M864.437 162.651L867.606 159.479L870.776 162.651L867.606 165.823L864.437 162.651Z" fill="#929292"/>
<path d="M824.592 162.651L827.761 159.479L830.931 162.651L827.761 165.823L824.592 162.651Z" fill="#929292"/>
<path d="M784.747 162.651L787.917 159.479L791.086 162.651L787.917 165.823L784.747 162.651Z" fill="#929292"/>
<path d="M744.902 162.651L748.072 159.479L751.241 162.651L748.072 165.823L744.902 162.651Z" fill="#929292"/>
<path d="M705.057 162.651L708.227 159.479L711.396 162.651L708.227 165.823L705.057 162.651Z" fill="#929292"/>
<path d="M665.212 162.651L668.382 159.479L671.552 162.651L668.382 165.823L665.212 162.651Z" fill="#929292"/>
<path d="M625.367 162.651L628.537 159.479L631.707 162.651L628.537 165.823L625.367 162.651Z" fill="#929292"/>
<path d="M585.522 162.651L588.692 159.479L591.862 162.651L588.692 165.823L585.522 162.651Z" fill="#929292"/>
<path d="M545.678 162.651L548.847 159.479L552.017 162.651L548.847 165.823L545.678 162.651Z" fill="#929292"/>
<path d="M505.833 162.651L509.002 159.479L512.172 162.651L509.002 165.823L505.833 162.651Z" fill="#929292"/>
<path d="M465.988 162.651L469.158 159.479L472.327 162.651L469.158 165.823L465.988 162.651Z" fill="#929292"/>
<path d="M426.143 162.651L429.313 159.479L432.482 162.651L429.313 165.823L426.143 162.651Z" fill="#929292"/>
<path d="M386.299 162.651L389.468 159.479L392.638 162.651L389.468 165.823L386.299 162.651Z" fill="#929292"/>
<path d="M346.454 162.651L349.623 159.479L352.793 162.651L349.623 165.823L346.454 162.651Z" fill="#929292"/>
<path d="M1063.66 202.521L1066.83 199.349L1070 202.521L1066.83 205.693L1063.66 202.521Z" fill="#929292"/>
<path d="M1023.82 202.521L1026.99 199.349L1030.15 202.521L1026.99 205.693L1023.82 202.521Z" fill="#929292"/>
<path d="M983.971 202.521L987.141 199.349L990.31 202.521L987.141 205.693L983.971 202.521Z" fill="#929292"/>
<path d="M944.126 202.521L947.296 199.349L950.465 202.521L947.296 205.693L944.126 202.521Z" fill="#929292"/>
<path d="M904.281 202.521L907.451 199.349L910.62 202.521L907.451 205.693L904.281 202.521Z" fill="#929292"/>
<path d="M864.437 202.521L867.606 199.349L870.776 202.521L867.606 205.693L864.437 202.521Z" fill="#929292"/>
<path d="M824.592 202.521L827.761 199.349L830.931 202.521L827.761 205.693L824.592 202.521Z" fill="#929292"/>
<path d="M784.747 202.521L787.917 199.349L791.086 202.521L787.917 205.693L784.747 202.521Z" fill="#929292"/>
<path d="M744.902 202.521L748.072 199.349L751.241 202.521L748.072 205.693L744.902 202.521Z" fill="#929292"/>
<path d="M705.057 202.521L708.227 199.349L711.396 202.521L708.227 205.693L705.057 202.521Z" fill="#929292"/>
<path d="M665.212 202.521L668.382 199.349L671.552 202.521L668.382 205.693L665.212 202.521Z" fill="#929292"/>
<path d="M625.367 202.521L628.537 199.349L631.707 202.521L628.537 205.693L625.367 202.521Z" fill="#929292"/>
<path d="M585.522 202.521L588.692 199.349L591.862 202.521L588.692 205.693L585.522 202.521Z" fill="#929292"/>
<path d="M545.678 202.521L548.847 199.349L552.017 202.521L548.847 205.693L545.678 202.521Z" fill="#929292"/>
<path d="M505.833 202.521L509.002 199.349L512.172 202.521L509.002 205.693L505.833 202.521Z" fill="#929292"/>
<path d="M465.988 202.521L469.158 199.349L472.327 202.521L469.158 205.693L465.988 202.521Z" fill="#929292"/>
<path d="M426.143 202.521L429.313 199.349L432.482 202.521L429.313 205.693L426.143 202.521Z" fill="#929292"/>
<path d="M386.299 202.521L389.468 199.349L392.638 202.521L389.468 205.693L386.299 202.521Z" fill="#929292"/>
<path d="M346.454 202.521L349.623 199.349L352.793 202.521L349.623 205.693L346.454 202.521Z" fill="#929292"/>
<path d="M1063.66 242.391L1066.83 239.219L1070 242.391L1066.83 245.563L1063.66 242.391Z" fill="#929292"/>
<path d="M1023.82 242.391L1026.99 239.219L1030.15 242.391L1026.99 245.563L1023.82 242.391Z" fill="#929292"/>
<path d="M983.971 242.391L987.141 239.219L990.31 242.391L987.141 245.563L983.971 242.391Z" fill="#929292"/>
<path d="M944.126 242.391L947.296 239.219L950.465 242.391L947.296 245.563L944.126 242.391Z" fill="#929292"/>
<path d="M904.281 242.391L907.451 239.219L910.62 242.391L907.451 245.563L904.281 242.391Z" fill="#929292"/>
<path d="M864.437 242.391L867.606 239.219L870.776 242.391L867.606 245.563L864.437 242.391Z" fill="#929292"/>
<path d="M824.592 242.391L827.761 239.219L830.931 242.391L827.761 245.563L824.592 242.391Z" fill="#929292"/>
<path d="M784.747 242.391L787.917 239.219L791.086 242.391L787.917 245.563L784.747 242.391Z" fill="#929292"/>
<path d="M744.902 242.391L748.072 239.219L751.241 242.391L748.072 245.563L744.902 242.391Z" fill="#929292"/>
<path d="M705.057 242.391L708.227 239.219L711.396 242.391L708.227 245.563L705.057 242.391Z" fill="#929292"/>
<path d="M665.212 242.391L668.382 239.219L671.552 242.391L668.382 245.563L665.212 242.391Z" fill="#929292"/>
<path d="M625.367 242.391L628.537 239.219L631.707 242.391L628.537 245.563L625.367 242.391Z" fill="#929292"/>
<path d="M585.522 242.391L588.692 239.219L591.862 242.391L588.692 245.563L585.522 242.391Z" fill="#929292"/>
<path d="M545.678 242.391L548.847 239.219L552.017 242.391L548.847 245.563L545.678 242.391Z" fill="#929292"/>
<path d="M505.833 242.391L509.002 239.219L512.172 242.391L509.002 245.563L505.833 242.391Z" fill="#929292"/>
<path d="M465.988 242.391L469.158 239.219L472.327 242.391L469.158 245.563L465.988 242.391Z" fill="#929292"/>
<path d="M426.143 242.391L429.313 239.219L432.482 242.391L429.313 245.563L426.143 242.391Z" fill="#929292"/>
<path d="M386.299 242.391L389.468 239.219L392.638 242.391L389.468 245.563L386.299 242.391Z" fill="#929292"/>
<path d="M346.454 242.391L349.623 239.219L352.793 242.391L349.623 245.563L346.454 242.391Z" fill="#929292"/>
<path d="M1063.66 282.26L1066.83 279.088L1070 282.26L1066.83 285.432L1063.66 282.26Z" fill="#929292"/>
<path d="M1023.82 282.26L1026.99 279.088L1030.15 282.26L1026.99 285.432L1023.82 282.26Z" fill="#929292"/>
<path d="M983.971 282.26L987.141 279.088L990.31 282.26L987.141 285.432L983.971 282.26Z" fill="#929292"/>
<path d="M944.126 282.26L947.296 279.088L950.465 282.26L947.296 285.432L944.126 282.26Z" fill="#929292"/>
<path d="M904.281 282.26L907.451 279.088L910.62 282.26L907.451 285.432L904.281 282.26Z" fill="#929292"/>
<path d="M864.437 282.26L867.606 279.088L870.776 282.26L867.606 285.432L864.437 282.26Z" fill="#929292"/>
<path d="M824.592 282.26L827.761 279.088L830.931 282.26L827.761 285.432L824.592 282.26Z" fill="#929292"/>
<path d="M784.747 282.26L787.917 279.088L791.086 282.26L787.917 285.432L784.747 282.26Z" fill="#929292"/>
<path d="M744.902 282.26L748.072 279.088L751.241 282.26L748.072 285.432L744.902 282.26Z" fill="#929292"/>
<path d="M705.057 282.26L708.227 279.088L711.396 282.26L708.227 285.432L705.057 282.26Z" fill="#929292"/>
<path d="M665.212 282.26L668.382 279.088L671.552 282.26L668.382 285.432L665.212 282.26Z" fill="#929292"/>
<path d="M625.367 282.26L628.537 279.088L631.707 282.26L628.537 285.432L625.367 282.26Z" fill="#929292"/>
<path d="M585.522 282.26L588.692 279.088L591.862 282.26L588.692 285.432L585.522 282.26Z" fill="#929292"/>
<path d="M545.678 282.26L548.847 279.088L552.017 282.26L548.847 285.432L545.678 282.26Z" fill="#929292"/>
<path d="M505.833 282.26L509.002 279.088L512.172 282.26L509.002 285.432L505.833 282.26Z" fill="#929292"/>
<path d="M465.988 282.26L469.158 279.088L472.327 282.26L469.158 285.432L465.988 282.26Z" fill="#929292"/>
<path d="M426.143 282.26L429.313 279.088L432.482 282.26L429.313 285.432L426.143 282.26Z" fill="#929292"/>
<path d="M386.299 282.26L389.468 279.088L392.638 282.26L389.468 285.432L386.299 282.26Z" fill="#929292"/>
<path d="M346.454 282.26L349.623 279.088L352.793 282.26L349.623 285.432L346.454 282.26Z" fill="#929292"/>
<path d="M1063.66 322.13L1066.83 318.959L1070 322.13L1066.83 325.302L1063.66 322.13Z" fill="#929292"/>
<path d="M1023.82 322.13L1026.99 318.959L1030.15 322.13L1026.99 325.302L1023.82 322.13Z" fill="#929292"/>
<path d="M983.971 322.13L987.141 318.959L990.31 322.13L987.141 325.302L983.971 322.13Z" fill="#929292"/>
<path d="M944.126 322.13L947.296 318.959L950.465 322.13L947.296 325.302L944.126 322.13Z" fill="#929292"/>
<path d="M904.281 322.13L907.451 318.959L910.62 322.13L907.451 325.302L904.281 322.13Z" fill="#929292"/>
<path d="M864.437 322.13L867.606 318.959L870.776 322.13L867.606 325.302L864.437 322.13Z" fill="#929292"/>
<path d="M824.592 322.13L827.761 318.959L830.931 322.13L827.761 325.302L824.592 322.13Z" fill="#929292"/>
<path d="M784.747 322.13L787.917 318.959L791.086 322.13L787.917 325.302L784.747 322.13Z" fill="#929292"/>
<path d="M744.902 322.13L748.072 318.959L751.241 322.13L748.072 325.302L744.902 322.13Z" fill="#929292"/>
<path d="M705.057 322.13L708.227 318.959L711.396 322.13L708.227 325.302L705.057 322.13Z" fill="#929292"/>
<path d="M665.212 322.13L668.382 318.959L671.552 322.13L668.382 325.302L665.212 322.13Z" fill="#929292"/>
<path d="M625.367 322.13L628.537 318.959L631.707 322.13L628.537 325.302L625.367 322.13Z" fill="#929292"/>
<path d="M585.522 322.13L588.692 318.959L591.862 322.13L588.692 325.302L585.522 322.13Z" fill="#929292"/>
<path d="M545.678 322.13L548.847 318.959L552.017 322.13L548.847 325.302L545.678 322.13Z" fill="#929292"/>
<path d="M505.833 322.13L509.002 318.959L512.172 322.13L509.002 325.302L505.833 322.13Z" fill="#929292"/>
<path d="M465.988 322.13L469.158 318.959L472.327 322.13L469.158 325.302L465.988 322.13Z" fill="#929292"/>
<path d="M426.143 322.13L429.313 318.959L432.482 322.13L429.313 325.302L426.143 322.13Z" fill="#929292"/>
<path d="M386.299 322.13L389.468 318.959L392.638 322.13L389.468 325.302L386.299 322.13Z" fill="#929292"/>
<path d="M346.454 322.13L349.623 318.959L352.793 322.13L349.623 325.302L346.454 322.13Z" fill="#929292"/>
<path d="M1063.66 362L1066.83 358.829L1070 362L1066.83 365.172L1063.66 362Z" fill="#929292"/>
<path d="M1023.82 362L1026.99 358.829L1030.15 362L1026.99 365.172L1023.82 362Z" fill="#929292"/>
<path d="M983.971 362L987.141 358.829L990.31 362L987.141 365.172L983.971 362Z" fill="#929292"/>
<path d="M944.126 362L947.296 358.829L950.465 362L947.296 365.172L944.126 362Z" fill="#929292"/>
<path d="M904.281 362L907.451 358.829L910.62 362L907.451 365.172L904.281 362Z" fill="#929292"/>
<path d="M864.437 362L867.606 358.829L870.776 362L867.606 365.172L864.437 362Z" fill="#929292"/>
<path d="M824.592 362L827.761 358.829L830.931 362L827.761 365.172L824.592 362Z" fill="#929292"/>
<path d="M784.747 362L787.917 358.829L791.086 362L787.917 365.172L784.747 362Z" fill="#929292"/>
<path d="M744.902 362L748.072 358.829L751.241 362L748.072 365.172L744.902 362Z" fill="#929292"/>
<path d="M705.057 362L708.227 358.829L711.396 362L708.227 365.172L705.057 362Z" fill="#929292"/>
<path d="M665.212 362L668.382 358.829L671.552 362L668.382 365.172L665.212 362Z" fill="#929292"/>
<path d="M625.367 362L628.537 358.829L631.707 362L628.537 365.172L625.367 362Z" fill="#929292"/>
<path d="M585.522 362L588.692 358.829L591.862 362L588.692 365.172L585.522 362Z" fill="#929292"/>
<path d="M545.678 362L548.847 358.829L552.017 362L548.847 365.172L545.678 362Z" fill="#929292"/>
<path d="M505.833 362L509.002 358.829L512.172 362L509.002 365.172L505.833 362Z" fill="#929292"/>
<path d="M465.988 362L469.158 358.829L472.327 362L469.158 365.172L465.988 362Z" fill="#929292"/>
<path d="M426.143 362L429.313 358.829L432.482 362L429.313 365.172L426.143 362Z" fill="#929292"/>
<path d="M386.299 362L389.468 358.829L392.638 362L389.468 365.172L386.299 362Z" fill="#929292"/>
<path d="M346.454 362L349.623 358.829L352.793 362L349.623 365.172L346.454 362Z" fill="#929292"/>
<path d="M1063.66 401.87L1066.83 398.698L1070 401.87L1066.83 405.041L1063.66 401.87Z" fill="#929292"/>
<path d="M1023.82 401.87L1026.99 398.698L1030.15 401.87L1026.99 405.041L1023.82 401.87Z" fill="#929292"/>
<path d="M983.971 401.87L987.141 398.698L990.31 401.87L987.141 405.041L983.971 401.87Z" fill="#929292"/>
<path d="M944.126 401.87L947.296 398.698L950.465 401.87L947.296 405.041L944.126 401.87Z" fill="#929292"/>
<path d="M904.281 401.87L907.451 398.698L910.62 401.87L907.451 405.041L904.281 401.87Z" fill="#929292"/>
<path d="M864.437 401.87L867.606 398.698L870.776 401.87L867.606 405.041L864.437 401.87Z" fill="#929292"/>
<path d="M824.592 401.87L827.761 398.698L830.931 401.87L827.761 405.041L824.592 401.87Z" fill="#929292"/>
<path d="M784.747 401.87L787.917 398.698L791.086 401.87L787.917 405.041L784.747 401.87Z" fill="#929292"/>
<path d="M744.902 401.87L748.072 398.698L751.241 401.87L748.072 405.041L744.902 401.87Z" fill="#929292"/>
<path d="M705.057 401.87L708.227 398.698L711.396 401.87L708.227 405.041L705.057 401.87Z" fill="#929292"/>
<path d="M665.212 401.87L668.382 398.698L671.552 401.87L668.382 405.041L665.212 401.87Z" fill="#929292"/>
<path d="M625.367 401.87L628.537 398.698L631.707 401.87L628.537 405.041L625.367 401.87Z" fill="#929292"/>
<path d="M585.522 401.87L588.692 398.698L591.862 401.87L588.692 405.041L585.522 401.87Z" fill="#929292"/>
<path d="M545.678 401.87L548.847 398.698L552.017 401.87L548.847 405.041L545.678 401.87Z" fill="#929292"/>
<path d="M505.833 401.87L509.002 398.698L512.172 401.87L509.002 405.041L505.833 401.87Z" fill="#929292"/>
<path d="M465.988 401.87L469.158 398.698L472.327 401.87L469.158 405.041L465.988 401.87Z" fill="#929292"/>
<path d="M426.143 401.87L429.313 398.698L432.482 401.87L429.313 405.041L426.143 401.87Z" fill="#929292"/>
<path d="M386.299 401.87L389.468 398.698L392.638 401.87L389.468 405.041L386.299 401.87Z" fill="#929292"/>
<path d="M346.454 401.87L349.623 398.698L352.793 401.87L349.623 405.041L346.454 401.87Z" fill="#929292"/>
<path d="M1063.66 441.739L1066.83 438.568L1070 441.739L1066.83 444.911L1063.66 441.739Z" fill="#929292"/>
<path d="M1023.82 441.739L1026.99 438.568L1030.15 441.739L1026.99 444.911L1023.82 441.739Z" fill="#929292"/>
<path d="M983.971 441.739L987.141 438.568L990.31 441.739L987.141 444.911L983.971 441.739Z" fill="#929292"/>
<path d="M944.126 441.739L947.296 438.568L950.465 441.739L947.296 444.911L944.126 441.739Z" fill="#929292"/>
<path d="M904.281 441.739L907.451 438.568L910.62 441.739L907.451 444.911L904.281 441.739Z" fill="#929292"/>
<path d="M864.437 441.739L867.606 438.568L870.776 441.739L867.606 444.911L864.437 441.739Z" fill="#929292"/>
<path d="M824.592 441.739L827.761 438.568L830.931 441.739L827.761 444.911L824.592 441.739Z" fill="#929292"/>
<path d="M784.747 441.739L787.917 438.568L791.086 441.739L787.917 444.911L784.747 441.739Z" fill="#929292"/>
<path d="M744.902 441.739L748.072 438.568L751.241 441.739L748.072 444.911L744.902 441.739Z" fill="#929292"/>
<path d="M705.057 441.739L708.227 438.568L711.396 441.739L708.227 444.911L705.057 441.739Z" fill="#929292"/>
<path d="M665.212 441.739L668.382 438.568L671.552 441.739L668.382 444.911L665.212 441.739Z" fill="#929292"/>
<path d="M625.367 441.739L628.537 438.568L631.707 441.739L628.537 444.911L625.367 441.739Z" fill="#929292"/>
<path d="M585.522 441.739L588.692 438.568L591.862 441.739L588.692 444.911L585.522 441.739Z" fill="#929292"/>
<path d="M545.678 441.739L548.847 438.568L552.017 441.739L548.847 444.911L545.678 441.739Z" fill="#929292"/>
<path d="M505.833 441.739L509.002 438.568L512.172 441.739L509.002 444.911L505.833 441.739Z" fill="#929292"/>
<path d="M465.988 441.739L469.158 438.568L472.327 441.739L469.158 444.911L465.988 441.739Z" fill="#929292"/>
<path d="M426.143 441.739L429.313 438.568L432.482 441.739L429.313 444.911L426.143 441.739Z" fill="#929292"/>
<path d="M386.299 441.739L389.468 438.568L392.638 441.739L389.468 444.911L386.299 441.739Z" fill="#929292"/>
<path d="M346.454 441.739L349.623 438.568L352.793 441.739L349.623 444.911L346.454 441.739Z" fill="#929292"/>
<path d="M1063.66 481.61L1066.83 478.438L1070 481.61L1066.83 484.781L1063.66 481.61Z" fill="#929292"/>
<path d="M1023.82 481.61L1026.99 478.438L1030.15 481.61L1026.99 484.781L1023.82 481.61Z" fill="#929292"/>
<path d="M983.971 481.61L987.141 478.438L990.31 481.61L987.141 484.781L983.971 481.61Z" fill="#929292"/>
<path d="M944.126 481.61L947.296 478.438L950.465 481.61L947.296 484.781L944.126 481.61Z" fill="#929292"/>
<path d="M904.281 481.61L907.451 478.438L910.62 481.61L907.451 484.781L904.281 481.61Z" fill="#929292"/>
<path d="M864.437 481.61L867.606 478.438L870.776 481.61L867.606 484.781L864.437 481.61Z" fill="#929292"/>
<path d="M824.592 481.61L827.761 478.438L830.931 481.61L827.761 484.781L824.592 481.61Z" fill="#929292"/>
<path d="M784.747 481.61L787.917 478.438L791.086 481.61L787.917 484.781L784.747 481.61Z" fill="#929292"/>
<path d="M744.902 481.61L748.072 478.438L751.241 481.61L748.072 484.781L744.902 481.61Z" fill="#929292"/>
<path d="M705.057 481.61L708.227 478.438L711.396 481.61L708.227 484.781L705.057 481.61Z" fill="#929292"/>
<path d="M665.212 481.61L668.382 478.438L671.552 481.61L668.382 484.781L665.212 481.61Z" fill="#929292"/>
<path d="M625.367 481.61L628.537 478.438L631.707 481.61L628.537 484.781L625.367 481.61Z" fill="#929292"/>
<path d="M585.522 481.61L588.692 478.438L591.862 481.61L588.692 484.781L585.522 481.61Z" fill="#929292"/>
<path d="M545.678 481.61L548.847 478.438L552.017 481.61L548.847 484.781L545.678 481.61Z" fill="#929292"/>
<path d="M505.833 481.61L509.002 478.438L512.172 481.61L509.002 484.781L505.833 481.61Z" fill="#929292"/>
<path d="M465.988 481.61L469.158 478.438L472.327 481.61L469.158 484.781L465.988 481.61Z" fill="#929292"/>
<path d="M426.143 481.61L429.313 478.438L432.482 481.61L429.313 484.781L426.143 481.61Z" fill="#929292"/>
<path d="M386.299 481.61L389.468 478.438L392.638 481.61L389.468 484.781L386.299 481.61Z" fill="#929292"/>
<path d="M346.454 481.61L349.623 478.438L352.793 481.61L349.623 484.781L346.454 481.61Z" fill="#929292"/>
<path d="M1063.66 521.479L1066.83 518.307L1070 521.479L1066.83 524.651L1063.66 521.479Z" fill="#929292"/>
<path d="M1023.82 521.479L1026.99 518.307L1030.15 521.479L1026.99 524.651L1023.82 521.479Z" fill="#929292"/>
<path d="M983.971 521.479L987.141 518.307L990.31 521.479L987.141 524.651L983.971 521.479Z" fill="#929292"/>
<path d="M944.126 521.479L947.296 518.307L950.465 521.479L947.296 524.651L944.126 521.479Z" fill="#929292"/>
<path d="M904.281 521.479L907.451 518.307L910.62 521.479L907.451 524.651L904.281 521.479Z" fill="#929292"/>
<path d="M864.437 521.479L867.606 518.307L870.776 521.479L867.606 524.651L864.437 521.479Z" fill="#929292"/>
<path d="M824.592 521.479L827.761 518.307L830.931 521.479L827.761 524.651L824.592 521.479Z" fill="#929292"/>
<path d="M784.747 521.479L787.917 518.307L791.086 521.479L787.917 524.651L784.747 521.479Z" fill="#929292"/>
<path d="M744.902 521.479L748.072 518.307L751.241 521.479L748.072 524.651L744.902 521.479Z" fill="#929292"/>
<path d="M705.057 521.479L708.227 518.307L711.396 521.479L708.227 524.651L705.057 521.479Z" fill="#929292"/>
<path d="M665.212 521.479L668.382 518.307L671.552 521.479L668.382 524.651L665.212 521.479Z" fill="#929292"/>
<path d="M625.367 521.479L628.537 518.307L631.707 521.479L628.537 524.651L625.367 521.479Z" fill="#929292"/>
<path d="M585.522 521.479L588.692 518.307L591.862 521.479L588.692 524.651L585.522 521.479Z" fill="#929292"/>
<path d="M545.678 521.479L548.847 518.307L552.017 521.479L548.847 524.651L545.678 521.479Z" fill="#929292"/>
<path d="M505.833 521.479L509.002 518.307L512.172 521.479L509.002 524.651L505.833 521.479Z" fill="#929292"/>
<path d="M465.988 521.479L469.158 518.307L472.327 521.479L469.158 524.651L465.988 521.479Z" fill="#929292"/>
<path d="M426.143 521.479L429.313 518.307L432.482 521.479L429.313 524.651L426.143 521.479Z" fill="#929292"/>
<path d="M386.299 521.479L389.468 518.307L392.638 521.479L389.468 524.651L386.299 521.479Z" fill="#929292"/>
<path d="M346.454 521.479L349.623 518.307L352.793 521.479L349.623 524.651L346.454 521.479Z" fill="#929292"/>
<path d="M1063.66 561.349L1066.83 558.177L1070 561.349L1066.83 564.52L1063.66 561.349Z" fill="#929292"/>
<path d="M1023.82 561.349L1026.99 558.177L1030.15 561.349L1026.99 564.52L1023.82 561.349Z" fill="#929292"/>
<path d="M983.971 561.349L987.141 558.177L990.31 561.349L987.141 564.52L983.971 561.349Z" fill="#929292"/>
<path d="M944.126 561.349L947.296 558.177L950.465 561.349L947.296 564.52L944.126 561.349Z" fill="#929292"/>
<path d="M904.281 561.349L907.451 558.177L910.62 561.349L907.451 564.52L904.281 561.349Z" fill="#929292"/>
<path d="M864.437 561.349L867.606 558.177L870.776 561.349L867.606 564.52L864.437 561.349Z" fill="#929292"/>
<path d="M824.592 561.349L827.761 558.177L830.931 561.349L827.761 564.52L824.592 561.349Z" fill="#929292"/>
<path d="M784.747 561.349L787.917 558.177L791.086 561.349L787.917 564.52L784.747 561.349Z" fill="#929292"/>
<path d="M744.902 561.349L748.072 558.177L751.241 561.349L748.072 564.52L744.902 561.349Z" fill="#929292"/>
<path d="M705.057 561.349L708.227 558.177L711.396 561.349L708.227 564.52L705.057 561.349Z" fill="#929292"/>
<path d="M665.212 561.349L668.382 558.177L671.552 561.349L668.382 564.52L665.212 561.349Z" fill="#929292"/>
<path d="M625.367 561.349L628.537 558.177L631.707 561.349L628.537 564.52L625.367 561.349Z" fill="#929292"/>
<path d="M585.522 561.349L588.692 558.177L591.862 561.349L588.692 564.52L585.522 561.349Z" fill="#929292"/>
<path d="M545.678 561.349L548.847 558.177L552.017 561.349L548.847 564.52L545.678 561.349Z" fill="#929292"/>
<path d="M505.833 561.349L509.002 558.177L512.172 561.349L509.002 564.52L505.833 561.349Z" fill="#929292"/>
<path d="M465.988 561.349L469.158 558.177L472.327 561.349L469.158 564.52L465.988 561.349Z" fill="#929292"/>
<path d="M426.143 561.349L429.313 558.177L432.482 561.349L429.313 564.52L426.143 561.349Z" fill="#929292"/>
<path d="M386.299 561.349L389.468 558.177L392.638 561.349L389.468 564.52L386.299 561.349Z" fill="#929292"/>
<path d="M346.454 561.349L349.623 558.177L352.793 561.349L349.623 564.52L346.454 561.349Z" fill="#929292"/>
<path d="M1063.66 601.219L1066.83 598.047L1070 601.219L1066.83 604.391L1063.66 601.219Z" fill="#929292"/>
<path d="M1023.82 601.219L1026.99 598.047L1030.15 601.219L1026.99 604.391L1023.82 601.219Z" fill="#929292"/>
<path d="M983.971 601.219L987.141 598.047L990.31 601.219L987.141 604.391L983.971 601.219Z" fill="#929292"/>
<path d="M944.126 601.219L947.296 598.047L950.465 601.219L947.296 604.391L944.126 601.219Z" fill="#929292"/>
<path d="M904.281 601.219L907.451 598.047L910.62 601.219L907.451 604.391L904.281 601.219Z" fill="#929292"/>
<path d="M864.437 601.219L867.606 598.047L870.776 601.219L867.606 604.391L864.437 601.219Z" fill="#929292"/>
<path d="M824.592 601.219L827.761 598.047L830.931 601.219L827.761 604.391L824.592 601.219Z" fill="#929292"/>
<path d="M784.747 601.219L787.917 598.047L791.086 601.219L787.917 604.391L784.747 601.219Z" fill="#929292"/>
<path d="M744.902 601.219L748.072 598.047L751.241 601.219L748.072 604.391L744.902 601.219Z" fill="#929292"/>
<path d="M705.057 601.219L708.227 598.047L711.396 601.219L708.227 604.391L705.057 601.219Z" fill="#929292"/>
<path d="M665.212 601.219L668.382 598.047L671.552 601.219L668.382 604.391L665.212 601.219Z" fill="#929292"/>
<path d="M625.367 601.219L628.537 598.047L631.707 601.219L628.537 604.391L625.367 601.219Z" fill="#929292"/>
<path d="M585.522 601.219L588.692 598.047L591.862 601.219L588.692 604.391L585.522 601.219Z" fill="#929292"/>
<path d="M545.678 601.219L548.847 598.047L552.017 601.219L548.847 604.391L545.678 601.219Z" fill="#929292"/>
<path d="M505.833 601.219L509.002 598.047L512.172 601.219L509.002 604.391L505.833 601.219Z" fill="#929292"/>
<path d="M465.988 601.219L469.158 598.047L472.327 601.219L469.158 604.391L465.988 601.219Z" fill="#929292"/>
<path d="M426.143 601.219L429.313 598.047L432.482 601.219L429.313 604.391L426.143 601.219Z" fill="#929292"/>
<path d="M386.299 601.219L389.468 598.047L392.638 601.219L389.468 604.391L386.299 601.219Z" fill="#929292"/>
<path d="M346.454 601.219L349.623 598.047L352.793 601.219L349.623 604.391L346.454 601.219Z" fill="#929292"/>
<path d="M1063.66 641.088L1066.83 637.917L1070 641.088L1066.83 644.26L1063.66 641.088Z" fill="#929292"/>
<path d="M1023.82 641.088L1026.99 637.917L1030.15 641.088L1026.99 644.26L1023.82 641.088Z" fill="#929292"/>
<path d="M983.971 641.088L987.141 637.917L990.31 641.088L987.141 644.26L983.971 641.088Z" fill="#929292"/>
<path d="M944.126 641.088L947.296 637.917L950.465 641.088L947.296 644.26L944.126 641.088Z" fill="#929292"/>
<path d="M904.281 641.088L907.451 637.917L910.62 641.088L907.451 644.26L904.281 641.088Z" fill="#929292"/>
<path d="M864.437 641.088L867.606 637.917L870.776 641.088L867.606 644.26L864.437 641.088Z" fill="#929292"/>
<path d="M824.592 641.088L827.761 637.917L830.931 641.088L827.761 644.26L824.592 641.088Z" fill="#929292"/>
<path d="M784.747 641.088L787.917 637.917L791.086 641.088L787.917 644.26L784.747 641.088Z" fill="#929292"/>
<path d="M744.902 641.088L748.072 637.917L751.241 641.088L748.072 644.26L744.902 641.088Z" fill="#929292"/>
<path d="M705.057 641.088L708.227 637.917L711.396 641.088L708.227 644.26L705.057 641.088Z" fill="#929292"/>
<path d="M665.212 641.088L668.382 637.917L671.552 641.088L668.382 644.26L665.212 641.088Z" fill="#929292"/>
<path d="M625.367 641.088L628.537 637.917L631.707 641.088L628.537 644.26L625.367 641.088Z" fill="#929292"/>
<path d="M585.522 641.088L588.692 637.917L591.862 641.088L588.692 644.26L585.522 641.088Z" fill="#929292"/>
<path d="M545.678 641.088L548.847 637.917L552.017 641.088L548.847 644.26L545.678 641.088Z" fill="#929292"/>
<path d="M505.833 641.088L509.002 637.917L512.172 641.088L509.002 644.26L505.833 641.088Z" fill="#929292"/>
<path d="M465.988 641.088L469.158 637.917L472.327 641.088L469.158 644.26L465.988 641.088Z" fill="#929292"/>
<path d="M426.143 641.088L429.313 637.917L432.482 641.088L429.313 644.26L426.143 641.088Z" fill="#929292"/>
<path d="M386.299 641.088L389.468 637.917L392.638 641.088L389.468 644.26L386.299 641.088Z" fill="#929292"/>
<path d="M346.454 641.088L349.623 637.917L352.793 641.088L349.623 644.26L346.454 641.088Z" fill="#929292"/>
<path d="M1063.66 680.958L1066.83 677.786L1070 680.958L1066.83 684.13L1063.66 680.958Z" fill="#929292"/>
<path d="M1023.82 680.958L1026.99 677.786L1030.15 680.958L1026.99 684.13L1023.82 680.958Z" fill="#929292"/>
<path d="M983.971 680.958L987.141 677.786L990.31 680.958L987.141 684.13L983.971 680.958Z" fill="#929292"/>
<path d="M944.126 680.958L947.296 677.786L950.465 680.958L947.296 684.13L944.126 680.958Z" fill="#929292"/>
<path d="M904.281 680.958L907.451 677.786L910.62 680.958L907.451 684.13L904.281 680.958Z" fill="#929292"/>
<path d="M864.437 680.958L867.606 677.786L870.776 680.958L867.606 684.13L864.437 680.958Z" fill="#929292"/>
<path d="M824.592 680.958L827.761 677.786L830.931 680.958L827.761 684.13L824.592 680.958Z" fill="#929292"/>
<path d="M784.747 680.958L787.917 677.786L791.086 680.958L787.917 684.13L784.747 680.958Z" fill="#929292"/>
<path d="M744.902 680.958L748.072 677.786L751.241 680.958L748.072 684.13L744.902 680.958Z" fill="#929292"/>
<path d="M705.057 680.958L708.227 677.786L711.396 680.958L708.227 684.13L705.057 680.958Z" fill="#929292"/>
<path d="M665.212 680.958L668.382 677.786L671.552 680.958L668.382 684.13L665.212 680.958Z" fill="#929292"/>
<path d="M625.367 680.958L628.537 677.786L631.707 680.958L628.537 684.13L625.367 680.958Z" fill="#929292"/>
<path d="M585.522 680.958L588.692 677.786L591.862 680.958L588.692 684.13L585.522 680.958Z" fill="#929292"/>
<path d="M545.678 680.958L548.847 677.786L552.017 680.958L548.847 684.13L545.678 680.958Z" fill="#929292"/>
<path d="M505.833 680.958L509.002 677.786L512.172 680.958L509.002 684.13L505.833 680.958Z" fill="#929292"/>
<path d="M465.988 680.958L469.158 677.786L472.327 680.958L469.158 684.13L465.988 680.958Z" fill="#929292"/>
<path d="M426.143 680.958L429.313 677.786L432.482 680.958L429.313 684.13L426.143 680.958Z" fill="#929292"/>
<path d="M386.299 680.958L389.468 677.786L392.638 680.958L389.468 684.13L386.299 680.958Z" fill="#929292"/>
<path d="M346.454 680.958L349.623 677.786L352.793 680.958L349.623 684.13L346.454 680.958Z" fill="#929292"/>
<path d="M1063.66 720.828L1066.83 717.657L1070 720.828L1066.83 724L1063.66 720.828Z" fill="#929292"/>
<path d="M1023.82 720.828L1026.99 717.657L1030.15 720.828L1026.99 724L1023.82 720.828Z" fill="#929292"/>
<path d="M983.971 720.828L987.141 717.657L990.31 720.828L987.141 724L983.971 720.828Z" fill="#929292"/>
<path d="M944.126 720.828L947.296 717.657L950.465 720.828L947.296 724L944.126 720.828Z" fill="#929292"/>
<path d="M904.281 720.828L907.451 717.657L910.62 720.828L907.451 724L904.281 720.828Z" fill="#929292"/>
<path d="M864.437 720.828L867.606 717.657L870.776 720.828L867.606 724L864.437 720.828Z" fill="#929292"/>
<path d="M824.592 720.828L827.761 717.657L830.931 720.828L827.761 724L824.592 720.828Z" fill="#929292"/>
<path d="M784.747 720.828L787.917 717.657L791.086 720.828L787.917 724L784.747 720.828Z" fill="#929292"/>
<path d="M744.902 720.828L748.072 717.657L751.241 720.828L748.072 724L744.902 720.828Z" fill="#929292"/>
<path d="M705.057 720.828L708.227 717.657L711.396 720.828L708.227 724L705.057 720.828Z" fill="#929292"/>
<path d="M665.212 720.828L668.382 717.657L671.552 720.828L668.382 724L665.212 720.828Z" fill="#929292"/>
<path d="M625.367 720.828L628.537 717.657L631.707 720.828L628.537 724L625.367 720.828Z" fill="#929292"/>
<path d="M585.522 720.828L588.692 717.657L591.862 720.828L588.692 724L585.522 720.828Z" fill="#929292"/>
<path d="M545.678 720.828L548.847 717.657L552.017 720.828L548.847 724L545.678 720.828Z" fill="#929292"/>
<path d="M505.833 720.828L509.002 717.657L512.172 720.828L509.002 724L505.833 720.828Z" fill="#929292"/>
<path d="M465.988 720.828L469.158 717.657L472.327 720.828L469.158 724L465.988 720.828Z" fill="#929292"/>
<path d="M426.143 720.828L429.313 717.657L432.482 720.828L429.313 724L426.143 720.828Z" fill="#929292"/>
<path d="M386.299 720.828L389.468 717.657L392.638 720.828L389.468 724L386.299 720.828Z" fill="#929292"/>
<path d="M346.454 720.828L349.623 717.657L352.793 720.828L349.623 724L346.454 720.828Z" fill="#929292"/>
<path d="M665.207 3.17162L668.377 0L671.546 3.17162L668.377 6.34324L665.207 3.17162Z" fill="#929292"/>
<path d="M625.362 3.17162L628.532 0L631.701 3.17162L628.532 6.34324L625.362 3.17162Z" fill="#929292"/>
<path d="M585.517 3.17162L588.687 0L591.857 3.17162L588.687 6.34324L585.517 3.17162Z" fill="#929292"/>
<path d="M545.672 3.17162L548.842 0L552.012 3.17162L548.842 6.34324L545.672 3.17162Z" fill="#929292"/>
<path d="M505.827 3.17162L508.997 0L512.167 3.17162L508.997 6.34324L505.827 3.17162Z" fill="#929292"/>
<path d="M465.983 3.17162L469.152 0L472.322 3.17162L469.152 6.34324L465.983 3.17162Z" fill="#929292"/>
<path d="M426.138 3.17162L429.307 0L432.477 3.17162L429.307 6.34324L426.138 3.17162Z" fill="#929292"/>
<path d="M386.293 3.17162L389.463 0L392.633 3.17162L389.463 6.34324L386.293 3.17162Z" fill="#929292"/>
<path d="M346.448 3.17162L349.618 0L352.788 3.17162L349.618 6.34324L346.448 3.17162Z" fill="#929292"/>
<path d="M306.603 3.17162L309.773 0L312.943 3.17162L309.773 6.34324L306.603 3.17162Z" fill="#929292"/>
<path d="M266.759 3.17162L269.928 0L273.098 3.17162L269.928 6.34324L266.759 3.17162Z" fill="#929292"/>
<path d="M226.914 3.17162L230.083 0L233.253 3.17162L230.083 6.34324L226.914 3.17162Z" fill="#929292"/>
<path d="M187.069 3.17162L190.238 0L193.408 3.17162L190.238 6.34324L187.069 3.17162Z" fill="#929292"/>
<path d="M147.224 3.17162L150.394 0L153.563 3.17162L150.394 6.34324L147.224 3.17162Z" fill="#929292"/>
<path d="M107.379 3.17162L110.549 0L113.718 3.17162L110.549 6.34324L107.379 3.17162Z" fill="#929292"/>
<path d="M67.5345 3.17162L70.7042 0L73.8738 3.17162L70.7042 6.34324L67.5345 3.17162Z" fill="#929292"/>
<path d="M27.6896 3.17162L30.8591 0L34.0288 3.17162L30.8591 6.34324L27.6896 3.17162Z" fill="#929292"/>
<path d="M-12.155 3.17162L-8.98535 0L-5.8158 3.17162L-8.98535 6.34324L-12.155 3.17162Z" fill="#929292"/>
<path d="M-52 3.17162L-48.8303 0L-45.6608 3.17162L-48.8303 6.34324L-52 3.17162Z" fill="#929292"/>
<path d="M665.207 43.0416L668.377 39.8699L671.546 43.0416L668.377 46.2132L665.207 43.0416Z" fill="#929292"/>
<path d="M625.362 43.0416L628.532 39.8699L631.701 43.0416L628.532 46.2132L625.362 43.0416Z" fill="#929292"/>
<path d="M585.517 43.0416L588.687 39.8699L591.857 43.0416L588.687 46.2132L585.517 43.0416Z" fill="#929292"/>
<path d="M545.672 43.0416L548.842 39.8699L552.012 43.0416L548.842 46.2132L545.672 43.0416Z" fill="#929292"/>
<path d="M505.827 43.0416L508.997 39.8699L512.167 43.0416L508.997 46.2132L505.827 43.0416Z" fill="#929292"/>
<path d="M465.983 43.0416L469.152 39.8699L472.322 43.0416L469.152 46.2132L465.983 43.0416Z" fill="#929292"/>
<path d="M426.138 43.0416L429.307 39.8699L432.477 43.0416L429.307 46.2132L426.138 43.0416Z" fill="#929292"/>
<path d="M386.293 43.0416L389.463 39.8699L392.633 43.0416L389.463 46.2132L386.293 43.0416Z" fill="#929292"/>
<path d="M346.448 43.0416L349.618 39.8699L352.788 43.0416L349.618 46.2132L346.448 43.0416Z" fill="#929292"/>
<path d="M306.603 43.0416L309.773 39.8699L312.943 43.0416L309.773 46.2132L306.603 43.0416Z" fill="#929292"/>
<path d="M266.759 43.0416L269.928 39.8699L273.098 43.0416L269.928 46.2132L266.759 43.0416Z" fill="#929292"/>
<path d="M226.914 43.0416L230.083 39.8699L233.253 43.0416L230.083 46.2132L226.914 43.0416Z" fill="#929292"/>
<path d="M187.069 43.0416L190.238 39.8699L193.408 43.0416L190.238 46.2132L187.069 43.0416Z" fill="#929292"/>
<path d="M147.224 43.0416L150.394 39.8699L153.563 43.0416L150.394 46.2132L147.224 43.0416Z" fill="#929292"/>
<path d="M107.379 43.0416L110.549 39.8699L113.718 43.0416L110.549 46.2132L107.379 43.0416Z" fill="#929292"/>
<path d="M67.5345 43.0416L70.7042 39.8699L73.8738 43.0416L70.7042 46.2132L67.5345 43.0416Z" fill="#929292"/>
<path d="M27.6896 43.0416L30.8591 39.8699L34.0288 43.0416L30.8591 46.2132L27.6896 43.0416Z" fill="#929292"/>
<path d="M-12.155 43.0416L-8.98535 39.8699L-5.8158 43.0416L-8.98535 46.2132L-12.155 43.0416Z" fill="#929292"/>
<path d="M-52 43.0416L-48.8303 39.8699L-45.6608 43.0416L-48.8303 46.2132L-52 43.0416Z" fill="#929292"/>
<path d="M665.207 82.9115L668.377 79.7399L671.546 82.9115L668.377 86.0831L665.207 82.9115Z" fill="#929292"/>
<path d="M625.362 82.9115L628.532 79.7399L631.701 82.9115L628.532 86.0831L625.362 82.9115Z" fill="#929292"/>
<path d="M585.517 82.9115L588.687 79.7399L591.857 82.9115L588.687 86.0831L585.517 82.9115Z" fill="#929292"/>
<path d="M545.672 82.9115L548.842 79.7399L552.012 82.9115L548.842 86.0831L545.672 82.9115Z" fill="#929292"/>
<path d="M505.827 82.9115L508.997 79.7399L512.167 82.9115L508.997 86.0831L505.827 82.9115Z" fill="#929292"/>
<path d="M465.983 82.9115L469.152 79.7399L472.322 82.9115L469.152 86.0831L465.983 82.9115Z" fill="#929292"/>
<path d="M426.138 82.9115L429.307 79.7399L432.477 82.9115L429.307 86.0831L426.138 82.9115Z" fill="#929292"/>
<path d="M386.293 82.9115L389.463 79.7399L392.633 82.9115L389.463 86.0831L386.293 82.9115Z" fill="#929292"/>
<path d="M346.448 82.9115L349.618 79.7399L352.788 82.9115L349.618 86.0831L346.448 82.9115Z" fill="#929292"/>
<path d="M306.603 82.9115L309.773 79.7399L312.943 82.9115L309.773 86.0831L306.603 82.9115Z" fill="#929292"/>
<path d="M266.759 82.9115L269.928 79.7399L273.098 82.9115L269.928 86.0831L266.759 82.9115Z" fill="#929292"/>
<path d="M226.914 82.9115L230.083 79.7399L233.253 82.9115L230.083 86.0831L226.914 82.9115Z" fill="#929292"/>
<path d="M187.069 82.9115L190.238 79.7399L193.408 82.9115L190.238 86.0831L187.069 82.9115Z" fill="#929292"/>
<path d="M147.224 82.9115L150.394 79.7399L153.563 82.9115L150.394 86.0831L147.224 82.9115Z" fill="#929292"/>
<path d="M107.379 82.9115L110.549 79.7399L113.718 82.9115L110.549 86.0831L107.379 82.9115Z" fill="#929292"/>
<path d="M67.5345 82.9115L70.7042 79.7399L73.8738 82.9115L70.7042 86.0831L67.5345 82.9115Z" fill="#929292"/>
<path d="M27.6896 82.9115L30.8591 79.7399L34.0288 82.9115L30.8591 86.0831L27.6896 82.9115Z" fill="#929292"/>
<path d="M-12.155 82.9115L-8.98535 79.7399L-5.8158 82.9115L-8.98535 86.0831L-12.155 82.9115Z" fill="#929292"/>
<path d="M-52 82.9115L-48.8303 79.7399L-45.6608 82.9115L-48.8303 86.0831L-52 82.9115Z" fill="#929292"/>
<path d="M665.207 122.781L668.377 119.61L671.546 122.781L668.377 125.953L665.207 122.781Z" fill="#929292"/>
<path d="M625.362 122.781L628.532 119.61L631.701 122.781L628.532 125.953L625.362 122.781Z" fill="#929292"/>
<path d="M585.517 122.781L588.687 119.61L591.857 122.781L588.687 125.953L585.517 122.781Z" fill="#929292"/>
<path d="M545.672 122.781L548.842 119.61L552.012 122.781L548.842 125.953L545.672 122.781Z" fill="#929292"/>
<path d="M505.827 122.781L508.997 119.61L512.167 122.781L508.997 125.953L505.827 122.781Z" fill="#929292"/>
<path d="M465.983 122.781L469.152 119.61L472.322 122.781L469.152 125.953L465.983 122.781Z" fill="#929292"/>
<path d="M426.138 122.781L429.307 119.61L432.477 122.781L429.307 125.953L426.138 122.781Z" fill="#929292"/>
<path d="M386.293 122.781L389.463 119.61L392.633 122.781L389.463 125.953L386.293 122.781Z" fill="#929292"/>
<path d="M346.448 122.781L349.618 119.61L352.788 122.781L349.618 125.953L346.448 122.781Z" fill="#929292"/>
<path d="M306.603 122.781L309.773 119.61L312.943 122.781L309.773 125.953L306.603 122.781Z" fill="#929292"/>
<path d="M266.759 122.781L269.928 119.61L273.098 122.781L269.928 125.953L266.759 122.781Z" fill="#929292"/>
<path d="M226.914 122.781L230.083 119.61L233.253 122.781L230.083 125.953L226.914 122.781Z" fill="#929292"/>
<path d="M187.069 122.781L190.238 119.61L193.408 122.781L190.238 125.953L187.069 122.781Z" fill="#929292"/>
<path d="M147.224 122.781L150.394 119.61L153.563 122.781L150.394 125.953L147.224 122.781Z" fill="#929292"/>
<path d="M107.379 122.781L110.549 119.61L113.718 122.781L110.549 125.953L107.379 122.781Z" fill="#929292"/>
<path d="M67.5345 122.781L70.7042 119.61L73.8738 122.781L70.7042 125.953L67.5345 122.781Z" fill="#929292"/>
<path d="M27.6896 122.781L30.8591 119.61L34.0288 122.781L30.8591 125.953L27.6896 122.781Z" fill="#929292"/>
<path d="M-12.155 122.781L-8.98535 119.61L-5.8158 122.781L-8.98535 125.953L-12.155 122.781Z" fill="#929292"/>
<path d="M-52 122.781L-48.8303 119.61L-45.6608 122.781L-48.8303 125.953L-52 122.781Z" fill="#929292"/>
<path d="M665.207 162.651L668.377 159.479L671.546 162.651L668.377 165.823L665.207 162.651Z" fill="#929292"/>
<path d="M625.362 162.651L628.532 159.479L631.701 162.651L628.532 165.823L625.362 162.651Z" fill="#929292"/>
<path d="M585.517 162.651L588.687 159.479L591.857 162.651L588.687 165.823L585.517 162.651Z" fill="#929292"/>
<path d="M545.672 162.651L548.842 159.479L552.012 162.651L548.842 165.823L545.672 162.651Z" fill="#929292"/>
<path d="M505.827 162.651L508.997 159.479L512.167 162.651L508.997 165.823L505.827 162.651Z" fill="#929292"/>
<path d="M465.983 162.651L469.152 159.479L472.322 162.651L469.152 165.823L465.983 162.651Z" fill="#929292"/>
<path d="M426.138 162.651L429.307 159.479L432.477 162.651L429.307 165.823L426.138 162.651Z" fill="#929292"/>
<path d="M386.293 162.651L389.463 159.479L392.633 162.651L389.463 165.823L386.293 162.651Z" fill="#929292"/>
<path d="M346.448 162.651L349.618 159.479L352.788 162.651L349.618 165.823L346.448 162.651Z" fill="#929292"/>
<path d="M306.603 162.651L309.773 159.479L312.943 162.651L309.773 165.823L306.603 162.651Z" fill="#929292"/>
<path d="M266.759 162.651L269.928 159.479L273.098 162.651L269.928 165.823L266.759 162.651Z" fill="#929292"/>
<path d="M226.914 162.651L230.083 159.479L233.253 162.651L230.083 165.823L226.914 162.651Z" fill="#929292"/>
<path d="M187.069 162.651L190.238 159.479L193.408 162.651L190.238 165.823L187.069 162.651Z" fill="#929292"/>
<path d="M147.224 162.651L150.394 159.479L153.563 162.651L150.394 165.823L147.224 162.651Z" fill="#929292"/>
<path d="M107.379 162.651L110.549 159.479L113.718 162.651L110.549 165.823L107.379 162.651Z" fill="#929292"/>
<path d="M67.5345 162.651L70.7042 159.479L73.8738 162.651L70.7042 165.823L67.5345 162.651Z" fill="#929292"/>
<path d="M27.6896 162.651L30.8591 159.479L34.0288 162.651L30.8591 165.823L27.6896 162.651Z" fill="#929292"/>
<path d="M-12.155 162.651L-8.98535 159.479L-5.8158 162.651L-8.98535 165.823L-12.155 162.651Z" fill="#929292"/>
<path d="M-52 162.651L-48.8303 159.479L-45.6608 162.651L-48.8303 165.823L-52 162.651Z" fill="#929292"/>
<path d="M665.207 202.521L668.377 199.349L671.546 202.521L668.377 205.693L665.207 202.521Z" fill="#929292"/>
<path d="M625.362 202.521L628.532 199.349L631.701 202.521L628.532 205.693L625.362 202.521Z" fill="#929292"/>
<path d="M585.517 202.521L588.687 199.349L591.857 202.521L588.687 205.693L585.517 202.521Z" fill="#929292"/>
<path d="M545.672 202.521L548.842 199.349L552.012 202.521L548.842 205.693L545.672 202.521Z" fill="#929292"/>
<path d="M505.827 202.521L508.997 199.349L512.167 202.521L508.997 205.693L505.827 202.521Z" fill="#929292"/>
<path d="M465.983 202.521L469.152 199.349L472.322 202.521L469.152 205.693L465.983 202.521Z" fill="#929292"/>
<path d="M426.138 202.521L429.307 199.349L432.477 202.521L429.307 205.693L426.138 202.521Z" fill="#929292"/>
<path d="M386.293 202.521L389.463 199.349L392.633 202.521L389.463 205.693L386.293 202.521Z" fill="#929292"/>
<path d="M346.448 202.521L349.618 199.349L352.788 202.521L349.618 205.693L346.448 202.521Z" fill="#929292"/>
<path d="M306.603 202.521L309.773 199.349L312.943 202.521L309.773 205.693L306.603 202.521Z" fill="#929292"/>
<path d="M266.759 202.521L269.928 199.349L273.098 202.521L269.928 205.693L266.759 202.521Z" fill="#929292"/>
<path d="M226.914 202.521L230.083 199.349L233.253 202.521L230.083 205.693L226.914 202.521Z" fill="#929292"/>
<path d="M187.069 202.521L190.238 199.349L193.408 202.521L190.238 205.693L187.069 202.521Z" fill="#929292"/>
<path d="M147.224 202.521L150.394 199.349L153.563 202.521L150.394 205.693L147.224 202.521Z" fill="#929292"/>
<path d="M107.379 202.521L110.549 199.349L113.718 202.521L110.549 205.693L107.379 202.521Z" fill="#929292"/>
<path d="M67.5345 202.521L70.7042 199.349L73.8738 202.521L70.7042 205.693L67.5345 202.521Z" fill="#929292"/>
<path d="M27.6896 202.521L30.8591 199.349L34.0288 202.521L30.8591 205.693L27.6896 202.521Z" fill="#929292"/>
<path d="M-12.155 202.521L-8.98535 199.349L-5.8158 202.521L-8.98535 205.693L-12.155 202.521Z" fill="#929292"/>
<path d="M-52 202.521L-48.8303 199.349L-45.6608 202.521L-48.8303 205.693L-52 202.521Z" fill="#929292"/>
<path d="M665.207 242.391L668.377 239.219L671.546 242.391L668.377 245.562L665.207 242.391Z" fill="#929292"/>
<path d="M625.362 242.391L628.532 239.219L631.701 242.391L628.532 245.562L625.362 242.391Z" fill="#929292"/>
<path d="M585.517 242.391L588.687 239.219L591.857 242.391L588.687 245.562L585.517 242.391Z" fill="#929292"/>
<path d="M545.672 242.391L548.842 239.219L552.012 242.391L548.842 245.562L545.672 242.391Z" fill="#929292"/>
<path d="M505.827 242.391L508.997 239.219L512.167 242.391L508.997 245.562L505.827 242.391Z" fill="#929292"/>
<path d="M465.983 242.391L469.152 239.219L472.322 242.391L469.152 245.562L465.983 242.391Z" fill="#929292"/>
<path d="M426.138 242.391L429.307 239.219L432.477 242.391L429.307 245.562L426.138 242.391Z" fill="#929292"/>
<path d="M386.293 242.391L389.463 239.219L392.633 242.391L389.463 245.562L386.293 242.391Z" fill="#929292"/>
<path d="M346.448 242.391L349.618 239.219L352.788 242.391L349.618 245.562L346.448 242.391Z" fill="#929292"/>
<path d="M306.603 242.391L309.773 239.219L312.943 242.391L309.773 245.562L306.603 242.391Z" fill="#929292"/>
<path d="M266.759 242.391L269.928 239.219L273.098 242.391L269.928 245.562L266.759 242.391Z" fill="#929292"/>
<path d="M226.914 242.391L230.083 239.219L233.253 242.391L230.083 245.562L226.914 242.391Z" fill="#929292"/>
<path d="M187.069 242.391L190.238 239.219L193.408 242.391L190.238 245.562L187.069 242.391Z" fill="#929292"/>
<path d="M147.224 242.391L150.394 239.219L153.563 242.391L150.394 245.562L147.224 242.391Z" fill="#929292"/>
<path d="M107.379 242.391L110.549 239.219L113.718 242.391L110.549 245.562L107.379 242.391Z" fill="#929292"/>
<path d="M67.5345 242.391L70.7042 239.219L73.8738 242.391L70.7042 245.562L67.5345 242.391Z" fill="#929292"/>
<path d="M27.6896 242.391L30.8591 239.219L34.0288 242.391L30.8591 245.562L27.6896 242.391Z" fill="#929292"/>
<path d="M-12.155 242.391L-8.98535 239.219L-5.8158 242.391L-8.98535 245.562L-12.155 242.391Z" fill="#929292"/>
<path d="M-52 242.391L-48.8303 239.219L-45.6608 242.391L-48.8303 245.562L-52 242.391Z" fill="#929292"/>
<path d="M665.207 282.26L668.377 279.088L671.546 282.26L668.377 285.431L665.207 282.26Z" fill="#929292"/>
<path d="M625.362 282.26L628.532 279.088L631.701 282.26L628.532 285.431L625.362 282.26Z" fill="#929292"/>
<path d="M585.517 282.26L588.687 279.088L591.857 282.26L588.687 285.431L585.517 282.26Z" fill="#929292"/>
<path d="M545.672 282.26L548.842 279.088L552.012 282.26L548.842 285.431L545.672 282.26Z" fill="#929292"/>
<path d="M505.827 282.26L508.997 279.088L512.167 282.26L508.997 285.431L505.827 282.26Z" fill="#929292"/>
<path d="M465.983 282.26L469.152 279.088L472.322 282.26L469.152 285.431L465.983 282.26Z" fill="#929292"/>
<path d="M426.138 282.26L429.307 279.088L432.477 282.26L429.307 285.431L426.138 282.26Z" fill="#929292"/>
<path d="M386.293 282.26L389.463 279.088L392.633 282.26L389.463 285.431L386.293 282.26Z" fill="#929292"/>
<path d="M346.448 282.26L349.618 279.088L352.788 282.26L349.618 285.431L346.448 282.26Z" fill="#929292"/>
<path d="M306.603 282.26L309.773 279.088L312.943 282.26L309.773 285.431L306.603 282.26Z" fill="#929292"/>
<path d="M266.759 282.26L269.928 279.088L273.098 282.26L269.928 285.431L266.759 282.26Z" fill="#929292"/>
<path d="M226.914 282.26L230.083 279.088L233.253 282.26L230.083 285.431L226.914 282.26Z" fill="#929292"/>
<path d="M187.069 282.26L190.238 279.088L193.408 282.26L190.238 285.431L187.069 282.26Z" fill="#929292"/>
<path d="M147.224 282.26L150.394 279.088L153.563 282.26L150.394 285.431L147.224 282.26Z" fill="#929292"/>
<path d="M107.379 282.26L110.549 279.088L113.718 282.26L110.549 285.431L107.379 282.26Z" fill="#929292"/>
<path d="M67.5345 282.26L70.7042 279.088L73.8738 282.26L70.7042 285.431L67.5345 282.26Z" fill="#929292"/>
<path d="M27.6896 282.26L30.8591 279.088L34.0288 282.26L30.8591 285.431L27.6896 282.26Z" fill="#929292"/>
<path d="M-12.155 282.26L-8.98535 279.088L-5.8158 282.26L-8.98535 285.431L-12.155 282.26Z" fill="#929292"/>
<path d="M-52 282.26L-48.8303 279.088L-45.6608 282.26L-48.8303 285.431L-52 282.26Z" fill="#929292"/>
<path d="M665.207 322.13L668.377 318.959L671.546 322.13L668.377 325.302L665.207 322.13Z" fill="#929292"/>
<path d="M625.362 322.13L628.532 318.959L631.701 322.13L628.532 325.302L625.362 322.13Z" fill="#929292"/>
<path d="M585.517 322.13L588.687 318.959L591.857 322.13L588.687 325.302L585.517 322.13Z" fill="#929292"/>
<path d="M545.672 322.13L548.842 318.959L552.012 322.13L548.842 325.302L545.672 322.13Z" fill="#929292"/>
<path d="M505.827 322.13L508.997 318.959L512.167 322.13L508.997 325.302L505.827 322.13Z" fill="#929292"/>
<path d="M465.983 322.13L469.152 318.959L472.322 322.13L469.152 325.302L465.983 322.13Z" fill="#929292"/>
<path d="M426.138 322.13L429.307 318.959L432.477 322.13L429.307 325.302L426.138 322.13Z" fill="#929292"/>
<path d="M386.293 322.13L389.463 318.959L392.633 322.13L389.463 325.302L386.293 322.13Z" fill="#929292"/>
<path d="M346.448 322.13L349.618 318.959L352.788 322.13L349.618 325.302L346.448 322.13Z" fill="#929292"/>
<path d="M306.603 322.13L309.773 318.959L312.943 322.13L309.773 325.302L306.603 322.13Z" fill="#929292"/>
<path d="M266.759 322.13L269.928 318.959L273.098 322.13L269.928 325.302L266.759 322.13Z" fill="#929292"/>
<path d="M226.914 322.13L230.083 318.959L233.253 322.13L230.083 325.302L226.914 322.13Z" fill="#929292"/>
<path d="M187.069 322.13L190.238 318.959L193.408 322.13L190.238 325.302L187.069 322.13Z" fill="#929292"/>
<path d="M147.224 322.13L150.394 318.959L153.563 322.13L150.394 325.302L147.224 322.13Z" fill="#929292"/>
<path d="M107.379 322.13L110.549 318.959L113.718 322.13L110.549 325.302L107.379 322.13Z" fill="#929292"/>
<path d="M67.5345 322.13L70.7042 318.959L73.8738 322.13L70.7042 325.302L67.5345 322.13Z" fill="#929292"/>
<path d="M27.6896 322.13L30.8591 318.959L34.0288 322.13L30.8591 325.302L27.6896 322.13Z" fill="#929292"/>
<path d="M-12.155 322.13L-8.98535 318.959L-5.8158 322.13L-8.98535 325.302L-12.155 322.13Z" fill="#929292"/>
<path d="M-52 322.13L-48.8303 318.959L-45.6608 322.13L-48.8303 325.302L-52 322.13Z" fill="#929292"/>
<path d="M665.207 362L668.377 358.829L671.546 362L668.377 365.172L665.207 362Z" fill="#929292"/>
<path d="M625.362 362L628.532 358.829L631.701 362L628.532 365.172L625.362 362Z" fill="#929292"/>
<path d="M585.517 362L588.687 358.829L591.857 362L588.687 365.172L585.517 362Z" fill="#929292"/>
<path d="M545.672 362L548.842 358.829L552.012 362L548.842 365.172L545.672 362Z" fill="#929292"/>
<path d="M505.827 362L508.997 358.829L512.167 362L508.997 365.172L505.827 362Z" fill="#929292"/>
<path d="M465.983 362L469.152 358.829L472.322 362L469.152 365.172L465.983 362Z" fill="#929292"/>
<path d="M426.138 362L429.307 358.829L432.477 362L429.307 365.172L426.138 362Z" fill="#929292"/>
<path d="M386.293 362L389.463 358.829L392.633 362L389.463 365.172L386.293 362Z" fill="#929292"/>
<path d="M346.448 362L349.618 358.829L352.788 362L349.618 365.172L346.448 362Z" fill="#929292"/>
<path d="M306.603 362L309.773 358.829L312.943 362L309.773 365.172L306.603 362Z" fill="#929292"/>
<path d="M266.759 362L269.928 358.829L273.098 362L269.928 365.172L266.759 362Z" fill="#929292"/>
<path d="M226.914 362L230.083 358.829L233.253 362L230.083 365.172L226.914 362Z" fill="#929292"/>
<path d="M187.069 362L190.238 358.829L193.408 362L190.238 365.172L187.069 362Z" fill="#929292"/>
<path d="M147.224 362L150.394 358.829L153.563 362L150.394 365.172L147.224 362Z" fill="#929292"/>
<path d="M107.379 362L110.549 358.829L113.718 362L110.549 365.172L107.379 362Z" fill="#929292"/>
<path d="M67.5345 362L70.7042 358.829L73.8738 362L70.7042 365.172L67.5345 362Z" fill="#929292"/>
<path d="M27.6896 362L30.8591 358.829L34.0288 362L30.8591 365.172L27.6896 362Z" fill="#929292"/>
<path d="M-12.155 362L-8.98535 358.829L-5.8158 362L-8.98535 365.172L-12.155 362Z" fill="#929292"/>
<path d="M-52 362L-48.8303 358.829L-45.6608 362L-48.8303 365.172L-52 362Z" fill="#929292"/>
<path d="M665.207 401.87L668.377 398.698L671.546 401.87L668.377 405.041L665.207 401.87Z" fill="#929292"/>
<path d="M625.362 401.87L628.532 398.698L631.701 401.87L628.532 405.041L625.362 401.87Z" fill="#929292"/>
<path d="M585.517 401.87L588.687 398.698L591.857 401.87L588.687 405.041L585.517 401.87Z" fill="#929292"/>
<path d="M545.672 401.87L548.842 398.698L552.012 401.87L548.842 405.041L545.672 401.87Z" fill="#929292"/>
<path d="M505.827 401.87L508.997 398.698L512.167 401.87L508.997 405.041L505.827 401.87Z" fill="#929292"/>
<path d="M465.983 401.87L469.152 398.698L472.322 401.87L469.152 405.041L465.983 401.87Z" fill="#929292"/>
<path d="M426.138 401.87L429.307 398.698L432.477 401.87L429.307 405.041L426.138 401.87Z" fill="#929292"/>
<path d="M386.293 401.87L389.463 398.698L392.633 401.87L389.463 405.041L386.293 401.87Z" fill="#929292"/>
<path d="M346.448 401.87L349.618 398.698L352.788 401.87L349.618 405.041L346.448 401.87Z" fill="#929292"/>
<path d="M306.603 401.87L309.773 398.698L312.943 401.87L309.773 405.041L306.603 401.87Z" fill="#929292"/>
<path d="M266.759 401.87L269.928 398.698L273.098 401.87L269.928 405.041L266.759 401.87Z" fill="#929292"/>
<path d="M226.914 401.87L230.083 398.698L233.253 401.87L230.083 405.041L226.914 401.87Z" fill="#929292"/>
<path d="M187.069 401.87L190.238 398.698L193.408 401.87L190.238 405.041L187.069 401.87Z" fill="#929292"/>
<path d="M147.224 401.87L150.394 398.698L153.563 401.87L150.394 405.041L147.224 401.87Z" fill="#929292"/>
<path d="M107.379 401.87L110.549 398.698L113.718 401.87L110.549 405.041L107.379 401.87Z" fill="#929292"/>
<path d="M67.5345 401.87L70.7042 398.698L73.8738 401.87L70.7042 405.041L67.5345 401.87Z" fill="#929292"/>
<path d="M27.6896 401.87L30.8591 398.698L34.0288 401.87L30.8591 405.041L27.6896 401.87Z" fill="#929292"/>
<path d="M-12.155 401.87L-8.98535 398.698L-5.8158 401.87L-8.98535 405.041L-12.155 401.87Z" fill="#929292"/>
<path d="M-52 401.87L-48.8303 398.698L-45.6608 401.87L-48.8303 405.041L-52 401.87Z" fill="#929292"/>
<path d="M665.207 441.739L668.377 438.568L671.546 441.739L668.377 444.911L665.207 441.739Z" fill="#929292"/>
<path d="M625.362 441.739L628.532 438.568L631.701 441.739L628.532 444.911L625.362 441.739Z" fill="#929292"/>
<path d="M585.517 441.739L588.687 438.568L591.857 441.739L588.687 444.911L585.517 441.739Z" fill="#929292"/>
<path d="M545.672 441.739L548.842 438.568L552.012 441.739L548.842 444.911L545.672 441.739Z" fill="#929292"/>
<path d="M505.827 441.739L508.997 438.568L512.167 441.739L508.997 444.911L505.827 441.739Z" fill="#929292"/>
<path d="M465.983 441.739L469.152 438.568L472.322 441.739L469.152 444.911L465.983 441.739Z" fill="#929292"/>
<path d="M426.138 441.739L429.307 438.568L432.477 441.739L429.307 444.911L426.138 441.739Z" fill="#929292"/>
<path d="M386.293 441.739L389.463 438.568L392.633 441.739L389.463 444.911L386.293 441.739Z" fill="#929292"/>
<path d="M346.448 441.739L349.618 438.568L352.788 441.739L349.618 444.911L346.448 441.739Z" fill="#929292"/>
<path d="M306.603 441.739L309.773 438.568L312.943 441.739L309.773 444.911L306.603 441.739Z" fill="#929292"/>
<path d="M266.759 441.739L269.928 438.568L273.098 441.739L269.928 444.911L266.759 441.739Z" fill="#929292"/>
<path d="M226.914 441.739L230.083 438.568L233.253 441.739L230.083 444.911L226.914 441.739Z" fill="#929292"/>
<path d="M187.069 441.739L190.238 438.568L193.408 441.739L190.238 444.911L187.069 441.739Z" fill="#929292"/>
<path d="M147.224 441.739L150.394 438.568L153.563 441.739L150.394 444.911L147.224 441.739Z" fill="#929292"/>
<path d="M107.379 441.739L110.549 438.568L113.718 441.739L110.549 444.911L107.379 441.739Z" fill="#929292"/>
<path d="M67.5345 441.739L70.7042 438.568L73.8738 441.739L70.7042 444.911L67.5345 441.739Z" fill="#929292"/>
<path d="M27.6896 441.739L30.8591 438.568L34.0288 441.739L30.8591 444.911L27.6896 441.739Z" fill="#929292"/>
<path d="M-12.155 441.739L-8.98535 438.568L-5.8158 441.739L-8.98535 444.911L-12.155 441.739Z" fill="#929292"/>
<path d="M-52 441.739L-48.8303 438.568L-45.6608 441.739L-48.8303 444.911L-52 441.739Z" fill="#929292"/>
<path d="M665.207 481.61L668.377 478.438L671.546 481.61L668.377 484.781L665.207 481.61Z" fill="#929292"/>
<path d="M625.362 481.61L628.532 478.438L631.701 481.61L628.532 484.781L625.362 481.61Z" fill="#929292"/>
<path d="M585.517 481.61L588.687 478.438L591.857 481.61L588.687 484.781L585.517 481.61Z" fill="#929292"/>
<path d="M545.672 481.61L548.842 478.438L552.012 481.61L548.842 484.781L545.672 481.61Z" fill="#929292"/>
<path d="M505.827 481.61L508.997 478.438L512.167 481.61L508.997 484.781L505.827 481.61Z" fill="#929292"/>
<path d="M465.983 481.61L469.152 478.438L472.322 481.61L469.152 484.781L465.983 481.61Z" fill="#929292"/>
<path d="M426.138 481.61L429.307 478.438L432.477 481.61L429.307 484.781L426.138 481.61Z" fill="#929292"/>
<path d="M386.293 481.61L389.463 478.438L392.633 481.61L389.463 484.781L386.293 481.61Z" fill="#929292"/>
<path d="M346.448 481.61L349.618 478.438L352.788 481.61L349.618 484.781L346.448 481.61Z" fill="#929292"/>
<path d="M306.603 481.61L309.773 478.438L312.943 481.61L309.773 484.781L306.603 481.61Z" fill="#929292"/>
<path d="M266.759 481.61L269.928 478.438L273.098 481.61L269.928 484.781L266.759 481.61Z" fill="#929292"/>
<path d="M226.914 481.61L230.083 478.438L233.253 481.61L230.083 484.781L226.914 481.61Z" fill="#929292"/>
<path d="M187.069 481.61L190.238 478.438L193.408 481.61L190.238 484.781L187.069 481.61Z" fill="#929292"/>
<path d="M147.224 481.61L150.394 478.438L153.563 481.61L150.394 484.781L147.224 481.61Z" fill="#929292"/>
<path d="M107.379 481.61L110.549 478.438L113.718 481.61L110.549 484.781L107.379 481.61Z" fill="#929292"/>
<path d="M67.5345 481.61L70.7042 478.438L73.8738 481.61L70.7042 484.781L67.5345 481.61Z" fill="#929292"/>
<path d="M27.6896 481.61L30.8591 478.438L34.0288 481.61L30.8591 484.781L27.6896 481.61Z" fill="#929292"/>
<path d="M-12.155 481.61L-8.98535 478.438L-5.8158 481.61L-8.98535 484.781L-12.155 481.61Z" fill="#929292"/>
<path d="M-52 481.61L-48.8303 478.438L-45.6608 481.61L-48.8303 484.781L-52 481.61Z" fill="#929292"/>
<path d="M665.207 521.479L668.377 518.307L671.546 521.479L668.377 524.651L665.207 521.479Z" fill="#929292"/>
<path d="M625.362 521.479L628.532 518.307L631.701 521.479L628.532 524.651L625.362 521.479Z" fill="#929292"/>
<path d="M585.517 521.479L588.687 518.307L591.857 521.479L588.687 524.651L585.517 521.479Z" fill="#929292"/>
<path d="M545.672 521.479L548.842 518.307L552.012 521.479L548.842 524.651L545.672 521.479Z" fill="#929292"/>
<path d="M505.827 521.479L508.997 518.307L512.167 521.479L508.997 524.651L505.827 521.479Z" fill="#929292"/>
<path d="M465.983 521.479L469.152 518.307L472.322 521.479L469.152 524.651L465.983 521.479Z" fill="#929292"/>
<path d="M426.138 521.479L429.307 518.307L432.477 521.479L429.307 524.651L426.138 521.479Z" fill="#929292"/>
<path d="M386.293 521.479L389.463 518.307L392.633 521.479L389.463 524.651L386.293 521.479Z" fill="#929292"/>
<path d="M346.448 521.479L349.618 518.307L352.788 521.479L349.618 524.651L346.448 521.479Z" fill="#929292"/>
<path d="M306.603 521.479L309.773 518.307L312.943 521.479L309.773 524.651L306.603 521.479Z" fill="#929292"/>
<path d="M266.759 521.479L269.928 518.307L273.098 521.479L269.928 524.651L266.759 521.479Z" fill="#929292"/>
<path d="M226.914 521.479L230.083 518.307L233.253 521.479L230.083 524.651L226.914 521.479Z" fill="#929292"/>
<path d="M187.069 521.479L190.238 518.307L193.408 521.479L190.238 524.651L187.069 521.479Z" fill="#929292"/>
<path d="M147.224 521.479L150.394 518.307L153.563 521.479L150.394 524.651L147.224 521.479Z" fill="#929292"/>
<path d="M107.379 521.479L110.549 518.307L113.718 521.479L110.549 524.651L107.379 521.479Z" fill="#929292"/>
<path d="M67.5345 521.479L70.7042 518.307L73.8738 521.479L70.7042 524.651L67.5345 521.479Z" fill="#929292"/>
<path d="M27.6896 521.479L30.8591 518.307L34.0288 521.479L30.8591 524.651L27.6896 521.479Z" fill="#929292"/>
<path d="M-12.155 521.479L-8.98535 518.307L-5.8158 521.479L-8.98535 524.651L-12.155 521.479Z" fill="#929292"/>
<path d="M-52 521.479L-48.8303 518.307L-45.6608 521.479L-48.8303 524.651L-52 521.479Z" fill="#929292"/>
<path d="M665.207 561.349L668.377 558.177L671.546 561.349L668.377 564.52L665.207 561.349Z" fill="#929292"/>
<path d="M625.362 561.349L628.532 558.177L631.701 561.349L628.532 564.52L625.362 561.349Z" fill="#929292"/>
<path d="M585.517 561.349L588.687 558.177L591.857 561.349L588.687 564.52L585.517 561.349Z" fill="#929292"/>
<path d="M545.672 561.349L548.842 558.177L552.012 561.349L548.842 564.52L545.672 561.349Z" fill="#929292"/>
<path d="M505.827 561.349L508.997 558.177L512.167 561.349L508.997 564.52L505.827 561.349Z" fill="#929292"/>
<path d="M465.983 561.349L469.152 558.177L472.322 561.349L469.152 564.52L465.983 561.349Z" fill="#929292"/>
<path d="M426.138 561.349L429.307 558.177L432.477 561.349L429.307 564.52L426.138 561.349Z" fill="#929292"/>
<path d="M386.293 561.349L389.463 558.177L392.633 561.349L389.463 564.52L386.293 561.349Z" fill="#929292"/>
<path d="M346.448 561.349L349.618 558.177L352.788 561.349L349.618 564.52L346.448 561.349Z" fill="#929292"/>
<path d="M306.603 561.349L309.773 558.177L312.943 561.349L309.773 564.52L306.603 561.349Z" fill="#929292"/>
<path d="M266.759 561.349L269.928 558.177L273.098 561.349L269.928 564.52L266.759 561.349Z" fill="#929292"/>
<path d="M226.914 561.349L230.083 558.177L233.253 561.349L230.083 564.52L226.914 561.349Z" fill="#929292"/>
<path d="M187.069 561.349L190.238 558.177L193.408 561.349L190.238 564.52L187.069 561.349Z" fill="#929292"/>
<path d="M147.224 561.349L150.394 558.177L153.563 561.349L150.394 564.52L147.224 561.349Z" fill="#929292"/>
<path d="M107.379 561.349L110.549 558.177L113.718 561.349L110.549 564.52L107.379 561.349Z" fill="#929292"/>
<path d="M67.5345 561.349L70.7042 558.177L73.8738 561.349L70.7042 564.52L67.5345 561.349Z" fill="#929292"/>
<path d="M27.6896 561.349L30.8591 558.177L34.0288 561.349L30.8591 564.52L27.6896 561.349Z" fill="#929292"/>
<path d="M-12.155 561.349L-8.98535 558.177L-5.8158 561.349L-8.98535 564.52L-12.155 561.349Z" fill="#929292"/>
<path d="M-52 561.349L-48.8303 558.177L-45.6608 561.349L-48.8303 564.52L-52 561.349Z" fill="#929292"/>
<path d="M665.207 601.219L668.377 598.047L671.546 601.219L668.377 604.391L665.207 601.219Z" fill="#929292"/>
<path d="M625.362 601.219L628.532 598.047L631.701 601.219L628.532 604.391L625.362 601.219Z" fill="#929292"/>
<path d="M585.517 601.219L588.687 598.047L591.857 601.219L588.687 604.391L585.517 601.219Z" fill="#929292"/>
<path d="M545.672 601.219L548.842 598.047L552.012 601.219L548.842 604.391L545.672 601.219Z" fill="#929292"/>
<path d="M505.827 601.219L508.997 598.047L512.167 601.219L508.997 604.391L505.827 601.219Z" fill="#929292"/>
<path d="M465.983 601.219L469.152 598.047L472.322 601.219L469.152 604.391L465.983 601.219Z" fill="#929292"/>
<path d="M426.138 601.219L429.307 598.047L432.477 601.219L429.307 604.391L426.138 601.219Z" fill="#929292"/>
<path d="M386.293 601.219L389.463 598.047L392.633 601.219L389.463 604.391L386.293 601.219Z" fill="#929292"/>
<path d="M346.448 601.219L349.618 598.047L352.788 601.219L349.618 604.391L346.448 601.219Z" fill="#929292"/>
<path d="M306.603 601.219L309.773 598.047L312.943 601.219L309.773 604.391L306.603 601.219Z" fill="#929292"/>
<path d="M266.759 601.219L269.928 598.047L273.098 601.219L269.928 604.391L266.759 601.219Z" fill="#929292"/>
<path d="M226.914 601.219L230.083 598.047L233.253 601.219L230.083 604.391L226.914 601.219Z" fill="#929292"/>
<path d="M187.069 601.219L190.238 598.047L193.408 601.219L190.238 604.391L187.069 601.219Z" fill="#929292"/>
<path d="M147.224 601.219L150.394 598.047L153.563 601.219L150.394 604.391L147.224 601.219Z" fill="#929292"/>
<path d="M107.379 601.219L110.549 598.047L113.718 601.219L110.549 604.391L107.379 601.219Z" fill="#929292"/>
<path d="M67.5345 601.219L70.7042 598.047L73.8738 601.219L70.7042 604.391L67.5345 601.219Z" fill="#929292"/>
<path d="M27.6896 601.219L30.8591 598.047L34.0288 601.219L30.8591 604.391L27.6896 601.219Z" fill="#929292"/>
<path d="M-12.155 601.219L-8.98535 598.047L-5.8158 601.219L-8.98535 604.391L-12.155 601.219Z" fill="#929292"/>
<path d="M-52 601.219L-48.8303 598.047L-45.6608 601.219L-48.8303 604.391L-52 601.219Z" fill="#929292"/>
<path d="M665.207 641.088L668.377 637.917L671.546 641.088L668.377 644.26L665.207 641.088Z" fill="#929292"/>
<path d="M625.362 641.088L628.532 637.917L631.701 641.088L628.532 644.26L625.362 641.088Z" fill="#929292"/>
<path d="M585.517 641.088L588.687 637.917L591.857 641.088L588.687 644.26L585.517 641.088Z" fill="#929292"/>
<path d="M545.672 641.088L548.842 637.917L552.012 641.088L548.842 644.26L545.672 641.088Z" fill="#929292"/>
<path d="M505.827 641.088L508.997 637.917L512.167 641.088L508.997 644.26L505.827 641.088Z" fill="#929292"/>
<path d="M465.983 641.088L469.152 637.917L472.322 641.088L469.152 644.26L465.983 641.088Z" fill="#929292"/>
<path d="M426.138 641.088L429.307 637.917L432.477 641.088L429.307 644.26L426.138 641.088Z" fill="#929292"/>
<path d="M386.293 641.088L389.463 637.917L392.633 641.088L389.463 644.26L386.293 641.088Z" fill="#929292"/>
<path d="M346.448 641.088L349.618 637.917L352.788 641.088L349.618 644.26L346.448 641.088Z" fill="#929292"/>
<path d="M306.603 641.088L309.773 637.917L312.943 641.088L309.773 644.26L306.603 641.088Z" fill="#929292"/>
<path d="M266.759 641.088L269.928 637.917L273.098 641.088L269.928 644.26L266.759 641.088Z" fill="#929292"/>
<path d="M226.914 641.088L230.083 637.917L233.253 641.088L230.083 644.26L226.914 641.088Z" fill="#929292"/>
<path d="M187.069 641.088L190.238 637.917L193.408 641.088L190.238 644.26L187.069 641.088Z" fill="#929292"/>
<path d="M147.224 641.088L150.394 637.917L153.563 641.088L150.394 644.26L147.224 641.088Z" fill="#929292"/>
<path d="M107.379 641.088L110.549 637.917L113.718 641.088L110.549 644.26L107.379 641.088Z" fill="#929292"/>
<path d="M67.5345 641.088L70.7042 637.917L73.8738 641.088L70.7042 644.26L67.5345 641.088Z" fill="#929292"/>
<path d="M27.6896 641.088L30.8591 637.917L34.0288 641.088L30.8591 644.26L27.6896 641.088Z" fill="#929292"/>
<path d="M-12.155 641.088L-8.98535 637.917L-5.8158 641.088L-8.98535 644.26L-12.155 641.088Z" fill="#929292"/>
<path d="M-52 641.088L-48.8303 637.917L-45.6608 641.088L-48.8303 644.26L-52 641.088Z" fill="#929292"/>
<path d="M665.207 680.958L668.377 677.786L671.546 680.958L668.377 684.13L665.207 680.958Z" fill="#929292"/>
<path d="M625.362 680.958L628.532 677.786L631.701 680.958L628.532 684.13L625.362 680.958Z" fill="#929292"/>
<path d="M585.517 680.958L588.687 677.786L591.857 680.958L588.687 684.13L585.517 680.958Z" fill="#929292"/>
<path d="M545.672 680.958L548.842 677.786L552.012 680.958L548.842 684.13L545.672 680.958Z" fill="#929292"/>
<path d="M505.827 680.958L508.997 677.786L512.167 680.958L508.997 684.13L505.827 680.958Z" fill="#929292"/>
<path d="M465.983 680.958L469.152 677.786L472.322 680.958L469.152 684.13L465.983 680.958Z" fill="#929292"/>
<path d="M426.138 680.958L429.307 677.786L432.477 680.958L429.307 684.13L426.138 680.958Z" fill="#929292"/>
<path d="M386.293 680.958L389.463 677.786L392.633 680.958L389.463 684.13L386.293 680.958Z" fill="#929292"/>
<path d="M346.448 680.958L349.618 677.786L352.788 680.958L349.618 684.13L346.448 680.958Z" fill="#929292"/>
<path d="M306.603 680.958L309.773 677.786L312.943 680.958L309.773 684.13L306.603 680.958Z" fill="#929292"/>
<path d="M266.759 680.958L269.928 677.786L273.098 680.958L269.928 684.13L266.759 680.958Z" fill="#929292"/>
<path d="M226.914 680.958L230.083 677.786L233.253 680.958L230.083 684.13L226.914 680.958Z" fill="#929292"/>
<path d="M187.069 680.958L190.238 677.786L193.408 680.958L190.238 684.13L187.069 680.958Z" fill="#929292"/>
<path d="M147.224 680.958L150.394 677.786L153.563 680.958L150.394 684.13L147.224 680.958Z" fill="#929292"/>
<path d="M107.379 680.958L110.549 677.786L113.718 680.958L110.549 684.13L107.379 680.958Z" fill="#929292"/>
<path d="M67.5345 680.958L70.7042 677.786L73.8738 680.958L70.7042 684.13L67.5345 680.958Z" fill="#929292"/>
<path d="M27.6896 680.958L30.8591 677.786L34.0288 680.958L30.8591 684.13L27.6896 680.958Z" fill="#929292"/>
<path d="M-12.155 680.958L-8.98535 677.786L-5.8158 680.958L-8.98535 684.13L-12.155 680.958Z" fill="#929292"/>
<path d="M-52 680.958L-48.8303 677.786L-45.6608 680.958L-48.8303 684.13L-52 680.958Z" fill="#929292"/>
<path d="M665.207 720.828L668.377 717.657L671.546 720.828L668.377 724L665.207 720.828Z" fill="#929292"/>
<path d="M625.362 720.828L628.532 717.657L631.701 720.828L628.532 724L625.362 720.828Z" fill="#929292"/>
<path d="M585.517 720.828L588.687 717.657L591.857 720.828L588.687 724L585.517 720.828Z" fill="#929292"/>
<path d="M545.672 720.828L548.842 717.657L552.012 720.828L548.842 724L545.672 720.828Z" fill="#929292"/>
<path d="M505.827 720.828L508.997 717.657L512.167 720.828L508.997 724L505.827 720.828Z" fill="#929292"/>
<path d="M465.983 720.828L469.152 717.657L472.322 720.828L469.152 724L465.983 720.828Z" fill="#929292"/>
<path d="M426.138 720.828L429.307 717.657L432.477 720.828L429.307 724L426.138 720.828Z" fill="#929292"/>
<path d="M386.293 720.828L389.463 717.657L392.633 720.828L389.463 724L386.293 720.828Z" fill="#929292"/>
<path d="M346.448 720.828L349.618 717.657L352.788 720.828L349.618 724L346.448 720.828Z" fill="#929292"/>
<path d="M306.603 720.828L309.773 717.657L312.943 720.828L309.773 724L306.603 720.828Z" fill="#929292"/>
<path d="M266.759 720.828L269.928 717.657L273.098 720.828L269.928 724L266.759 720.828Z" fill="#929292"/>
<path d="M226.914 720.828L230.083 717.657L233.253 720.828L230.083 724L226.914 720.828Z" fill="#929292"/>
<path d="M187.069 720.828L190.238 717.657L193.408 720.828L190.238 724L187.069 720.828Z" fill="#929292"/>
<path d="M147.224 720.828L150.394 717.657L153.563 720.828L150.394 724L147.224 720.828Z" fill="#929292"/>
<path d="M107.379 720.828L110.549 717.657L113.718 720.828L110.549 724L107.379 720.828Z" fill="#929292"/>
<path d="M67.5345 720.828L70.7042 717.657L73.8738 720.828L70.7042 724L67.5345 720.828Z" fill="#929292"/>
<path d="M27.6896 720.828L30.8591 717.657L34.0288 720.828L30.8591 724L27.6896 720.828Z" fill="#929292"/>
<path d="M-12.155 720.828L-8.98535 717.657L-5.8158 720.828L-8.98535 724L-12.155 720.828Z" fill="#929292"/>
<path d="M-52 720.828L-48.8303 717.657L-45.6608 720.828L-48.8303 724L-52 720.828Z" fill="#929292"/>
</g>
</svg>
