<svg width="40" height="40" viewBox="0 0 40 40" fill="none" xmlns="http://www.w3.org/2000/svg">
<path d="M3.33331 33.3333V31.6667C3.33331 28.5725 4.56248 25.605 6.7504 23.4171C8.93833 21.2292 11.9058 20 15 20" stroke="white" stroke-width="2.5" stroke-linecap="round" stroke-linejoin="round"/>
<path d="M26.34 20.5216C26.5927 20.2442 26.9006 20.0226 27.2438 19.871C27.587 19.7194 27.9581 19.6411 28.3334 19.6411C28.7086 19.6411 29.0797 19.7194 29.4229 19.871C29.7661 20.0226 30.074 20.2442 30.3267 20.5216C30.8684 21.1166 31.6434 21.4382 32.4467 21.3999C32.8217 21.3823 33.1962 21.4432 33.5463 21.5787C33.8964 21.7142 34.2144 21.9213 34.4798 22.1868C34.7453 22.4522 34.9524 22.7702 35.0879 23.1203C35.2234 23.4704 35.2843 23.8449 35.2667 24.2199C35.2284 25.0216 35.55 25.7982 36.1434 26.3399C37.3184 27.4099 37.3184 29.2566 36.1434 30.3266C35.55 30.8682 35.2284 31.6432 35.2667 32.4466C35.2843 32.8216 35.2234 33.1961 35.0879 33.5462C34.9524 33.8963 34.7453 34.2142 34.4798 34.4797C34.2144 34.7451 33.8964 34.9522 33.5463 35.0877C33.1962 35.2232 32.8217 35.2841 32.4467 35.2666C32.0506 35.2478 31.6553 35.3167 31.2888 35.4682C30.9224 35.6198 30.5939 35.8502 30.3267 36.1432C30.074 36.4206 29.7661 36.6422 29.4229 36.7938C29.0797 36.9454 28.7086 37.0237 28.3334 37.0237C27.9581 37.0237 27.587 36.9454 27.2438 36.7938C26.9006 36.6422 26.5927 36.4206 26.34 36.1432C26.0728 35.8502 25.7443 35.6198 25.3779 35.4682C25.0115 35.3167 24.6161 35.2478 24.22 35.2666C23.845 35.2841 23.4705 35.2232 23.1204 35.0877C22.7703 34.9522 22.4523 34.7451 22.1869 34.4797C21.9214 34.2142 21.7143 33.8963 21.5788 33.5462C21.4433 33.1961 21.3824 32.8216 21.4 32.4466C21.4185 32.0504 21.3494 31.6549 21.1976 31.2885C21.0458 30.922 20.815 30.5936 20.5217 30.3266C20.2443 30.0738 20.0228 29.766 19.8712 29.4228C19.7195 29.0796 19.6412 28.7085 19.6412 28.3332C19.6412 27.958 19.7195 27.5869 19.8712 27.2437C20.0228 26.9004 20.2443 26.5926 20.5217 26.3399C21.1167 25.7982 21.4384 25.0232 21.4 24.2199C21.3824 23.8449 21.4433 23.4704 21.5788 23.1203C21.7143 22.7702 21.9214 22.4522 22.1869 22.1868C22.4523 21.9213 22.7703 21.7142 23.1204 21.5787C23.4705 21.4432 23.845 21.3823 24.22 21.3999C25.0217 21.4382 25.7984 21.1166 26.34 20.5216Z" stroke="white" stroke-width="2.5"/>
<path d="M25.6066 28.3334L27.4233 30.1501L31.06 26.5167M15 20.0001C16.7681 20.0001 18.4638 19.2977 19.714 18.0475C20.9643 16.7972 21.6666 15.1015 21.6666 13.3334C21.6666 11.5653 20.9643 9.86961 19.714 8.61937C18.4638 7.36913 16.7681 6.66675 15 6.66675C13.2319 6.66675 11.5362 7.36913 10.2859 8.61937C9.03569 9.86961 8.33331 11.5653 8.33331 13.3334C8.33331 15.1015 9.03569 16.7972 10.2859 18.0475C11.5362 19.2977 13.2319 20.0001 15 20.0001Z" stroke="white" stroke-width="2.5" stroke-linecap="round" stroke-linejoin="round"/>
</svg>
