<svg width="67" height="68" viewBox="0 0 67 68" fill="none" xmlns="http://www.w3.org/2000/svg">
<rect width="66.1926" height="66.1926" rx="33.0963" transform="matrix(1 0 0.00820296 0.999966 0.0246582 0.918945)" fill="#F5F5F5"/>
<g clip-path="url(#clip0_1018_4833)">
<path d="M40.0991 31.5935H47.1961L47.2308 35.8286H37.8719L37.9032 39.6457H47.2622L47.2969 43.8792H37.9379L38.0162 53.4165H29.4915L29.4132 43.8792H20.1675L20.1328 39.6457H29.3785L29.3472 35.8286H20.1015L20.0667 31.5935H27.1605L17.3037 14.6611H27.0216L31.2729 24.2C32.366 26.5832 33.0383 28.6154 33.8307 30.7018H33.9471C34.7063 28.7366 35.4645 26.4683 36.46 24.141L40.6142 14.6611H50.1519L40.0991 31.5935Z" fill="black"/>
</g>
<defs>
<clipPath id="clip0_1018_4833">
<rect width="38.7567" height="38.7567" fill="white" transform="matrix(1 0 0.00820296 0.999966 14.3487 14.6611)"/>
</clipPath>
</defs>
</svg>
