<svg width="70" height="70" viewBox="0 0 70 70" fill="none" xmlns="http://www.w3.org/2000/svg">
<rect width="68.6064" height="68.6064" rx="34.3032" transform="matrix(1 0 0.0165799 0.999863 0.148376 0.703125)" fill="#F5F5F5"/>
<g clip-path="url(#clip0_1018_4813)">
<path d="M17.1857 30.635H44.8739L43.7683 33.3399H16.0801L17.1857 30.635ZM17.231 36.0448H42.6628L41.5573 38.7497H16.1254L17.231 36.0448ZM46.7687 25.9989C44.9608 23.8728 42.545 22.347 39.8491 21.6286C37.1531 20.9103 34.3076 21.0342 31.6987 21.9834C29.0898 22.9327 26.8438 24.6614 25.2655 26.935C23.6873 29.2086 22.8532 31.9169 22.8764 34.6924C22.8997 37.4679 23.7791 40.1762 25.3955 42.4497C27.0119 44.7233 29.2868 46.452 31.9116 47.4013C34.5365 48.3506 37.384 48.4744 40.068 47.7561C42.7519 47.0377 45.1421 45.5119 46.9144 43.3858L46.9462 47.1846C44.5323 49.1938 41.5783 50.4553 38.4442 50.8153C35.31 51.1753 32.1307 50.6184 29.2936 49.2124C26.4565 47.8064 24.084 45.612 22.4649 42.8963C20.8458 40.1807 20.05 37.061 20.1745 33.9173C20.299 30.7735 21.3383 27.7412 23.166 25.1898C24.9936 22.6383 27.5307 20.6777 30.4683 19.5468C33.4058 18.4159 36.6171 18.1634 39.711 18.8201C42.805 19.4768 45.648 21.0143 47.8941 23.2455L46.7687 25.9989Z" fill="black"/>
</g>
<defs>
<clipPath id="clip0_1018_4813">
<rect width="31.9572" height="32.4645" fill="white" transform="matrix(1 0 0.00837636 0.999829 15.9555 18.4629)"/>
</clipPath>
</defs>
</svg>
