<svg width="74" height="73" viewBox="0 0 74 73" fill="none" xmlns="http://www.w3.org/2000/svg">
<rect width="71.7943" height="71.7943" rx="35.8972" transform="matrix(1 0 0.00820296 0.999966 0.66687 0.802734)" fill="#F5F5F5"/>
<path d="M47.1335 19.8639C46.2227 19.2359 44.9723 19.4407 44.3359 20.3244L36.6539 30.9767L28.7972 20.3244C28.1464 19.4426 26.8896 19.2369 25.9931 19.8639C25.0946 20.492 24.8938 21.7148 25.5436 22.5966L33.2958 33.1078H28.3809C27.2725 33.1078 26.38 33.9857 26.3889 35.0673C26.3978 36.149 27.3046 37.0269 28.4131 37.0269H34.7457L34.8734 52.5948C34.8823 53.6765 35.7891 54.5544 36.8976 54.5544C38.007 54.5544 38.8985 53.6765 38.8896 52.5948L38.7619 37.0269H44.9921C46.1005 37.0269 46.993 36.149 46.9841 35.0673C46.9752 33.9857 46.0684 33.1078 44.9599 33.1078H40.0461L47.6258 22.5966C48.2622 21.7157 48.0413 20.492 47.1335 19.8639Z" fill="black"/>
</svg>
