<svg width="81" height="80" viewBox="0 0 81 80" fill="none" xmlns="http://www.w3.org/2000/svg">
<rect width="78.824" height="78.824" rx="39.412" transform="matrix(1 0 0.0165799 0.999863 0.838745 0.594727)" fill="#F5F5F5"/>
<g clip-path="url(#clip0_1018_4795)">
<path d="M51.3999 30.8656C50.9259 29.5816 50.0808 28.4623 48.9732 27.6519C47.8656 26.8415 46.5462 26.3771 45.1848 26.3184H36.089C34.2797 26.3184 32.5565 27.037 31.2984 28.3162C30.0402 29.5953 29.3503 31.3303 29.3803 33.1393C29.4103 34.9483 30.1578 36.6832 31.4583 37.9624C32.7589 39.2415 34.5059 39.9602 36.3152 39.9602H45.411C47.2203 39.9602 48.9674 40.6788 50.2679 41.958C51.5685 43.2371 52.316 44.9721 52.346 46.7811C52.376 48.5901 51.686 50.325 50.4279 51.6042C49.1697 52.8834 47.4465 53.602 45.6372 53.602H36.5414C35.18 53.5433 33.8606 53.0788 32.753 52.2684C31.6454 51.458 30.8003 50.3388 30.3264 49.0547" stroke="black" stroke-width="4.2447" stroke-linecap="round" stroke-linejoin="round"/>
<path d="M40.5238 19.4971L40.6369 26.318M41.0894 53.6016L41.2025 60.4225" stroke="black" stroke-width="4.2447" stroke-linecap="round" stroke-linejoin="round"/>
</g>
<defs>
<clipPath id="clip0_1018_4795">
<rect width="54.5748" height="54.5748" fill="white" transform="matrix(1 0 0.0165799 0.999863 13.1229 12.6768)"/>
</clipPath>
</defs>
</svg>
