<svg width="46" height="45" viewBox="0 0 46 45" fill="none" xmlns="http://www.w3.org/2000/svg">
<g clip-path="url(#clip0_204_4273)">
<path d="M31.875 38.4375H13.125C7.5 38.4375 3.75 35.625 3.75 29.0625V15.9375C3.75 9.375 7.5 6.5625 13.125 6.5625H31.875C37.5 6.5625 41.25 9.375 41.25 15.9375V29.0625C41.25 35.625 37.5 38.4375 31.875 38.4375Z" stroke="white" stroke-width="2.5" stroke-miterlimit="10" stroke-linecap="round" stroke-linejoin="round"/>
<path d="M22.5 28.125C25.6066 28.125 28.125 25.6066 28.125 22.5C28.125 19.3934 25.6066 16.875 22.5 16.875C19.3934 16.875 16.875 19.3934 16.875 22.5C16.875 25.6066 19.3934 28.125 22.5 28.125Z" stroke="white" stroke-width="2.5" stroke-miterlimit="10" stroke-linecap="round" stroke-linejoin="round"/>
<path d="M10.3125 17.8125V27.1875" stroke="white" stroke-width="2.5" stroke-miterlimit="10" stroke-linecap="round" stroke-linejoin="round"/>
<path d="M34.6875 17.8125V27.1875" stroke="white" stroke-width="2.5" stroke-miterlimit="10" stroke-linecap="round" stroke-linejoin="round"/>
</g>
<defs>
<clipPath id="clip0_204_4273">
<rect x="0.5" width="45" height="45" rx="10" fill="white"/>
</clipPath>
</defs>
</svg>
