<svg width="75" height="75" viewBox="0 0 75 75" fill="none" xmlns="http://www.w3.org/2000/svg">
<rect x="0.555656" y="0.555664" width="73.8889" height="73.8889" rx="10.8889" fill="#F0F0F0"/>
<path d="M45.6042 28.6663C44.1976 27.0586 42.4156 25.971 40.4814 25.5401C38.5472 25.1092 36.5471 25.354 34.7317 26.244C32.9163 27.134 31.3666 28.6294 30.2768 30.5428C29.187 32.4562 28.6056 34.7024 28.6056 36.9997C28.6056 39.297 29.187 41.5432 30.2768 43.4566C31.3666 45.37 32.9163 46.8654 34.7317 47.7553C36.5471 48.6453 38.5472 48.8902 40.4814 48.4593C42.4156 48.0283 44.1976 46.9408 45.6042 45.333" stroke="black" stroke-width="2.5" stroke-linecap="round" stroke-linejoin="round"/>
<path d="M38.6042 33.667H25.2708M25.2708 40.3337H38.6042" stroke="black" stroke-width="2.5" stroke-linecap="round" stroke-linejoin="round"/>
</svg>
