<svg width="20" height="20" viewBox="0 0 20 20" fill="none" xmlns="http://www.w3.org/2000/svg">
<g clip-path="url(#clip0_545_805)">
<path d="M6.66675 5.83333V4.16667C6.66675 3.72464 6.84234 3.30072 7.1549 2.98816C7.46746 2.67559 7.89139 2.5 8.33341 2.5H11.6667C12.1088 2.5 12.5327 2.67559 12.8453 2.98816C13.1578 3.30072 13.3334 3.72464 13.3334 4.16667V5.83333" stroke="black" stroke-width="1.5" stroke-linecap="round" stroke-linejoin="round"/>
<path d="M10 10V10.0083" stroke="black" stroke-width="1.5" stroke-linecap="round" stroke-linejoin="round"/>
<path d="M2.5 7.50065C2.5 7.05862 2.67559 6.6347 2.98816 6.32214C3.30072 6.00958 3.72464 5.83398 4.16667 5.83398H15.8333C16.2754 5.83398 16.6993 6.00958 17.0118 6.32214C17.3244 6.6347 17.5 7.05862 17.5 7.50065V15.0007C17.5 15.4427 17.3244 15.8666 17.0118 16.1792C16.6993 16.4917 16.2754 16.6673 15.8333 16.6673H4.16667C3.72464 16.6673 3.30072 16.4917 2.98816 16.1792C2.67559 15.8666 2.5 15.4427 2.5 15.0007V7.50065Z" stroke="#0085FE" stroke-width="1.5" stroke-linecap="round" stroke-linejoin="round"/>
<path d="M2.5 10.834C4.82632 12.0062 7.39502 12.6168 10 12.6168C12.605 12.6168 15.1737 12.0062 17.5 10.834" stroke="#0085FE" stroke-width="1.5" stroke-linecap="round" stroke-linejoin="round"/>
</g>
<defs>
<clipPath id="clip0_545_805">
<rect width="20" height="20" fill="white"/>
</clipPath>
</defs>
</svg>
