<svg width="34" height="34" viewBox="0 0 34 34" fill="none" xmlns="http://www.w3.org/2000/svg">
<g clip-path="url(#clip0_539_1364)">
<path d="M4.25 12.7493C4.25 11.9979 4.54851 11.2772 5.07986 10.7459C5.61122 10.2145 6.33189 9.91602 7.08333 9.91602H26.9167C27.6681 9.91602 28.3888 10.2145 28.9201 10.7459C29.4515 11.2772 29.75 11.9979 29.75 12.7493V25.4993C29.75 26.2508 29.4515 26.9715 28.9201 27.5028C28.3888 28.0342 27.6681 28.3327 26.9167 28.3327H7.08333C6.33189 28.3327 5.61122 28.0342 5.07986 27.5028C4.54851 26.9715 4.25 26.2508 4.25 25.4993V12.7493Z" stroke="black" stroke-width="2" stroke-linecap="round" stroke-linejoin="round"/>
<path d="M11.333 9.91667V7.08333C11.333 6.33189 11.6315 5.61122 12.1629 5.07986C12.6942 4.54851 13.4149 4.25 14.1663 4.25H19.833C20.5845 4.25 21.3051 4.54851 21.8365 5.07986C22.3678 5.61122 22.6663 6.33189 22.6663 7.08333V9.91667" stroke="black" stroke-width="2" stroke-linecap="round" stroke-linejoin="round"/>
<path d="M17 17V17.0142" stroke="black" stroke-width="2" stroke-linecap="round" stroke-linejoin="round"/>
<path d="M4.25 18.416C8.20474 20.4088 12.5715 21.4469 17 21.4469C21.4285 21.4469 25.7953 20.4088 29.75 18.416" stroke="black" stroke-width="2" stroke-linecap="round" stroke-linejoin="round"/>
</g>
<defs>
<clipPath id="clip0_539_1364">
<rect width="34" height="34" fill="white"/>
</clipPath>
</defs>
</svg>
