<svg width="38" height="38" viewBox="0 0 38 38" fill="none" xmlns="http://www.w3.org/2000/svg">
<path d="M38 19.1161C38 8.55857 29.4934 0 19 0C8.50658 0 0 8.55857 0 19.1161C0 28.6574 6.94799 36.5659 16.0313 38V24.6419H11.207V19.1161H16.0313V14.9046C16.0313 10.1136 18.8679 7.46723 23.2078 7.46723C25.286 7.46723 27.4609 7.84059 27.4609 7.84059V12.545H25.0652C22.705 12.545 21.9688 14.0186 21.9688 15.5318V19.1161H27.2383L26.3959 24.6419H21.9688V38C31.052 36.5659 38 28.6574 38 19.1161Z" fill="url(#paint0_linear_576_1242)"/>
<defs>
<linearGradient id="paint0_linear_576_1242" x1="19" y1="0" x2="19" y2="38" gradientUnits="userSpaceOnUse">
<stop stop-color="white"/>
<stop offset="1" stop-color="white" stop-opacity="0"/>
</linearGradient>
</defs>
</svg>
