<svg width="129" height="32" viewBox="0 0 129 32" fill="none" xmlns="http://www.w3.org/2000/svg">
<path d="M41.7895 16.354C42.9335 16.354 43.7568 16.081 44.2595 15.535C44.7621 14.989 45.0135 14.2263 45.0135 13.247C45.0135 12.8137 44.9485 12.4193 44.8185 12.064C44.6885 11.7087 44.4891 11.4053 44.2205 11.154C43.9605 10.894 43.6268 10.6947 43.2195 10.556C42.8208 10.4173 42.3441 10.348 41.7895 10.348H39.5015V16.354H41.7895ZM41.7895 7.059C43.1241 7.059 44.2681 7.21933 45.2215 7.54C46.1835 7.852 46.9721 8.28533 47.5875 8.84C48.2115 9.39467 48.6708 10.049 48.9655 10.803C49.2601 11.557 49.4075 12.3717 49.4075 13.247C49.4075 14.1917 49.2558 15.0583 48.9525 15.847C48.6491 16.6357 48.1855 17.3117 47.5615 17.875C46.9375 18.4383 46.1445 18.8803 45.1825 19.201C44.2291 19.513 43.0981 19.669 41.7895 19.669H39.5015V26H35.1075V7.059H41.7895Z" fill="white"/>
<path d="M55.1987 6.539V26H51.1687V6.539H55.1987Z" fill="white"/>
<path d="M70.0127 12.519V26H67.5167C67.014 26 66.6847 25.7747 66.5287 25.324L66.2947 24.544C66.0347 24.7953 65.766 25.025 65.4887 25.233C65.2113 25.4323 64.9123 25.6057 64.5917 25.753C64.2797 25.8917 63.9373 26 63.5647 26.078C63.2007 26.1647 62.802 26.208 62.3687 26.208C61.632 26.208 60.9777 26.0823 60.4057 25.831C59.8423 25.571 59.3657 25.2113 58.9757 24.752C58.5857 24.2927 58.291 23.751 58.0917 23.127C57.8923 22.503 57.7927 21.8183 57.7927 21.073V12.519H61.8227V21.073C61.8227 21.7403 61.9743 22.256 62.2777 22.62C62.581 22.984 63.0273 23.166 63.6167 23.166C64.0587 23.166 64.4703 23.075 64.8517 22.893C65.2417 22.7023 65.6187 22.4467 65.9827 22.126V12.519H70.0127Z" fill="white"/>
<path d="M81.3178 15.47C81.2138 15.6347 81.1011 15.7517 80.9798 15.821C80.8671 15.8903 80.7198 15.925 80.5378 15.925C80.3471 15.925 80.1564 15.886 79.9658 15.808C79.7751 15.7213 79.5671 15.6303 79.3418 15.535C79.1251 15.4397 78.8781 15.353 78.6008 15.275C78.3235 15.1883 78.0071 15.145 77.6518 15.145C77.1404 15.145 76.7461 15.2447 76.4688 15.444C76.2001 15.6347 76.0658 15.9033 76.0658 16.25C76.0658 16.5013 76.1524 16.7093 76.3258 16.874C76.5078 17.0387 76.7461 17.186 77.0408 17.316C77.3354 17.4373 77.6691 17.5543 78.0418 17.667C78.4144 17.7797 78.7958 17.9053 79.1858 18.044C79.5758 18.1827 79.9571 18.3473 80.3298 18.538C80.7024 18.72 81.0361 18.9497 81.3308 19.227C81.6254 19.4957 81.8594 19.825 82.0328 20.215C82.2148 20.605 82.3058 21.073 82.3058 21.619C82.3058 22.2863 82.1844 22.9017 81.9418 23.465C81.6991 24.0283 81.3351 24.5137 80.8498 24.921C80.3731 25.3283 79.7794 25.6447 79.0688 25.87C78.3668 26.0953 77.5564 26.208 76.6378 26.208C76.1784 26.208 75.7191 26.1647 75.2598 26.078C74.8004 25.9913 74.3541 25.8743 73.9208 25.727C73.4961 25.5797 73.1018 25.4063 72.7378 25.207C72.3738 24.999 72.0618 24.778 71.8018 24.544L72.7378 23.062C72.8418 22.8887 72.9718 22.7543 73.1278 22.659C73.2924 22.555 73.5005 22.503 73.7518 22.503C73.9858 22.503 74.1938 22.555 74.3758 22.659C74.5664 22.763 74.7701 22.8757 74.9868 22.997C75.2035 23.1183 75.4548 23.231 75.7408 23.335C76.0355 23.439 76.4038 23.491 76.8458 23.491C77.1578 23.491 77.4221 23.4607 77.6388 23.4C77.8554 23.3307 78.0288 23.2397 78.1588 23.127C78.2888 23.0143 78.3841 22.8887 78.4448 22.75C78.5054 22.6113 78.5358 22.4683 78.5358 22.321C78.5358 22.0523 78.4448 21.8313 78.2628 21.658C78.0808 21.4847 77.8424 21.3373 77.5478 21.216C77.2531 21.086 76.9151 20.969 76.5338 20.865C76.1611 20.7523 75.7798 20.6267 75.3898 20.488C74.9998 20.3493 74.6141 20.1847 74.2328 19.994C73.8601 19.7947 73.5264 19.5477 73.2318 19.253C72.9371 18.9497 72.6988 18.5813 72.5168 18.148C72.3348 17.7147 72.2438 17.1903 72.2438 16.575C72.2438 16.003 72.3521 15.4613 72.5688 14.95C72.7941 14.43 73.1278 13.975 73.5698 13.585C74.0118 13.195 74.5664 12.8873 75.2338 12.662C75.9011 12.428 76.6811 12.311 77.5738 12.311C78.0591 12.311 78.5271 12.3543 78.9778 12.441C79.4371 12.5277 79.8661 12.649 80.2648 12.805C80.6635 12.961 81.0274 13.1473 81.3568 13.364C81.6861 13.572 81.9764 13.8017 82.2278 14.053L81.3178 15.47Z" fill="white"/>
<path d="M84.1079 12.467C84.2466 11.5223 84.5109 10.699 84.9009 9.997C85.2996 9.295 85.7892 8.71 86.3699 8.242C86.9592 7.774 87.6309 7.42733 88.3849 7.202C89.1389 6.968 89.9492 6.851 90.8159 6.851C91.7519 6.851 92.5839 6.98533 93.3119 7.254C94.0399 7.514 94.6552 7.86933 95.1579 8.32C95.6606 8.77067 96.0419 9.295 96.3019 9.893C96.5619 10.4823 96.6919 11.1063 96.6919 11.765C96.6919 12.363 96.6312 12.8917 96.5099 13.351C96.3886 13.8017 96.2066 14.196 95.9639 14.534C95.7299 14.8633 95.4352 15.145 95.0799 15.379C94.7332 15.6043 94.3346 15.795 93.8839 15.951C95.9812 16.6877 97.0299 18.1177 97.0299 20.241C97.0299 21.2463 96.8479 22.1217 96.4839 22.867C96.1199 23.6123 95.6302 24.232 95.0149 24.726C94.4082 25.22 93.7019 25.5927 92.8959 25.844C92.0899 26.0867 91.2492 26.208 90.3739 26.208C89.4726 26.208 88.6709 26.1127 87.9689 25.922C87.2669 25.7227 86.6429 25.4193 86.0969 25.012C85.5509 24.596 85.0699 24.0673 84.6539 23.426C84.2466 22.7847 83.8912 22.022 83.5879 21.138L85.3819 20.41C85.8499 20.228 86.2832 20.1803 86.6819 20.267C87.0806 20.3537 87.3666 20.553 87.5399 20.865C87.9299 21.5843 88.3416 22.1087 88.7749 22.438C89.2169 22.7587 89.7326 22.919 90.3219 22.919C90.7726 22.919 91.1626 22.8453 91.4919 22.698C91.8299 22.542 92.1072 22.347 92.3239 22.113C92.5492 21.8703 92.7182 21.5973 92.8309 21.294C92.9436 20.9907 92.9999 20.683 92.9999 20.371C92.9999 19.9637 92.9696 19.5997 92.9089 19.279C92.8569 18.9497 92.7009 18.668 92.4409 18.434C92.1809 18.2 91.7866 18.0223 91.2579 17.901C90.7379 17.771 90.0099 17.706 89.0739 17.706V14.924C89.8626 14.924 90.4996 14.8633 90.9849 14.742C91.4702 14.6207 91.8429 14.456 92.1029 14.248C92.3716 14.0313 92.5492 13.7713 92.6359 13.468C92.7226 13.1647 92.7659 12.831 92.7659 12.467C92.7659 11.7217 92.5839 11.1497 92.2199 10.751C91.8646 10.3437 91.3186 10.14 90.5819 10.14C89.9839 10.14 89.4769 10.3003 89.0609 10.621C88.6536 10.933 88.3719 11.323 88.2159 11.791C88.0339 12.2677 87.7956 12.584 87.5009 12.74C87.2062 12.896 86.7859 12.9307 86.2399 12.844L84.1079 12.467Z" fill="white"/>
<path d="M105.548 23.023C105.964 23.023 106.349 22.945 106.705 22.789C107.069 22.633 107.381 22.4207 107.641 22.152C107.901 21.8747 108.104 21.554 108.252 21.19C108.408 20.8173 108.486 20.4143 108.486 19.981C108.486 19.4957 108.412 19.0623 108.265 18.681C108.126 18.2997 107.927 17.979 107.667 17.719C107.407 17.459 107.09 17.2597 106.718 17.121C106.354 16.9823 105.946 16.913 105.496 16.913C105.088 16.913 104.716 16.9867 104.378 17.134C104.04 17.2727 103.745 17.4763 103.494 17.745C103.251 18.0137 103.06 18.3343 102.922 18.707C102.783 19.0797 102.714 19.5 102.714 19.968C102.714 20.436 102.77 20.8563 102.883 21.229C102.995 21.6017 103.169 21.9223 103.403 22.191C103.637 22.4597 103.931 22.6677 104.287 22.815C104.642 22.9537 105.062 23.023 105.548 23.023ZM104.898 14.339C105.504 14.1137 106.18 14.001 106.926 14.001C107.61 14.001 108.286 14.1137 108.954 14.339C109.621 14.5643 110.219 14.911 110.748 15.379C111.276 15.847 111.701 16.4407 112.022 17.16C112.351 17.8707 112.516 18.7113 112.516 19.682C112.516 20.566 112.351 21.4067 112.022 22.204C111.692 22.9927 111.224 23.686 110.618 24.284C110.02 24.8733 109.296 25.3413 108.447 25.688C107.597 26.0347 106.657 26.208 105.626 26.208C104.568 26.208 103.619 26.0433 102.779 25.714C101.938 25.376 101.223 24.908 100.634 24.31C100.053 23.712 99.6065 22.997 99.2945 22.165C98.9912 21.333 98.8395 20.4187 98.8395 19.422C98.8395 17.5587 99.5589 15.665 100.998 13.741L105.262 7.982C105.461 7.73067 105.747 7.514 106.12 7.332C106.501 7.15 106.934 7.059 107.42 7.059H111.008L105.392 13.767L104.898 14.339Z" fill="white"/>
<path d="M118.575 13.728C118.93 13.6587 119.273 13.611 119.602 13.585C119.931 13.559 120.252 13.546 120.564 13.546C121.561 13.546 122.44 13.6977 123.203 14.001C123.966 14.3043 124.607 14.7203 125.127 15.249C125.647 15.769 126.037 16.3843 126.297 17.095C126.566 17.797 126.7 18.551 126.7 19.357C126.7 20.371 126.518 21.2983 126.154 22.139C125.799 22.971 125.3 23.6903 124.659 24.297C124.018 24.9037 123.251 25.376 122.358 25.714C121.474 26.0433 120.503 26.208 119.446 26.208C118.831 26.208 118.241 26.143 117.678 26.013C117.123 25.883 116.599 25.7097 116.105 25.493C115.62 25.2677 115.169 25.012 114.753 24.726C114.337 24.4313 113.96 24.1193 113.622 23.79L114.87 22.126C115 21.9527 115.152 21.8227 115.325 21.736C115.498 21.6407 115.685 21.593 115.884 21.593C116.144 21.593 116.387 21.6667 116.612 21.814C116.846 21.9527 117.097 22.1087 117.366 22.282C117.643 22.4467 117.964 22.5983 118.328 22.737C118.692 22.8757 119.143 22.945 119.68 22.945C120.217 22.945 120.677 22.8583 121.058 22.685C121.439 22.503 121.747 22.2603 121.981 21.957C122.224 21.645 122.397 21.2853 122.501 20.878C122.614 20.462 122.67 20.02 122.67 19.552C122.67 18.6333 122.41 17.9357 121.89 17.459C121.37 16.9737 120.633 16.731 119.68 16.731C118.831 16.731 117.999 16.8913 117.184 17.212L114.688 16.536L116.3 7.059H125.998V8.723C125.998 9.00033 125.955 9.25167 125.868 9.477C125.781 9.70233 125.643 9.90167 125.452 10.075C125.27 10.2397 125.027 10.3697 124.724 10.465C124.421 10.5517 124.057 10.595 123.632 10.595H119.108L118.575 13.728Z" fill="white"/>
<path d="M20.0269 32H10.3708V20.1428H23.3436C23.5915 20.1499 23.8383 20.1086 24.0695 20.0214C24.3006 19.9342 24.5114 19.8028 24.6894 19.635C24.8673 19.4673 25.0087 19.2665 25.1053 19.0447C25.2019 18.8228 25.2517 18.5844 25.2517 18.3435C25.2517 18.1026 25.2019 17.8642 25.1053 17.6424C25.0087 17.4205 24.8673 17.2198 24.6894 17.052C24.5114 16.8842 24.3006 16.7528 24.0695 16.6656C23.8383 16.5784 23.5915 16.5371 23.3436 16.5443H18.5326V18.3695H15.5733V13.6715H23.3436C24.6195 13.6715 25.8432 14.1638 26.7455 15.0401C27.6477 15.9164 28.1546 17.105 28.1546 18.3443C28.1546 19.5836 27.6477 20.7722 26.7455 21.6485C25.8432 22.5248 24.6195 23.0172 23.3436 23.0172H13.3302V29.1256H17.0659V24.8093H20.0269V32Z" fill="#0085FE"/>
<path d="M13.3187 18.3285H4.81098C3.53503 18.3285 2.31134 17.8362 1.4091 16.9599C0.506869 16.0836 0 14.895 0 13.6557C0 12.4164 0.506869 11.2278 1.4091 10.3515C2.31134 9.47516 3.53503 8.98284 4.81098 8.98284H17.0447V2.87281H13.309V7.19069H10.3464V0H20.0024V11.8556H4.81098C4.31946 11.8556 3.84808 12.0453 3.50053 12.3829C3.15298 12.7204 2.95773 13.1783 2.95773 13.6557C2.95773 14.1331 3.15298 14.5909 3.50053 14.9285C3.84808 15.2661 4.31946 15.4557 4.81098 15.4557H10.361V13.6304H13.3187V18.3285Z" fill="#0085FE"/>
</svg>
