<svg width="966" height="1074" viewBox="0 0 966 1074" fill="none" xmlns="http://www.w3.org/2000/svg">
<circle cx="533.698" cy="532.536" r="290.686" fill="black" stroke="url(#paint0_linear_204_3504)" stroke-width="2.03"/>
<circle cx="533.698" cy="532.536" r="223.666" fill="black" stroke="url(#paint1_linear_204_3504)" stroke-width="2.03"/>
<g filter="url(#filter0_f_204_3504)">
<circle cx="536.994" cy="536.931" r="180.734" fill="#454545"/>
</g>
<g style="mix-blend-mode:hard-light" filter="url(#filter1_f_204_3504)">
<circle cx="247.622" cy="541.623" r="45.4916" fill="#128DFF" fill-opacity="0.206"/>
</g>
<g style="mix-blend-mode:hard-light" filter="url(#filter2_f_204_3504)">
<circle cx="247.622" cy="541.622" r="36.883" stroke="#0094FF" stroke-width="2.05344"/>
</g>
<g style="mix-blend-mode:hard-light" filter="url(#filter3_f_204_3504)">
<circle cx="247.622" cy="541.622" r="36.567" stroke="#0094FF" stroke-width="2.68527"/>
</g>
<g style="mix-blend-mode:hard-light" filter="url(#filter4_ddi_204_3504)">
<circle cx="247.622" cy="541.622" r="36.883" stroke="#00B3FF" stroke-opacity="0.2" stroke-width="2.05344"/>
</g>
<g filter="url(#filter5_f_204_3504)">
<circle cx="247.622" cy="541.622" r="37.2778" stroke="#82D9FF" stroke-width="1.26366"/>
</g>
<g filter="url(#filter6_f_204_3504)">
<circle cx="247.622" cy="541.623" r="32.494" fill="black"/>
</g>
<g clip-path="url(#clip0_204_3504)">
<path d="M231.06 550.027C231.156 549.872 231.309 549.861 231.524 549.997C236.372 552.811 241.649 554.219 247.351 554.219C251.153 554.219 254.908 553.508 258.613 552.092L259.033 551.905C259.217 551.825 259.345 551.772 259.424 551.732C259.725 551.615 259.944 551.671 260.124 551.905C260.284 552.137 260.244 552.353 259.964 552.545C259.623 552.799 259.164 553.092 258.623 553.417C256.964 554.408 255.103 555.172 253.043 555.719C248.218 557.022 243.103 556.753 238.441 554.949C235.78 553.906 233.327 552.393 231.201 550.483C231.068 550.384 231 550.283 231 550.189C231 550.127 231.028 550.069 231.068 550.016L231.06 550.027ZM239.813 541.736C239.813 540.396 240.143 539.252 240.804 538.3C241.464 537.353 242.364 536.633 243.524 536.147C244.585 535.7 245.865 535.38 247.407 535.187C247.927 535.125 248.784 535.049 249.967 534.955V534.461C249.967 533.221 249.827 532.384 249.567 531.961C249.164 531.388 248.527 531.095 247.647 531.095H247.404C246.764 531.156 246.209 531.356 245.743 531.708C245.276 532.068 244.976 532.548 244.843 533.169C244.763 533.569 244.568 533.789 244.263 533.849L240.903 533.429C240.572 533.349 240.407 533.189 240.407 532.909C240.407 532.848 240.416 532.789 240.436 532.709C240.765 530.989 241.576 529.709 242.863 528.869C244.164 528.048 245.663 527.569 247.383 527.469H248.103C250.303 527.469 252.045 528.048 253.287 529.189C253.467 529.389 253.647 529.589 253.827 529.829C253.987 530.049 254.125 530.248 254.204 530.429C254.304 530.608 254.404 530.869 254.464 531.189C254.544 531.528 254.604 531.749 254.644 531.869C254.684 532.008 254.727 532.269 254.745 532.689C254.759 533.107 254.772 533.347 254.772 533.427V540.467C254.772 540.968 254.852 541.427 254.992 541.848C255.132 542.265 255.272 542.568 255.412 542.747L256.092 543.645C256.212 543.827 256.273 543.987 256.273 544.125C256.273 544.285 256.193 544.427 256.033 544.544C254.433 545.944 253.553 546.704 253.416 546.824C253.196 547.004 252.916 547.024 252.576 546.884C252.329 546.678 252.095 546.457 251.875 546.223L251.461 545.76C251.315 545.577 251.174 545.39 251.039 545.2L250.639 544.62C249.559 545.801 248.501 546.54 247.439 546.84C246.78 547.04 245.981 547.143 244.999 547.143C243.519 547.143 242.279 546.685 241.319 545.764C240.359 544.844 239.879 543.544 239.879 541.844L239.812 541.743L239.813 541.736ZM244.817 541.152C244.817 541.907 245.004 542.512 245.384 542.971C245.764 543.424 246.284 543.653 246.924 543.653C246.984 543.653 247.065 543.644 247.184 543.627C247.304 543.605 247.363 543.596 247.405 543.596C248.224 543.383 248.845 542.859 249.304 542.025C249.524 541.652 249.684 541.252 249.784 540.812C249.904 540.385 249.944 540.025 249.964 539.745C249.984 539.485 249.984 539.025 249.984 538.405V537.685C248.864 537.685 248.005 537.765 247.424 537.925C245.724 538.405 244.864 539.485 244.864 541.165L244.817 541.139V541.152ZM257.033 550.521C257.073 550.441 257.133 550.375 257.209 550.295C257.692 549.971 258.161 549.748 258.609 549.628C259.313 549.449 260.033 549.342 260.759 549.308C260.945 549.292 261.132 549.308 261.305 549.348C262.172 549.428 262.705 549.572 262.868 549.788C262.952 549.908 263 550.092 263 550.308V550.508C263 551.188 262.801 551.988 262.435 552.908C262.064 553.828 261.549 554.572 260.893 555.148C260.796 555.228 260.707 555.268 260.631 555.268C260.591 555.268 260.551 555.268 260.511 555.252C260.391 555.193 260.368 555.092 260.425 554.932C261.145 553.252 261.5 552.075 261.5 551.412C261.5 551.212 261.46 551.052 261.384 550.953C261.191 550.732 260.651 550.611 259.752 550.611C259.428 550.611 259.041 550.632 258.592 550.672C258.108 550.732 257.659 550.792 257.259 550.852C257.139 550.852 257.061 550.833 257.019 550.793C256.979 550.753 256.971 550.731 256.992 550.691C256.992 550.668 257 550.651 257.019 550.607V550.527L257.033 550.521Z" fill="white"/>
</g>
<g style="mix-blend-mode:hard-light" filter="url(#filter7_f_204_3504)">
<circle cx="821.083" cy="507.083" r="30.9166" fill="#128DFF" fill-opacity="0.206"/>
</g>
<g style="mix-blend-mode:hard-light" filter="url(#filter8_f_204_3504)">
<circle cx="821.083" cy="507.083" r="25.0661" stroke="#0094FF" stroke-width="1.39554"/>
</g>
<g style="mix-blend-mode:hard-light" filter="url(#filter9_f_204_3504)">
<circle cx="821.083" cy="507.083" r="24.8514" stroke="#0094FF" stroke-width="1.82494"/>
</g>
<g style="mix-blend-mode:hard-light" filter="url(#filter10_ddi_204_3504)">
<circle cx="821.083" cy="507.083" r="25.0661" stroke="#00B3FF" stroke-opacity="0.2" stroke-width="1.39554"/>
</g>
<g filter="url(#filter11_f_204_3504)">
<circle cx="821.083" cy="507.083" r="25.3345" stroke="#82D9FF" stroke-width="0.858795"/>
</g>
<g filter="url(#filter12_f_204_3504)">
<circle cx="821.083" cy="507.083" r="22.0833" fill="black"/>
</g>
<g clip-path="url(#clip1_204_3504)">
<path d="M811 497V506.507H820.507V497H811ZM821.495 497V506.507H831V497H821.495ZM811 507.495V517H820.507V507.495H811ZM821.495 507.495V517H831V507.495H821.495Z" fill="white"/>
</g>
<g style="mix-blend-mode:hard-light" filter="url(#filter13_f_204_3504)">
<circle cx="498.572" cy="313.573" r="26.9416" fill="#128DFF" fill-opacity="0.206"/>
</g>
<g style="mix-blend-mode:hard-light" filter="url(#filter14_f_204_3504)">
<circle cx="498.572" cy="313.572" r="21.8433" stroke="#0094FF" stroke-width="1.21612"/>
</g>
<g style="mix-blend-mode:hard-light" filter="url(#filter15_f_204_3504)">
<circle cx="498.572" cy="313.572" r="21.6562" stroke="#0094FF" stroke-width="1.5903"/>
</g>
<g style="mix-blend-mode:hard-light" filter="url(#filter16_ddi_204_3504)">
<circle cx="498.572" cy="313.572" r="21.8433" stroke="#00B3FF" stroke-opacity="0.2" stroke-width="1.21612"/>
</g>
<g filter="url(#filter17_f_204_3504)">
<circle cx="498.572" cy="313.572" r="22.0772" stroke="#82D9FF" stroke-width="0.748379"/>
</g>
<g filter="url(#filter18_f_204_3504)">
<circle cx="498.573" cy="313.573" r="19.244" fill="black"/>
</g>
<g clip-path="url(#clip2_204_3504)">
<path d="M499 309.022L500.856 306.752C500.856 306.752 504.04 306.819 507.209 308.293C506.398 309.519 504.786 310.121 504.786 310.121C504.677 309.042 503.921 308.779 501.521 308.779L499 323L496.464 308.775C494.079 308.775 493.323 309.041 493.213 310.12C493.213 310.12 491.603 309.523 490.791 308.297C493.96 306.823 497.144 306.755 497.144 306.755L499 309.022L498.997 309.023H499V309.022ZM499 306.097C501.561 306.075 504.494 306.493 507.496 307.807C507.897 307.081 508 306.761 508 306.761C504.719 305.459 501.646 305.011 499 305C496.354 305.011 493.281 305.458 490 306.762C490 306.762 490.146 307.155 490.504 307.809C493.505 306.492 496.439 306.076 499 306.095V306.097Z" fill="white"/>
</g>
<g style="mix-blend-mode:hard-light" filter="url(#filter19_f_204_3504)">
<circle cx="449.563" cy="256.563" r="23.4083" fill="#128DFF" fill-opacity="0.206"/>
</g>
<g style="mix-blend-mode:hard-light" filter="url(#filter20_f_204_3504)">
<circle cx="449.563" cy="256.563" r="18.9786" stroke="#0094FF" stroke-width="1.05662"/>
</g>
<g style="mix-blend-mode:hard-light" filter="url(#filter21_f_204_3504)">
<circle cx="449.563" cy="256.563" r="18.816" stroke="#0094FF" stroke-width="1.38174"/>
</g>
<g style="mix-blend-mode:hard-light" filter="url(#filter22_ddi_204_3504)">
<circle cx="449.563" cy="256.563" r="18.9786" stroke="#00B3FF" stroke-opacity="0.2" stroke-width="1.05662"/>
</g>
<g filter="url(#filter23_f_204_3504)">
<circle cx="449.563" cy="256.563" r="19.1818" stroke="#82D9FF" stroke-width="0.650231"/>
</g>
<g filter="url(#filter24_f_204_3504)">
<circle cx="449.563" cy="256.563" r="16.7202" fill="black"/>
</g>
<g clip-path="url(#clip3_204_3504)">
<path d="M446.61 250.687C445.298 250.687 444.155 251.54 443.363 252.762C442.469 254.139 442 255.922 442 257.633C442 258.103 442.047 258.545 442.14 258.948C442.186 259.143 442.245 259.334 442.317 259.521C442.385 259.697 442.468 259.866 442.564 260.029C443.028 260.801 443.776 261.313 444.959 261.313C445.957 261.313 446.715 260.866 447.603 259.684C448.109 259.009 448.365 258.6 449.378 256.804L449.882 255.911L450.006 255.695C450.047 255.761 450.087 255.825 450.128 255.895L451.563 258.291C452.045 259.098 452.673 259.995 453.209 260.501C453.907 261.159 454.537 261.314 455.249 261.314C455.966 261.314 456.5 261.077 456.886 260.752C457.101 260.568 457.284 260.349 457.426 260.103C457.787 259.477 458 258.685 458 257.607C458 255.793 457.546 254.035 456.611 252.64C455.756 251.365 454.639 250.687 453.467 250.687C452.769 250.687 452.075 250.998 451.431 251.559C450.997 251.939 450.593 252.419 450.218 252.925C449.758 252.342 449.328 251.894 448.913 251.555C448.125 250.911 447.369 250.686 446.61 250.686V250.687ZM453.383 252.055C454.148 252.055 454.842 252.561 455.378 253.388C456.133 254.553 456.476 256.185 456.476 257.655C456.476 258.687 456.231 259.588 455.25 259.588C454.863 259.588 454.565 259.435 454.141 258.919C453.81 258.518 453.245 257.667 452.253 256.013L451.841 255.328C451.574 254.881 451.295 254.441 451.005 254.008C451.051 253.935 451.099 253.859 451.145 253.79C451.892 252.679 452.557 252.055 453.383 252.055ZM446.583 252.424C447.426 252.424 447.955 252.951 448.366 253.388C448.571 253.606 448.857 253.969 449.189 254.441L448.509 255.485C448.004 256.26 447.254 257.496 446.617 258.377C445.823 259.476 445.411 259.588 444.96 259.588C444.611 259.588 444.268 259.43 444.038 259.059C443.863 258.775 443.729 258.305 443.729 257.695C443.729 256.214 444.149 254.671 444.835 253.636C445.138 253.178 445.478 252.819 445.857 252.614C446.079 252.491 446.329 252.425 446.583 252.424Z" fill="white"/>
</g>
<g style="mix-blend-mode:hard-light" filter="url(#filter25_f_204_3504)">
<circle cx="737.573" cy="629.573" r="26.9416" fill="#128DFF" fill-opacity="0.206"/>
</g>
<g style="mix-blend-mode:hard-light" filter="url(#filter26_f_204_3504)">
<circle cx="737.572" cy="629.572" r="21.8433" stroke="#0094FF" stroke-width="1.21612"/>
</g>
<g style="mix-blend-mode:hard-light" filter="url(#filter27_f_204_3504)">
<circle cx="737.572" cy="629.572" r="21.6562" stroke="#0094FF" stroke-width="1.5903"/>
</g>
<g style="mix-blend-mode:hard-light" filter="url(#filter28_ddi_204_3504)">
<circle cx="737.572" cy="629.572" r="21.8433" stroke="#00B3FF" stroke-opacity="0.2" stroke-width="1.21612"/>
</g>
<g filter="url(#filter29_f_204_3504)">
<circle cx="737.572" cy="629.572" r="22.0772" stroke="#82D9FF" stroke-width="0.748379"/>
</g>
<g filter="url(#filter30_f_204_3504)">
<circle cx="737.573" cy="629.573" r="19.244" fill="black"/>
</g>
<path d="M736.491 634.091L735.422 630.924C735.363 630.702 735.125 630.536 734.887 630.536H726.629C726.391 630.536 726.153 630.702 726.094 630.924L725.025 634.202C724.965 634.369 725.025 634.535 725.084 634.646C725.203 634.758 725.381 634.869 725.559 634.869H735.957C736.254 634.869 736.491 634.646 736.491 634.369C736.551 634.258 736.491 634.202 736.491 634.091Z" fill="white"/>
<path d="M725.025 634.202C724.965 634.369 725.025 634.535 725.084 634.646C725.203 634.758 725.381 634.869 725.559 634.869H735.957C736.254 634.869 736.491 634.646 736.491 634.369C736.491 634.258 736.491 634.202 736.432 634.091L735.363 630.924" fill="white"/>
<path d="M725.025 634.202C724.965 634.369 725.025 634.535 725.084 634.646C725.203 634.758 725.381 634.869 725.559 634.869H735.957C736.254 634.869 736.491 634.646 736.491 634.369C736.491 634.258 736.491 634.202 736.432 634.091" fill="white"/>
<path d="M735.363 630.98C735.303 630.758 735.065 630.591 734.828 630.591H726.629C726.391 630.591 726.153 630.758 726.094 630.98" fill="white"/>
<path d="M749.087 634.091L748.018 630.924C747.958 630.702 747.721 630.536 747.483 630.536H739.284C739.046 630.536 738.809 630.702 738.749 630.924L737.68 634.202C737.62 634.369 737.68 634.535 737.739 634.646C737.858 634.758 738.036 634.869 738.214 634.869H748.612C748.909 634.869 749.146 634.646 749.146 634.369C749.206 634.258 749.146 634.202 749.087 634.091Z" fill="white"/>
<path d="M737.68 634.202C737.62 634.369 737.68 634.535 737.739 634.646C737.858 634.758 738.036 634.869 738.214 634.869H748.612C748.909 634.869 749.146 634.646 749.146 634.369C749.146 634.258 749.146 634.202 749.087 634.091L748.018 630.924" fill="white"/>
<path d="M737.68 634.202C737.62 634.369 737.68 634.535 737.739 634.646C737.858 634.758 738.036 634.869 738.214 634.869H748.612C748.909 634.869 749.146 634.646 749.146 634.369C749.146 634.258 749.146 634.202 749.087 634.091" fill="white"/>
<path d="M748.018 630.98C747.958 630.758 747.721 630.591 747.483 630.591H739.284C739.046 630.591 738.809 630.758 738.749 630.98" fill="white"/>
<path d="M742.789 628.536L741.72 625.369C741.66 625.147 741.423 624.98 741.185 624.98H732.986C732.748 624.98 732.511 625.147 732.451 625.369L731.322 628.647C731.263 628.814 731.322 628.98 731.382 629.091C731.501 629.202 731.679 629.313 731.857 629.313H742.254C742.552 629.313 742.789 629.091 742.789 628.814C742.849 628.702 742.849 628.647 742.789 628.536Z" fill="white"/>
<path d="M731.322 628.647C731.263 628.814 731.322 628.98 731.382 629.091C731.501 629.202 731.679 629.313 731.857 629.313H742.254C742.552 629.313 742.789 629.091 742.789 628.814C742.789 628.702 742.789 628.647 742.73 628.536L741.66 625.369" fill="white"/>
<path d="M731.322 628.647C731.263 628.814 731.322 628.98 731.382 629.091C731.501 629.202 731.679 629.313 731.857 629.313H742.254C742.552 629.313 742.789 629.091 742.789 628.814C742.789 628.702 742.789 628.647 742.73 628.536" fill="white"/>
<path d="M741.72 625.369C741.66 625.147 741.423 624.98 741.185 624.98H732.986C732.748 624.98 732.511 625.147 732.451 625.369" fill="white"/>
<defs>
<filter id="filter0_f_204_3504" x="0.287018" y="0.223602" width="1073.41" height="1073.41" filterUnits="userSpaceOnUse" color-interpolation-filters="sRGB">
<feFlood flood-opacity="0" result="BackgroundImageFix"/>
<feBlend mode="normal" in="SourceGraphic" in2="BackgroundImageFix" result="shape"/>
<feGaussianBlur stdDeviation="177.987" result="effect1_foregroundBlur_204_3504"/>
</filter>
<filter id="filter1_f_204_3504" x="192.369" y="486.369" width="110.507" height="110.507" filterUnits="userSpaceOnUse" color-interpolation-filters="sRGB">
<feFlood flood-opacity="0" result="BackgroundImageFix"/>
<feBlend mode="normal" in="SourceGraphic" in2="BackgroundImageFix" result="shape"/>
<feGaussianBlur stdDeviation="4.88087" result="effect1_foregroundBlur_204_3504"/>
</filter>
<filter id="filter2_f_204_3504" x="199.951" y="493.951" width="95.3428" height="95.3428" filterUnits="userSpaceOnUse" color-interpolation-filters="sRGB">
<feFlood flood-opacity="0" result="BackgroundImageFix"/>
<feBlend mode="normal" in="SourceGraphic" in2="BackgroundImageFix" result="shape"/>
<feGaussianBlur stdDeviation="4.88087" result="effect1_foregroundBlur_204_3504"/>
</filter>
<filter id="filter3_f_204_3504" x="206.458" y="500.459" width="82.3272" height="82.3272" filterUnits="userSpaceOnUse" color-interpolation-filters="sRGB">
<feFlood flood-opacity="0" result="BackgroundImageFix"/>
<feBlend mode="normal" in="SourceGraphic" in2="BackgroundImageFix" result="shape"/>
<feGaussianBlur stdDeviation="1.62696" result="effect1_foregroundBlur_204_3504"/>
</filter>
<filter id="filter4_ddi_204_3504" x="205.482" y="502.736" width="84.2795" height="84.2795" filterUnits="userSpaceOnUse" color-interpolation-filters="sRGB">
<feFlood flood-opacity="0" result="BackgroundImageFix"/>
<feColorMatrix in="SourceAlpha" type="matrix" values="0 0 0 0 0 0 0 0 0 0 0 0 0 0 0 0 0 0 127 0" result="hardAlpha"/>
<feOffset dy="2.05344"/>
<feGaussianBlur stdDeviation="0.789785"/>
<feColorMatrix type="matrix" values="0 0 0 0 0 0 0 0 0 0.051 0 0 0 0 0.082 0 0 0 0.7 0"/>
<feBlend mode="multiply" in2="BackgroundImageFix" result="effect1_dropShadow_204_3504"/>
<feColorMatrix in="SourceAlpha" type="matrix" values="0 0 0 0 0 0 0 0 0 0 0 0 0 0 0 0 0 0 127 0" result="hardAlpha"/>
<feOffset dy="3.25391"/>
<feGaussianBlur stdDeviation="2.11504"/>
<feColorMatrix type="matrix" values="0 0 0 0 0 0 0 0 0 0.4 0 0 0 0 1 0 0 0 1 0"/>
<feBlend mode="color-dodge" in2="effect1_dropShadow_204_3504" result="effect2_dropShadow_204_3504"/>
<feBlend mode="normal" in="SourceGraphic" in2="effect2_dropShadow_204_3504" result="shape"/>
<feColorMatrix in="SourceAlpha" type="matrix" values="0 0 0 0 0 0 0 0 0 0 0 0 0 0 0 0 0 0 127 0" result="hardAlpha"/>
<feOffset dx="-0.205344" dy="0.410688"/>
<feGaussianBlur stdDeviation="0.102672"/>
<feComposite in2="hardAlpha" operator="arithmetic" k2="-1" k3="1"/>
<feColorMatrix type="matrix" values="0 0 0 0 1 0 0 0 0 1 0 0 0 0 1 0 0 0 0.5 0"/>
<feBlend mode="normal" in2="shape" result="effect3_innerShadow_204_3504"/>
</filter>
<filter id="filter5_f_204_3504" x="209.396" y="503.397" width="76.4512" height="76.4512" filterUnits="userSpaceOnUse" color-interpolation-filters="sRGB">
<feFlood flood-opacity="0" result="BackgroundImageFix"/>
<feBlend mode="normal" in="SourceGraphic" in2="BackgroundImageFix" result="shape"/>
<feGaussianBlur stdDeviation="0.157957" result="effect1_foregroundBlur_204_3504"/>
</filter>
<filter id="filter6_f_204_3504" x="214.918" y="508.918" width="65.4093" height="65.4093" filterUnits="userSpaceOnUse" color-interpolation-filters="sRGB">
<feFlood flood-opacity="0" result="BackgroundImageFix"/>
<feBlend mode="normal" in="SourceGraphic" in2="BackgroundImageFix" result="shape"/>
<feGaussianBlur stdDeviation="0.105305" result="effect1_foregroundBlur_204_3504"/>
</filter>
<filter id="filter7_f_204_3504" x="783.532" y="469.533" width="75.1016" height="75.1016" filterUnits="userSpaceOnUse" color-interpolation-filters="sRGB">
<feFlood flood-opacity="0" result="BackgroundImageFix"/>
<feBlend mode="normal" in="SourceGraphic" in2="BackgroundImageFix" result="shape"/>
<feGaussianBlur stdDeviation="3.3171" result="effect1_foregroundBlur_204_3504"/>
</filter>
<filter id="filter8_f_204_3504" x="788.685" y="474.685" width="64.7961" height="64.7962" filterUnits="userSpaceOnUse" color-interpolation-filters="sRGB">
<feFlood flood-opacity="0" result="BackgroundImageFix"/>
<feBlend mode="normal" in="SourceGraphic" in2="BackgroundImageFix" result="shape"/>
<feGaussianBlur stdDeviation="3.3171" result="effect1_foregroundBlur_204_3504"/>
</filter>
<filter id="filter9_f_204_3504" x="793.108" y="479.108" width="55.9505" height="55.9506" filterUnits="userSpaceOnUse" color-interpolation-filters="sRGB">
<feFlood flood-opacity="0" result="BackgroundImageFix"/>
<feBlend mode="normal" in="SourceGraphic" in2="BackgroundImageFix" result="shape"/>
<feGaussianBlur stdDeviation="1.1057" result="effect1_foregroundBlur_204_3504"/>
</filter>
<filter id="filter10_ddi_204_3504" x="792.444" y="480.656" width="57.2773" height="57.2775" filterUnits="userSpaceOnUse" color-interpolation-filters="sRGB">
<feFlood flood-opacity="0" result="BackgroundImageFix"/>
<feColorMatrix in="SourceAlpha" type="matrix" values="0 0 0 0 0 0 0 0 0 0 0 0 0 0 0 0 0 0 127 0" result="hardAlpha"/>
<feOffset dy="1.39554"/>
<feGaussianBlur stdDeviation="0.536747"/>
<feColorMatrix type="matrix" values="0 0 0 0 0 0 0 0 0 0.051 0 0 0 0 0.082 0 0 0 0.7 0"/>
<feBlend mode="multiply" in2="BackgroundImageFix" result="effect1_dropShadow_204_3504"/>
<feColorMatrix in="SourceAlpha" type="matrix" values="0 0 0 0 0 0 0 0 0 0 0 0 0 0 0 0 0 0 127 0" result="hardAlpha"/>
<feOffset dy="2.2114"/>
<feGaussianBlur stdDeviation="1.43741"/>
<feColorMatrix type="matrix" values="0 0 0 0 0 0 0 0 0 0.4 0 0 0 0 1 0 0 0 1 0"/>
<feBlend mode="color-dodge" in2="effect1_dropShadow_204_3504" result="effect2_dropShadow_204_3504"/>
<feBlend mode="normal" in="SourceGraphic" in2="effect2_dropShadow_204_3504" result="shape"/>
<feColorMatrix in="SourceAlpha" type="matrix" values="0 0 0 0 0 0 0 0 0 0 0 0 0 0 0 0 0 0 127 0" result="hardAlpha"/>
<feOffset dx="-0.139554" dy="0.279108"/>
<feGaussianBlur stdDeviation="0.0697771"/>
<feComposite in2="hardAlpha" operator="arithmetic" k2="-1" k3="1"/>
<feColorMatrix type="matrix" values="0 0 0 0 1 0 0 0 0 1 0 0 0 0 1 0 0 0 0.5 0"/>
<feBlend mode="normal" in2="shape" result="effect3_innerShadow_204_3504"/>
</filter>
<filter id="filter11_f_204_3504" x="795.104" y="481.105" width="51.9571" height="51.9572" filterUnits="userSpaceOnUse" color-interpolation-filters="sRGB">
<feFlood flood-opacity="0" result="BackgroundImageFix"/>
<feBlend mode="normal" in="SourceGraphic" in2="BackgroundImageFix" result="shape"/>
<feGaussianBlur stdDeviation="0.107349" result="effect1_foregroundBlur_204_3504"/>
</filter>
<filter id="filter12_f_204_3504" x="798.857" y="484.857" width="44.4529" height="44.4528" filterUnits="userSpaceOnUse" color-interpolation-filters="sRGB">
<feFlood flood-opacity="0" result="BackgroundImageFix"/>
<feBlend mode="normal" in="SourceGraphic" in2="BackgroundImageFix" result="shape"/>
<feGaussianBlur stdDeviation="0.0715663" result="effect1_foregroundBlur_204_3504"/>
</filter>
<filter id="filter13_f_204_3504" x="465.85" y="280.85" width="65.4458" height="65.4458" filterUnits="userSpaceOnUse" color-interpolation-filters="sRGB">
<feFlood flood-opacity="0" result="BackgroundImageFix"/>
<feBlend mode="normal" in="SourceGraphic" in2="BackgroundImageFix" result="shape"/>
<feGaussianBlur stdDeviation="2.89061" result="effect1_foregroundBlur_204_3504"/>
</filter>
<filter id="filter14_f_204_3504" x="470.34" y="285.34" width="56.4652" height="56.4652" filterUnits="userSpaceOnUse" color-interpolation-filters="sRGB">
<feFlood flood-opacity="0" result="BackgroundImageFix"/>
<feBlend mode="normal" in="SourceGraphic" in2="BackgroundImageFix" result="shape"/>
<feGaussianBlur stdDeviation="2.89061" result="effect1_foregroundBlur_204_3504"/>
</filter>
<filter id="filter15_f_204_3504" x="474.194" y="289.194" width="48.7569" height="48.7569" filterUnits="userSpaceOnUse" color-interpolation-filters="sRGB">
<feFlood flood-opacity="0" result="BackgroundImageFix"/>
<feBlend mode="normal" in="SourceGraphic" in2="BackgroundImageFix" result="shape"/>
<feGaussianBlur stdDeviation="0.963538" result="effect1_foregroundBlur_204_3504"/>
</filter>
<filter id="filter16_ddi_204_3504" x="473.616" y="290.543" width="49.9131" height="49.9131" filterUnits="userSpaceOnUse" color-interpolation-filters="sRGB">
<feFlood flood-opacity="0" result="BackgroundImageFix"/>
<feColorMatrix in="SourceAlpha" type="matrix" values="0 0 0 0 0 0 0 0 0 0 0 0 0 0 0 0 0 0 127 0" result="hardAlpha"/>
<feOffset dy="1.21612"/>
<feGaussianBlur stdDeviation="0.467737"/>
<feColorMatrix type="matrix" values="0 0 0 0 0 0 0 0 0 0.051 0 0 0 0 0.082 0 0 0 0.7 0"/>
<feBlend mode="multiply" in2="BackgroundImageFix" result="effect1_dropShadow_204_3504"/>
<feColorMatrix in="SourceAlpha" type="matrix" values="0 0 0 0 0 0 0 0 0 0 0 0 0 0 0 0 0 0 127 0" result="hardAlpha"/>
<feOffset dy="1.92708"/>
<feGaussianBlur stdDeviation="1.2526"/>
<feColorMatrix type="matrix" values="0 0 0 0 0 0 0 0 0 0.4 0 0 0 0 1 0 0 0 1 0"/>
<feBlend mode="color-dodge" in2="effect1_dropShadow_204_3504" result="effect2_dropShadow_204_3504"/>
<feBlend mode="normal" in="SourceGraphic" in2="effect2_dropShadow_204_3504" result="shape"/>
<feColorMatrix in="SourceAlpha" type="matrix" values="0 0 0 0 0 0 0 0 0 0 0 0 0 0 0 0 0 0 127 0" result="hardAlpha"/>
<feOffset dx="-0.121612" dy="0.243223"/>
<feGaussianBlur stdDeviation="0.0608058"/>
<feComposite in2="hardAlpha" operator="arithmetic" k2="-1" k3="1"/>
<feColorMatrix type="matrix" values="0 0 0 0 1 0 0 0 0 1 0 0 0 0 1 0 0 0 0.5 0"/>
<feBlend mode="normal" in2="shape" result="effect3_innerShadow_204_3504"/>
</filter>
<filter id="filter17_f_204_3504" x="475.934" y="290.934" width="45.2769" height="45.2769" filterUnits="userSpaceOnUse" color-interpolation-filters="sRGB">
<feFlood flood-opacity="0" result="BackgroundImageFix"/>
<feBlend mode="normal" in="SourceGraphic" in2="BackgroundImageFix" result="shape"/>
<feGaussianBlur stdDeviation="0.0935473" result="effect1_foregroundBlur_204_3504"/>
</filter>
<filter id="filter18_f_204_3504" x="479.204" y="294.204" width="38.7375" height="38.7375" filterUnits="userSpaceOnUse" color-interpolation-filters="sRGB">
<feFlood flood-opacity="0" result="BackgroundImageFix"/>
<feBlend mode="normal" in="SourceGraphic" in2="BackgroundImageFix" result="shape"/>
<feGaussianBlur stdDeviation="0.0623649" result="effect1_foregroundBlur_204_3504"/>
</filter>
<filter id="filter19_f_204_3504" x="421.132" y="228.132" width="56.8627" height="56.8627" filterUnits="userSpaceOnUse" color-interpolation-filters="sRGB">
<feFlood flood-opacity="0" result="BackgroundImageFix"/>
<feBlend mode="normal" in="SourceGraphic" in2="BackgroundImageFix" result="shape"/>
<feGaussianBlur stdDeviation="2.51152" result="effect1_foregroundBlur_204_3504"/>
</filter>
<filter id="filter20_f_204_3504" x="425.033" y="232.033" width="49.0599" height="49.0599" filterUnits="userSpaceOnUse" color-interpolation-filters="sRGB">
<feFlood flood-opacity="0" result="BackgroundImageFix"/>
<feBlend mode="normal" in="SourceGraphic" in2="BackgroundImageFix" result="shape"/>
<feGaussianBlur stdDeviation="2.51152" result="effect1_foregroundBlur_204_3504"/>
</filter>
<filter id="filter21_f_204_3504" x="428.381" y="235.382" width="42.3625" height="42.3625" filterUnits="userSpaceOnUse" color-interpolation-filters="sRGB">
<feFlood flood-opacity="0" result="BackgroundImageFix"/>
<feBlend mode="normal" in="SourceGraphic" in2="BackgroundImageFix" result="shape"/>
<feGaussianBlur stdDeviation="0.837172" result="effect1_foregroundBlur_204_3504"/>
</filter>
<filter id="filter22_ddi_204_3504" x="427.879" y="236.554" width="43.3671" height="43.3671" filterUnits="userSpaceOnUse" color-interpolation-filters="sRGB">
<feFlood flood-opacity="0" result="BackgroundImageFix"/>
<feColorMatrix in="SourceAlpha" type="matrix" values="0 0 0 0 0 0 0 0 0 0 0 0 0 0 0 0 0 0 127 0" result="hardAlpha"/>
<feOffset dy="1.05662"/>
<feGaussianBlur stdDeviation="0.406394"/>
<feColorMatrix type="matrix" values="0 0 0 0 0 0 0 0 0 0.051 0 0 0 0 0.082 0 0 0 0.7 0"/>
<feBlend mode="multiply" in2="BackgroundImageFix" result="effect1_dropShadow_204_3504"/>
<feColorMatrix in="SourceAlpha" type="matrix" values="0 0 0 0 0 0 0 0 0 0 0 0 0 0 0 0 0 0 127 0" result="hardAlpha"/>
<feOffset dy="1.67434"/>
<feGaussianBlur stdDeviation="1.08832"/>
<feColorMatrix type="matrix" values="0 0 0 0 0 0 0 0 0 0.4 0 0 0 0 1 0 0 0 1 0"/>
<feBlend mode="color-dodge" in2="effect1_dropShadow_204_3504" result="effect2_dropShadow_204_3504"/>
<feBlend mode="normal" in="SourceGraphic" in2="effect2_dropShadow_204_3504" result="shape"/>
<feColorMatrix in="SourceAlpha" type="matrix" values="0 0 0 0 0 0 0 0 0 0 0 0 0 0 0 0 0 0 127 0" result="hardAlpha"/>
<feOffset dx="-0.105662" dy="0.211325"/>
<feGaussianBlur stdDeviation="0.0528312"/>
<feComposite in2="hardAlpha" operator="arithmetic" k2="-1" k3="1"/>
<feColorMatrix type="matrix" values="0 0 0 0 1 0 0 0 0 1 0 0 0 0 1 0 0 0 0.5 0"/>
<feBlend mode="normal" in2="shape" result="effect3_innerShadow_204_3504"/>
</filter>
<filter id="filter23_f_204_3504" x="429.893" y="236.893" width="39.339" height="39.3389" filterUnits="userSpaceOnUse" color-interpolation-filters="sRGB">
<feFlood flood-opacity="0" result="BackgroundImageFix"/>
<feBlend mode="normal" in="SourceGraphic" in2="BackgroundImageFix" result="shape"/>
<feGaussianBlur stdDeviation="0.0812788" result="effect1_foregroundBlur_204_3504"/>
</filter>
<filter id="filter24_f_204_3504" x="432.734" y="239.735" width="33.6572" height="33.6572" filterUnits="userSpaceOnUse" color-interpolation-filters="sRGB">
<feFlood flood-opacity="0" result="BackgroundImageFix"/>
<feBlend mode="normal" in="SourceGraphic" in2="BackgroundImageFix" result="shape"/>
<feGaussianBlur stdDeviation="0.0541859" result="effect1_foregroundBlur_204_3504"/>
</filter>
<filter id="filter25_f_204_3504" x="704.85" y="596.85" width="65.4458" height="65.4458" filterUnits="userSpaceOnUse" color-interpolation-filters="sRGB">
<feFlood flood-opacity="0" result="BackgroundImageFix"/>
<feBlend mode="normal" in="SourceGraphic" in2="BackgroundImageFix" result="shape"/>
<feGaussianBlur stdDeviation="2.89061" result="effect1_foregroundBlur_204_3504"/>
</filter>
<filter id="filter26_f_204_3504" x="709.34" y="601.34" width="56.4652" height="56.4653" filterUnits="userSpaceOnUse" color-interpolation-filters="sRGB">
<feFlood flood-opacity="0" result="BackgroundImageFix"/>
<feBlend mode="normal" in="SourceGraphic" in2="BackgroundImageFix" result="shape"/>
<feGaussianBlur stdDeviation="2.89061" result="effect1_foregroundBlur_204_3504"/>
</filter>
<filter id="filter27_f_204_3504" x="713.194" y="605.194" width="48.7569" height="48.757" filterUnits="userSpaceOnUse" color-interpolation-filters="sRGB">
<feFlood flood-opacity="0" result="BackgroundImageFix"/>
<feBlend mode="normal" in="SourceGraphic" in2="BackgroundImageFix" result="shape"/>
<feGaussianBlur stdDeviation="0.963538" result="effect1_foregroundBlur_204_3504"/>
</filter>
<filter id="filter28_ddi_204_3504" x="712.616" y="606.543" width="49.9131" height="49.9132" filterUnits="userSpaceOnUse" color-interpolation-filters="sRGB">
<feFlood flood-opacity="0" result="BackgroundImageFix"/>
<feColorMatrix in="SourceAlpha" type="matrix" values="0 0 0 0 0 0 0 0 0 0 0 0 0 0 0 0 0 0 127 0" result="hardAlpha"/>
<feOffset dy="1.21612"/>
<feGaussianBlur stdDeviation="0.467737"/>
<feColorMatrix type="matrix" values="0 0 0 0 0 0 0 0 0 0.051 0 0 0 0 0.082 0 0 0 0.7 0"/>
<feBlend mode="multiply" in2="BackgroundImageFix" result="effect1_dropShadow_204_3504"/>
<feColorMatrix in="SourceAlpha" type="matrix" values="0 0 0 0 0 0 0 0 0 0 0 0 0 0 0 0 0 0 127 0" result="hardAlpha"/>
<feOffset dy="1.92708"/>
<feGaussianBlur stdDeviation="1.2526"/>
<feColorMatrix type="matrix" values="0 0 0 0 0 0 0 0 0 0.4 0 0 0 0 1 0 0 0 1 0"/>
<feBlend mode="color-dodge" in2="effect1_dropShadow_204_3504" result="effect2_dropShadow_204_3504"/>
<feBlend mode="normal" in="SourceGraphic" in2="effect2_dropShadow_204_3504" result="shape"/>
<feColorMatrix in="SourceAlpha" type="matrix" values="0 0 0 0 0 0 0 0 0 0 0 0 0 0 0 0 0 0 127 0" result="hardAlpha"/>
<feOffset dx="-0.121612" dy="0.243223"/>
<feGaussianBlur stdDeviation="0.0608058"/>
<feComposite in2="hardAlpha" operator="arithmetic" k2="-1" k3="1"/>
<feColorMatrix type="matrix" values="0 0 0 0 1 0 0 0 0 1 0 0 0 0 1 0 0 0 0.5 0"/>
<feBlend mode="normal" in2="shape" result="effect3_innerShadow_204_3504"/>
</filter>
<filter id="filter29_f_204_3504" x="714.934" y="606.934" width="45.2769" height="45.277" filterUnits="userSpaceOnUse" color-interpolation-filters="sRGB">
<feFlood flood-opacity="0" result="BackgroundImageFix"/>
<feBlend mode="normal" in="SourceGraphic" in2="BackgroundImageFix" result="shape"/>
<feGaussianBlur stdDeviation="0.0935473" result="effect1_foregroundBlur_204_3504"/>
</filter>
<filter id="filter30_f_204_3504" x="718.204" y="610.204" width="38.7375" height="38.7375" filterUnits="userSpaceOnUse" color-interpolation-filters="sRGB">
<feFlood flood-opacity="0" result="BackgroundImageFix"/>
<feBlend mode="normal" in="SourceGraphic" in2="BackgroundImageFix" result="shape"/>
<feGaussianBlur stdDeviation="0.0623649" result="effect1_foregroundBlur_204_3504"/>
</filter>
<linearGradient id="paint0_linear_204_3504" x1="533.698" y1="240.836" x2="533.698" y2="824.237" gradientUnits="userSpaceOnUse">
<stop stop-color="#707070"/>
<stop offset="1" stop-color="#9E9E9E" stop-opacity="0"/>
</linearGradient>
<linearGradient id="paint1_linear_204_3504" x1="533.698" y1="307.855" x2="533.698" y2="757.217" gradientUnits="userSpaceOnUse">
<stop stop-color="#707070"/>
<stop offset="1" stop-color="#9E9E9E" stop-opacity="0"/>
</linearGradient>
<clipPath id="clip0_204_3504">
<rect width="32" height="32" fill="white" transform="translate(231 526)"/>
</clipPath>
<clipPath id="clip1_204_3504">
<rect width="20" height="20" fill="white" transform="translate(811 497)"/>
</clipPath>
<clipPath id="clip2_204_3504">
<rect width="18" height="18" fill="white" transform="translate(490 305)"/>
</clipPath>
<clipPath id="clip3_204_3504">
<rect width="16" height="16" fill="white" transform="translate(442 248)"/>
</clipPath>
</defs>
</svg>
