<svg width="110" height="110" viewBox="0 0 110 110" fill="none" xmlns="http://www.w3.org/2000/svg">
<mask id="path-1-inside-1_435_1578" fill="white">
<path fill-rule="evenodd" clip-rule="evenodd" d="M63.9838 67.6443C63.9838 67.3106 64.1515 67.0006 64.4228 66.8064C68.7336 63.7214 71.5429 58.6724 71.5429 52.9673C71.5429 43.5749 63.9289 35.9609 54.5366 35.9609C45.1443 35.9609 37.5303 43.5749 37.5303 52.9673C37.5303 58.6718 40.339 63.7203 44.6489 66.8054C44.9202 66.9996 45.0879 67.3096 45.0879 67.6433V72.9272C45.0879 77.228 48.5744 80.7146 52.8753 80.7146H56.1964C60.4972 80.7146 63.9838 77.228 63.9838 72.9272V67.6443Z"/>
</mask>
<path d="M44.6489 66.8054L42.9027 69.2448L44.6489 66.8054ZM64.4228 66.8064L66.1688 69.246L64.4228 66.8064ZM68.5429 52.9673C68.5429 57.6637 66.2344 61.8209 62.6769 64.3668L66.1688 69.246C71.2328 65.622 74.5429 59.6812 74.5429 52.9673H68.5429ZM54.5366 38.9609C62.2721 38.9609 68.5429 45.2318 68.5429 52.9673H74.5429C74.5429 41.9181 65.5858 32.9609 54.5366 32.9609V38.9609ZM40.5303 52.9673C40.5303 45.2318 46.8011 38.9609 54.5366 38.9609V32.9609C43.4874 32.9609 34.5303 41.9181 34.5303 52.9673H40.5303ZM46.3951 64.3659C42.8383 61.8199 40.5303 57.6631 40.5303 52.9673H34.5303C34.5303 59.6804 37.8397 65.6206 42.9027 69.2448L46.3951 64.3659ZM48.0879 72.9272V67.6433H42.0879V72.9272H48.0879ZM52.8753 77.7146C50.2313 77.7146 48.0879 75.5712 48.0879 72.9272H42.0879C42.0879 78.8849 46.9176 83.7146 52.8753 83.7146V77.7146ZM56.1964 77.7146H52.8753V83.7146H56.1964V77.7146ZM60.9838 72.9272C60.9838 75.5712 58.8404 77.7146 56.1964 77.7146V83.7146C62.1541 83.7146 66.9838 78.8849 66.9838 72.9272H60.9838ZM60.9838 67.6443V72.9272H66.9838V67.6443H60.9838ZM42.9027 69.2448C42.4293 68.9059 42.0879 68.3281 42.0879 67.6433H48.0879C48.0879 66.291 47.4111 65.0932 46.3951 64.3659L42.9027 69.2448ZM62.6769 64.3668C61.6607 65.094 60.9838 66.292 60.9838 67.6443H66.9838C66.9838 68.3293 66.6423 68.9071 66.1688 69.246L62.6769 64.3668Z" fill="white" mask="url(#path-1-inside-1_435_1578)"/>
<path d="M59.9078 84.8574H49.1338" stroke="white" stroke-width="3" stroke-linecap="round"/>
<path d="M54.9358 30.1588V24.3574" stroke="white" stroke-width="3" stroke-linecap="round"/>
<path d="M31.7291 55.0215H25.9277" stroke="white" stroke-width="3" stroke-linecap="round"/>
<path d="M83.5279 54.6074H77.7265" stroke="white" stroke-width="3" stroke-linecap="round"/>
<path d="M36.6609 36.7467L32.5587 32.6445" stroke="white" stroke-width="3" stroke-linecap="round"/>
<path d="M73.9972 36.7467L78.0994 32.6445" stroke="white" stroke-width="3" stroke-linecap="round"/>
</svg>
