<svg width="130" height="130" viewBox="0 0 130 130" fill="none" xmlns="http://www.w3.org/2000/svg">
<path d="M26.9297 87.9518L32.763 83.1987C39.06 78.0679 46.9335 75.2661 55.0559 75.2661H70.7909C73.5822 75.2661 75.5309 78.0315 74.5921 80.6601C74.0182 82.2666 72.4967 83.3388 70.7909 83.3388H56.337M40.1918 101.214C44.6027 96.4356 50.8096 93.7178 57.3125 93.7178H67.8952C73.3916 93.7178 78.6374 91.4186 82.3622 87.3766L100.592 67.5956C102.169 65.8837 101.814 63.162 99.8505 61.9122C98.3524 60.9591 96.3905 61.1918 95.1573 62.4691L81.1313 76.9961" stroke="#0085FE" stroke-width="3" stroke-linecap="round"/>
<path d="M55.1988 45.5938L55.2937 49.909C55.3143 50.8533 55.7448 51.7417 56.4731 52.3434L59.8011 55.0924C60.1913 55.4148 60.0793 56.0401 59.6014 56.207L55.5267 57.6305C54.6349 57.9422 53.9227 58.626 53.5759 59.5046L51.9899 63.519C51.8037 63.9901 51.1745 64.0767 50.868 63.6737L48.2547 60.2383C47.683 59.4864 46.8125 59.0207 45.8698 58.9619L41.5618 58.6941C41.0564 58.6627 40.7795 58.0912 41.0678 57.6749L43.5277 54.1283C44.0661 53.3522 44.2401 52.38 44.0045 51.4654L42.9279 47.2856C42.8015 46.7952 43.2596 46.3551 43.7445 46.5009L47.878 47.7445C48.7825 48.0165 49.7607 47.8815 50.5578 47.375L54.2004 45.0595C54.6276 44.7878 55.1879 45.0876 55.1988 45.5938Z" stroke="black" stroke-width="3"/>
<path d="M82.8501 39.2579L82.8907 41.112C82.9073 41.8673 83.2518 42.5781 83.8342 43.0594L85.2642 44.2405C86.045 44.8853 85.8211 46.1359 84.8651 46.47L83.1143 47.0816C82.4008 47.3309 81.8312 47.8782 81.5537 48.581L80.8723 50.3058C80.5002 51.2475 79.2416 51.4212 78.6285 50.615L77.5058 49.1389C77.0482 48.5376 76.3517 48.165 75.5977 48.1179L73.7467 48.003C72.7358 47.9401 72.1818 46.7969 72.759 45.9646L73.8159 44.4407C74.2464 43.8199 74.3858 43.0422 74.1973 42.3106L73.7348 40.5145C73.482 39.5338 74.3983 38.6537 75.3681 38.9454L77.1441 39.4797C77.8677 39.6973 78.6501 39.5894 79.2878 39.1841L80.853 38.1893C81.7077 37.6459 82.8277 38.2452 82.8501 39.2579Z" stroke="black" stroke-width="3"/>
</svg>
