<svg width="130" height="130" viewBox="0 0 130 130" fill="none" xmlns="http://www.w3.org/2000/svg">
<path d="M59.1602 64.9993C59.1602 66.2452 59.5296 67.4633 60.222 68.4994C60.9141 69.5352 61.8982 70.3428 63.0492 70.8196C64.2005 71.2965 65.4672 71.4213 66.6892 71.1782C67.9112 70.9351 69.0339 70.335 69.9151 69.4539C70.7959 68.573 71.396 67.4503 71.6391 66.2283C71.8822 65.0063 71.7574 63.7396 71.2806 62.5883C70.8037 61.437 69.9962 60.4532 68.9603 59.7611C67.9242 59.0687 66.7061 58.6992 65.4602 58.6992" stroke="#0085FE" stroke-width="3" stroke-linecap="round"/>
<path d="M45.4131 64.9991C45.4131 68.9646 46.5891 72.841 48.792 76.1383C50.9953 79.4356 54.1267 82.0055 57.7904 83.5228C61.454 85.0404 65.4853 85.4375 69.3747 84.664C73.264 83.8902 76.8364 81.9808 79.6405 79.1767C82.4446 76.3726 84.3541 72.7999 85.1278 68.9106C85.9013 65.0215 85.5043 60.9899 83.9869 57.3263C82.4693 53.6626 79.8995 50.5312 76.6022 48.3282C73.3051 46.1249 69.4285 44.9492 65.463 44.9492" stroke="#0085FE" stroke-width="3" stroke-linecap="round"/>
<path d="M31.6623 64.9993C31.6623 71.6844 33.6448 78.2192 37.3587 83.7775C41.0728 89.3361 46.3515 93.6682 52.5278 96.2263C58.7039 98.7847 65.5 99.454 72.0564 98.1498C78.6131 96.8456 84.6355 93.6266 89.3625 88.8995C94.0896 84.1725 97.3086 78.1498 98.6128 71.5934C99.9172 65.0367 99.2477 58.2408 96.6896 52.0645C94.1312 45.8885 89.7991 40.6097 84.2405 36.8956C78.6822 33.1815 72.1474 31.1992 65.4623 31.1992" stroke="#0085FE" stroke-width="3" stroke-linecap="round"/>
<path d="M55.838 56.7518L33.1504 34.0645" stroke="black" stroke-width="3" stroke-linecap="round"/>
<path d="M56.5271 47.8125V57.1777C56.5271 57.3212 56.4106 57.4377 56.2671 57.4377H46.9021" stroke="black" stroke-width="3" stroke-linecap="round"/>
</svg>
