<svg width="68" height="68" viewBox="0 0 68 68" fill="none" xmlns="http://www.w3.org/2000/svg">
<path d="M34.4532 8.5H33.5465L26.0948 23.375H41.9048L34.4532 8.5ZM46.6365 23.375H61.2565L55.3915 11.645C54.9224 10.7009 54.1992 9.90638 53.3032 9.35079C52.4073 8.7952 51.3741 8.50056 50.3198 8.5H39.1848L46.6365 23.375ZM60.5765 27.625H36.1248V56.95L60.5765 27.625ZM31.8748 56.95V27.625H7.42316L31.8748 56.95ZM21.3632 23.375L28.7865 8.5H17.6798C16.6256 8.50056 15.5924 8.7952 14.6965 9.35079C13.8005 9.90638 13.0773 10.7009 12.6082 11.645L6.74316 23.375H21.3632Z" fill="black"/>
</svg>
