<svg width="271" height="308" viewBox="0 0 271 308" fill="none" xmlns="http://www.w3.org/2000/svg">
<path d="M78.2287 308H171.168V193.874H46.3057C43.9198 193.943 41.544 193.546 39.3191 192.706C37.0942 191.867 35.0653 190.602 33.3527 188.987C31.6401 187.372 30.2786 185.44 29.3489 183.305C28.4192 181.17 27.9401 178.875 27.9401 176.556C27.9401 174.238 28.4192 171.943 29.3489 169.808C30.2786 167.673 31.6401 165.74 33.3527 164.126C35.0653 162.511 37.0942 161.246 39.3191 160.407C41.544 159.567 43.9198 159.17 46.3057 159.239H92.6113V176.807H121.095V131.588H46.3057C34.0246 131.588 22.2466 136.326 13.5626 144.761C4.87862 153.196 9.3728e-06 164.636 9.3728e-06 176.564C9.3728e-06 188.492 4.87862 199.932 13.5626 208.367C22.2466 216.802 34.0246 221.54 46.3057 221.54H142.685V280.334H106.728V238.79H78.2287V308Z" fill="url(#paint0_linear_3_2)"/>
<path d="M142.795 176.412H224.682C236.963 176.412 248.741 171.674 257.425 163.239C266.109 154.804 270.988 143.364 270.988 131.436C270.988 119.508 266.109 108.068 257.425 99.6331C248.741 91.1984 236.963 86.4599 224.682 86.4599H106.933V27.6508H142.889V69.2104H171.404V0H78.4644V114.111H224.682C229.413 114.111 233.95 115.936 237.295 119.185C240.64 122.434 242.52 126.841 242.52 131.436C242.52 136.031 240.64 140.438 237.295 143.687C233.95 146.936 229.413 148.761 224.682 148.761H171.263V131.193H142.795V176.412Z" fill="url(#paint1_linear_3_2)"/>
<defs>
<linearGradient id="paint0_linear_3_2" x1="85.5842" y1="-320.088" x2="85.5842" y2="308" gradientUnits="userSpaceOnUse">
<stop stop-color="white"/>
<stop offset="1" stop-color="white" stop-opacity="0"/>
</linearGradient>
<linearGradient id="paint1_linear_3_2" x1="174.726" y1="-451.676" x2="174.726" y2="176.412" gradientUnits="userSpaceOnUse">
<stop stop-color="white"/>
<stop offset="1" stop-color="white" stop-opacity="0"/>
</linearGradient>
</defs>
</svg>
