<svg width="95" height="95" viewBox="0 0 95 95" fill="none" xmlns="http://www.w3.org/2000/svg">
<rect width="95" height="95" rx="14" fill="#E82127"/>
<g clip-path="url(#clip0_204_4237)">
<path d="M48 38.3835L52.3313 33.088C52.3313 33.088 59.76 33.2455 67.1555 36.6825C65.262 39.5455 61.5013 40.949 61.5013 40.949C61.2458 38.4307 59.4818 37.8165 53.8818 37.8165L48 71L42.0833 37.8095C36.5183 37.8095 34.7543 38.429 34.497 40.9455C34.497 40.9455 30.7415 39.5542 28.8462 36.693C36.24 33.2542 43.6687 33.095 43.6687 33.095L48 38.3835L47.993 38.387H48V38.3835ZM48 31.5603C53.9762 31.5078 60.8205 32.4843 67.824 35.5503C68.7603 33.8563 69 33.109 69 33.109C61.3438 30.071 54.174 29.0262 48 29C41.826 29.0262 34.6562 30.0675 27 33.1108C27 33.1108 27.3413 34.0295 28.176 35.5538C35.1795 32.4807 42.0238 31.5113 48 31.555V31.5603Z" fill="white"/>
</g>
<defs>
<clipPath id="clip0_204_4237">
<rect width="42" height="42" fill="white" transform="translate(27 29)"/>
</clipPath>
</defs>
</svg>
