<svg width="34" height="28" viewBox="0 0 34 28" fill="none" xmlns="http://www.w3.org/2000/svg">
<path d="M10.6961 28C23.5231 28 30.5409 17.2265 30.5409 7.88651C30.5409 7.58364 30.5343 7.27403 30.521 6.97116C31.8862 5.97052 33.0643 4.73109 34 3.3111C32.7286 3.88444 31.3787 4.25888 29.9964 4.42164C31.4518 3.53741 32.5416 2.14832 33.0637 0.511877C31.6944 1.33432 30.1971 1.91448 28.6357 2.22749C27.5837 1.09453 26.1927 0.344386 24.6779 0.0930189C23.163 -0.158348 21.6087 0.103069 20.2551 0.836852C18.9016 1.57063 17.8242 2.73591 17.1896 4.15253C16.555 5.56914 16.3985 7.15818 16.7443 8.67398C13.9719 8.53297 11.2596 7.80301 8.78331 6.53141C6.30704 5.25982 4.12207 3.47499 2.37004 1.29262C1.47957 2.84868 1.20708 4.69001 1.60796 6.44238C2.00884 8.19475 3.05301 9.72667 4.52824 10.7268C3.42072 10.6912 2.33747 10.3889 1.36797 9.84509V9.93259C1.36698 11.5656 1.92397 13.1485 2.94427 14.4123C3.96457 15.6761 5.38521 16.5428 6.96469 16.865C5.93874 17.1495 4.86197 17.191 3.8177 16.9862C4.26339 18.3905 5.13056 19.6188 6.29817 20.4996C7.46579 21.3805 8.87559 21.8698 10.3308 21.8995C7.86027 23.8664 4.80841 24.9332 1.6668 24.9282C1.10966 24.9273 0.553065 24.8927 0 24.8245C3.19155 26.8998 6.90417 28.002 10.6961 28Z" fill="url(#paint0_linear_581_1245)"/>
<defs>
<linearGradient id="paint0_linear_581_1245" x1="17" y1="0" x2="17" y2="28" gradientUnits="userSpaceOnUse">
<stop stop-color="white"/>
<stop offset="1" stop-color="white" stop-opacity="0"/>
</linearGradient>
</defs>
</svg>
