<svg width="95" height="95" viewBox="0 0 95 95" fill="none" xmlns="http://www.w3.org/2000/svg">
<rect width="95" height="95" rx="14" fill="#F1F1F1"/>
<g clip-path="url(#clip0_273_1357)">
<path d="M58.575 38C58.1272 36.7293 57.3093 35.6217 56.2266 34.8197C55.144 34.0177 53.8461 33.5581 52.5 33.5H43.5C41.7098 33.5 39.9929 34.2112 38.727 35.477C37.4612 36.7429 36.75 38.4598 36.75 40.25C36.75 42.0402 37.4612 43.7571 38.727 45.023C39.9929 46.2888 41.7098 47 43.5 47H52.5C54.2902 47 56.0071 47.7112 57.273 48.977C58.5388 50.2429 59.25 51.9598 59.25 53.75C59.25 55.5402 58.5388 57.2571 57.273 58.523C56.0071 59.7888 54.2902 60.5 52.5 60.5H43.5C42.1539 60.4419 40.856 59.9823 39.7734 59.1803C38.6907 58.3783 37.8729 57.2707 37.425 56" stroke="black" stroke-width="5" stroke-linecap="round" stroke-linejoin="round"/>
<path d="M48 26.75V33.5M48 60.5V67.25" stroke="black" stroke-width="5" stroke-linecap="round" stroke-linejoin="round"/>
</g>
<defs>
<clipPath id="clip0_273_1357">
<rect width="54" height="54" fill="white" transform="translate(21 20)"/>
</clipPath>
</defs>
</svg>
