<svg width="99" height="113" viewBox="0 0 99 113" fill="none" xmlns="http://www.w3.org/2000/svg">
<path d="M70.4212 112.608H36.4678V70.9151H82.0836C82.9552 70.9401 83.8231 70.7951 84.636 70.4884C85.4488 70.1817 86.19 69.7197 86.8156 69.1298C87.4413 68.5398 87.9387 67.8339 88.2783 67.0538C88.618 66.2737 88.793 65.4354 88.793 64.5884C88.793 63.7414 88.618 62.9031 88.2783 62.123C87.9387 61.343 87.4413 60.637 86.8156 60.0471C86.19 59.4571 85.4488 58.9951 84.636 58.6884C83.8231 58.3818 82.9552 58.2367 82.0836 58.2617H65.1668V64.6799H54.7609V48.1602H82.0836C86.5702 48.1602 90.873 49.8913 94.0455 52.9727C97.218 56.0541 99.0003 60.2334 99.0003 64.5912C99.0003 68.949 97.218 73.1283 94.0455 76.2097C90.873 79.2911 86.5702 81.0222 82.0836 81.0222H46.8737V102.501H60.0096V87.3239H70.4212V112.608Z" fill="#F2F2F2"/>
<path d="M46.8323 64.5361H16.9167C12.4301 64.5361 8.1273 62.805 4.9548 59.7236C1.78229 56.6422 0 52.4629 0 48.1051C0 43.7473 1.78229 39.568 4.9548 36.4866C8.1273 33.4052 12.4301 31.6741 16.9167 31.6741H59.9339V10.1895H46.798V25.3724H36.3807V0.0878906H70.3341V41.7757H16.9167C15.1884 41.7757 13.5309 42.4425 12.3088 43.6295C11.0868 44.8165 10.4002 46.4264 10.4002 48.1051C10.4002 49.7838 11.0868 51.3937 12.3088 52.5807C13.5309 53.7677 15.1884 54.4345 16.9167 54.4345H36.4321V48.0163H46.8323V64.5361Z" fill="#F2F2F2"/>
</svg>
