<svg width="56" height="56" viewBox="0 0 56 56" fill="none" xmlns="http://www.w3.org/2000/svg">
<path d="M14.667 32.3867V19.6134C14.667 17.84 15.6937 17.4134 16.947 18.6667L20.4003 22.12C20.9203 22.64 21.7737 22.64 22.2803 22.12L27.0537 17.3334C27.5737 16.8134 28.427 16.8134 28.9337 17.3334L33.7203 22.12C34.2403 22.64 35.0937 22.64 35.6003 22.12L39.0537 18.6667C40.307 17.4134 41.3337 17.84 41.3337 19.6134V32.4C41.3337 36.4 38.667 39.0667 34.667 39.0667H21.3337C17.6537 39.0534 14.667 36.0667 14.667 32.3867Z" stroke="#0085FE" stroke-width="2.5" stroke-linecap="round" stroke-linejoin="round"/>
<path d="M25 33H31" stroke="black" stroke-width="2.5" stroke-miterlimit="10" stroke-linecap="round" stroke-linejoin="round"/>
</svg>
