<svg width="57" height="56" viewBox="0 0 57 56" fill="none" xmlns="http://www.w3.org/2000/svg">
<path d="M23.9995 30.25C23.9995 31.7969 25.312 33 26.9995 33H30.187C31.4995 33 32.812 31.9688 32.812 30.5938C32.812 29.0469 32.062 28.5312 31.1245 28.1875L25.8745 26.4687C24.562 26.2969 23.9995 25.7812 23.9995 24.4062C23.9995 23.0312 25.1245 22 26.6245 22H29.9995C31.687 22 32.9995 23.2031 32.9995 24.75" stroke="black" stroke-width="2.5" stroke-linecap="round" stroke-linejoin="round"/>
<path d="M27.9995 20V35" stroke="black" stroke-width="2.5" stroke-linecap="round" stroke-linejoin="round"/>
<path d="M28.3328 41.3327C35.6966 41.3327 41.6662 35.3631 41.6662 27.9993C41.6662 20.6356 35.6966 14.666 28.3328 14.666C20.969 14.666 14.9995 20.6356 14.9995 27.9993C14.9995 35.3631 20.969 41.3327 28.3328 41.3327Z" stroke="#0085FE" stroke-width="2.5" stroke-miterlimit="10" stroke-linecap="round" stroke-linejoin="round"/>
</svg>
