<svg width="56" height="56" viewBox="0 0 56 56" fill="none" xmlns="http://www.w3.org/2000/svg">
<path d="M39.8801 26.8258C39.8801 33.3458 35.1468 39.4524 28.6801 41.2391C28.2401 41.3591 27.7601 41.3591 27.3201 41.2391C20.8534 39.4524 16.1201 33.3458 16.1201 26.8258V20.9724C16.1201 19.8791 16.9468 18.6391 17.9735 18.2257L25.4001 15.1858C27.0668 14.5058 28.9468 14.5058 30.6134 15.1858L38.0401 18.2257C39.0535 18.6391 39.8935 19.8791 39.8935 20.9724L39.8801 26.8258Z" stroke="#0085FE" stroke-width="2.5" stroke-linecap="round" stroke-linejoin="round"/>
<path d="M27.5 30C28.8807 30 30 28.8807 30 27.5C30 26.1193 28.8807 25 27.5 25C26.1193 25 25 26.1193 25 27.5C25 28.8807 26.1193 30 27.5 30Z" stroke="black" stroke-width="1.66667" stroke-linecap="round" stroke-linejoin="round"/>
</svg>
