<svg width="20" height="15" viewBox="0 0 20 15" fill="none" xmlns="http://www.w3.org/2000/svg">
<path d="M19.8008 3.03516C19.8008 3.03516 19.6055 1.65625 19.0039 1.05078C18.2422 0.253906 17.3906 0.25 17 0.203125C14.2031 -1.11759e-07 10.0039 0 10.0039 0H9.99609C9.99609 0 5.79688 -1.11759e-07 3 0.203125C2.60938 0.25 1.75781 0.253906 0.996094 1.05078C0.394531 1.65625 0.203125 3.03516 0.203125 3.03516C0.203125 3.03516 0 4.65625 0 6.27344V7.78906C0 9.40625 0.199219 11.0273 0.199219 11.0273C0.199219 11.0273 0.394531 12.4063 0.992187 13.0117C1.75391 13.8086 2.75391 13.7813 3.19922 13.8672C4.80078 14.0195 10 14.0664 10 14.0664C10 14.0664 14.2031 14.0586 17 13.8594C17.3906 13.8125 18.2422 13.8086 19.0039 13.0117C19.6055 12.4063 19.8008 11.0273 19.8008 11.0273C19.8008 11.0273 20 9.41016 20 7.78906V6.27344C20 4.65625 19.8008 3.03516 19.8008 3.03516ZM7.93359 9.62891V4.00781L13.3359 6.82812L7.93359 9.62891Z" fill="#FF0302"/>
</svg>
