<?xml version="1.0" standalone="no"?>
<!DOCTYPE svg PUBLIC "-//W3C//DTD SVG 20010904//EN"
 "http://www.w3.org/TR/2001/REC-SVG-20010904/DTD/svg10.dtd">
<svg version="1.0" xmlns="http://www.w3.org/2000/svg"
 width="800.000000pt" height="800.000000pt" viewBox="0 0 800.000000 800.000000"
 preserveAspectRatio="xMidYMid meet">
<metadata>
Created by potrace 1.14, written by Peter Selinger 2001-2017
</metadata>
<g transform="translate(0.000000,800.000000) scale(0.100000,-0.100000)"
fill="#000000" stroke="none">
<path d="M2255 7991 c-6 -5 -30 -20 -55 -34 -25 -13 -114 -66 -198 -116 -84
-50 -157 -91 -163 -91 -5 0 -9 -4 -9 -8 0 -5 -15 -16 -32 -25 -34 -17 -62 -33
-210 -122 -46 -27 -99 -58 -118 -68 -19 -11 -42 -25 -51 -33 -8 -8 -19 -14
-22 -14 -4 0 -36 -18 -72 -40 -36 -22 -69 -40 -74 -40 -5 0 -11 -3 -13 -7 -4
-10 -57 -42 -80 -50 -10 -3 -18 -9 -18 -14 0 -5 -4 -9 -9 -9 -5 0 -39 -18 -75
-40 -36 -22 -68 -40 -71 -40 -3 0 -11 -5 -18 -10 -7 -6 -97 -61 -201 -122
-129 -77 -191 -120 -197 -136 -5 -13 -9 -1250 -9 -2943 0 -2674 1 -2922 16
-2944 9 -14 69 -58 133 -97 64 -40 118 -75 121 -78 3 -3 14 -10 25 -17 43 -25
300 -187 305 -192 3 -3 18 -13 33 -21 54 -29 562 -354 565 -362 2 -4 8 -8 14
-8 8 0 296 -179 434 -270 62 -41 87 -44 144 -18 28 13 50 26 50 30 0 5 6 8 14
8 8 0 16 3 18 8 2 4 32 25 68 46 98 60 604 372 695 429 44 27 100 61 125 75
25 14 47 28 50 31 3 4 39 26 80 51 41 24 77 47 78 52 2 4 7 8 12 8 5 0 44 22
87 48 43 27 131 81 196 121 l118 73 85 -51 c47 -28 90 -51 95 -51 5 0 9 -4 9
-10 0 -5 4 -10 9 -10 5 0 52 -26 105 -57 146 -87 159 -95 181 -107 21 -12 520
-308 620 -369 33 -20 80 -48 105 -62 25 -13 97 -56 160 -94 216 -130 327 -191
350 -191 13 0 57 20 99 44 42 24 92 53 111 63 19 11 58 33 85 50 28 16 57 32
65 36 8 4 30 16 48 27 38 23 344 200 412 238 25 14 77 44 115 67 39 22 77 44
85 48 8 4 24 13 35 20 11 7 63 37 115 67 52 30 109 63 125 73 17 10 42 23 58
30 15 6 27 15 27 19 0 4 5 8 10 8 6 0 43 20 83 44 39 24 99 58 132 76 89 48
124 77 132 110 6 23 10 5704 4 5791 -1 9 -9 25 -18 36 -19 21 -140 98 -210
135 -24 12 -43 26 -43 30 0 4 -4 8 -9 8 -7 0 -276 161 -401 240 -45 29 -187
116 -202 125 -10 6 -80 48 -155 95 -76 47 -145 90 -155 95 -9 6 -63 38 -120
73 -57 35 -112 69 -123 75 -11 7 -22 15 -25 18 -3 3 -10 8 -16 10 -5 2 -78 46
-162 97 -94 58 -162 94 -180 94 -30 1 -88 -32 -222 -126 -41 -28 -127 -87
-190 -131 -63 -43 -151 -103 -195 -133 -44 -31 -107 -74 -140 -96 -33 -23 -66
-47 -73 -53 -7 -7 -17 -13 -22 -13 -5 0 -15 -6 -22 -12 -25 -23 -77 -58 -87
-58 -5 0 -11 -4 -13 -9 -1 -5 -46 -37 -98 -72 -52 -35 -97 -66 -100 -69 -5 -5
-172 -119 -199 -135 -9 -5 -18 -12 -21 -15 -23 -23 -122 -81 -132 -77 -7 2
-96 55 -198 117 -102 62 -196 119 -210 127 -14 8 -37 22 -52 31 -41 26 -286
176 -306 187 -9 6 -60 36 -112 68 -52 32 -104 63 -115 70 -11 7 -49 30 -85 53
-36 23 -70 43 -75 45 -6 2 -64 37 -130 77 -66 40 -171 104 -234 143 -63 38
-118 69 -123 69 -4 0 -8 4 -8 9 0 5 -8 11 -17 15 -10 3 -34 15 -53 26 -36 21
-79 26 -95 11z m-52 -1063 c-1 -671 -3 -802 -14 -800 -8 2 -63 34 -124 70
-165 100 -169 102 -187 108 -10 4 -18 10 -18 15 0 5 -4 9 -8 9 -8 0 -165 90
-187 107 -6 4 -26 17 -45 27 -19 11 -53 31 -75 45 -22 14 -42 26 -45 26 -3 0
-23 12 -45 26 -22 14 -74 45 -115 69 -41 25 -77 48 -80 52 -3 4 -14 11 -25 15
-18 7 -187 107 -273 161 -21 13 -45 25 -54 29 -10 3 -18 9 -18 14 0 5 -5 9
-11 9 -6 0 -17 6 -24 14 -11 11 -8 16 23 33 20 11 111 64 202 118 441 262 588
349 617 366 17 10 50 29 72 43 22 15 42 26 44 26 1 0 88 51 192 114 105 62
192 112 194 110 2 -2 4 -365 4 -806z m227 780 c0 -5 5 -8 11 -8 6 0 51 -25
100 -55 49 -30 93 -55 98 -55 5 0 11 -3 13 -7 3 -8 106 -73 115 -73 3 0 19
-10 36 -22 18 -13 44 -30 59 -38 14 -8 119 -71 232 -140 114 -69 221 -134 240
-145 18 -11 92 -55 162 -98 71 -43 138 -84 148 -90 11 -7 45 -28 75 -47 31
-19 58 -35 61 -35 3 0 23 -12 45 -26 22 -14 105 -65 185 -114 80 -48 157 -95
172 -104 14 -9 57 -34 95 -55 37 -22 70 -43 71 -48 2 -4 8 -8 12 -8 5 0 49
-24 97 -54 75 -46 298 -181 645 -391 46 -27 108 -66 138 -85 30 -19 57 -35 60
-35 20 -4 80 -49 73 -56 -4 -4 -71 -40 -148 -80 -77 -40 -189 -99 -250 -131
-60 -32 -144 -75 -185 -96 -41 -21 -151 -78 -245 -127 -234 -123 -344 -179
-530 -275 l-160 -82 -185 113 c-102 62 -196 119 -210 126 -14 8 -37 22 -52 31
-52 33 -390 238 -501 304 -62 36 -117 71 -124 77 -7 6 -15 11 -19 11 -3 0 -26
14 -51 30 -24 17 -45 30 -47 30 -2 0 -59 34 -127 75 -68 41 -129 75 -136 75
-7 0 -13 12 -13 28 -1 100 -2 1680 -1 1695 1 15 4 15 21 5 11 -7 20 -16 20
-20z m3278 -47 c35 -26 241 -151 269 -165 13 -6 23 -14 23 -18 0 -5 4 -8 10
-8 8 0 68 -35 120 -70 8 -6 94 -58 190 -116 96 -59 198 -122 227 -140 28 -19
54 -34 58 -34 3 0 11 -5 18 -11 7 -6 129 -82 272 -169 143 -88 272 -167 287
-177 l28 -18 1 -175 c6 -2017 7 -3390 0 -3390 -4 0 -11 3 -15 8 -4 4 -11 7
-14 7 -4 0 -18 8 -32 17 -14 8 -68 40 -120 70 -52 30 -135 79 -185 108 -49 29
-103 60 -120 70 -16 10 -86 50 -155 90 -69 40 -149 87 -178 104 -30 17 -61 36
-71 41 -9 6 -55 32 -101 59 -47 27 -93 56 -104 65 -10 9 -21 15 -25 15 -3 -1
-60 30 -126 69 -66 40 -129 77 -140 83 -65 35 -271 157 -279 165 -8 7 -159
-63 -176 -82 -5 -5 -74 -43 -220 -122 -41 -22 -79 -43 -85 -47 -9 -7 -267
-151 -425 -237 -30 -17 -174 -97 -320 -178 -374 -208 -368 -205 -374 -205 -3
0 -5 381 -3 846 l2 846 145 75 c80 41 213 110 295 153 83 43 222 115 310 160
88 46 219 113 290 150 72 37 216 111 320 165 105 54 219 113 255 132 36 19 75
45 87 58 l22 25 0 827 c0 1015 0 973 6 973 3 0 18 -9 33 -19z m-222 -781 c0
-434 -2 -790 -5 -790 -3 0 -22 10 -41 22 -19 11 -48 29 -65 38 -16 10 -90 54
-164 99 -74 44 -138 81 -142 81 -4 0 -9 3 -11 8 -1 4 -137 88 -301 187 -165
99 -315 190 -335 202 -21 12 -65 39 -100 59 -52 30 -61 39 -50 49 10 11 173
125 248 175 8 6 65 44 125 86 61 42 128 88 150 102 22 15 42 29 45 32 3 3 70
49 150 103 80 54 192 131 250 171 179 123 242 166 244 166 1 0 2 -355 2 -790z
m-4657 -162 c39 -24 131 -79 204 -123 469 -282 610 -365 618 -365 5 0 9 -4 9
-10 0 -5 5 -10 10 -10 10 0 73 -36 136 -78 10 -7 27 -15 37 -18 9 -4 17 -10
17 -15 0 -5 4 -9 9 -9 5 0 78 -41 161 -91 l151 -91 -28 -18 c-15 -9 -48 -28
-73 -42 -25 -14 -85 -48 -133 -77 -49 -28 -90 -51 -92 -51 -2 0 -39 -22 -83
-49 -43 -26 -110 -65 -148 -86 -38 -21 -76 -44 -85 -51 -8 -8 -18 -14 -22 -14
-5 0 -198 -109 -247 -140 -57 -35 -174 -100 -181 -100 -5 0 -9 -4 -9 -10 0 -5
-4 -10 -10 -10 -5 0 -44 -20 -86 -45 -41 -25 -77 -45 -79 -45 -1 0 -36 -20
-76 -45 -56 -33 -75 -41 -79 -30 -4 11 -5 1653 -1 1663 2 5 12 0 80 -40z
m1581 -948 c14 -11 29 -20 34 -20 5 0 24 -11 41 -25 18 -13 35 -21 39 -18 3 4
6 1 6 -5 0 -6 6 -12 13 -14 6 -2 145 -82 307 -180 162 -97 309 -184 327 -195
169 -99 249 -148 254 -155 3 -5 12 -10 20 -12 8 -1 39 -17 69 -37 30 -19 96
-59 146 -88 l91 -54 0 -883 c0 -486 -1 -884 -3 -884 -5 0 -64 33 -183 104
-112 67 -438 260 -482 286 -35 21 -224 131 -262 154 -18 10 -69 40 -113 67
-45 27 -86 49 -92 49 -6 0 -12 4 -14 8 -1 5 -45 33 -96 63 -51 30 -105 62
-120 71 -15 10 -34 21 -42 25 -8 4 -82 47 -163 95 -82 48 -153 88 -158 88 -5
0 -9 4 -9 9 0 5 -8 12 -17 15 -23 9 -77 37 -83 45 -3 3 -19 13 -35 22 -24 13
-429 251 -557 328 -15 9 -99 59 -188 111 -89 52 -174 103 -191 113 -16 9 -43
25 -61 35 -40 23 -44 34 -15 48 12 6 105 59 207 119 197 115 232 135 295 168
22 12 42 24 45 28 3 3 32 20 65 39 33 18 74 41 91 51 17 9 42 23 55 31 13 7
26 16 29 19 3 3 19 12 35 21 50 25 100 53 105 58 3 3 17 12 33 20 52 28 452
260 482 279 39 25 64 25 95 1z m-1477 -1127 c48 -29 92 -53 97 -53 6 0 10 -4
10 -10 0 -5 6 -10 14 -10 7 0 19 -7 26 -15 7 -9 15 -13 18 -10 3 3 12 -1 21
-9 13 -11 263 -161 336 -202 11 -6 83 -48 160 -94 77 -46 164 -97 193 -114 66
-38 62 -36 207 -123 66 -39 133 -77 148 -84 15 -7 27 -16 27 -21 0 -4 5 -8 10
-8 6 0 27 -11 48 -23 20 -13 57 -35 82 -49 25 -14 115 -67 200 -118 85 -51
169 -101 185 -110 17 -10 48 -28 70 -40 22 -13 48 -30 58 -38 9 -8 17 -11 17
-7 0 4 8 1 18 -7 9 -8 105 -67 212 -130 107 -63 280 -165 384 -227 103 -61
192 -111 197 -111 5 0 9 -4 9 -10 0 -5 4 -10 10 -10 5 0 60 -31 122 -68 62
-38 144 -86 181 -108 38 -21 81 -46 95 -55 31 -18 392 -232 437 -259 17 -10
91 -53 165 -96 74 -43 137 -82 138 -86 2 -4 7 -8 12 -8 7 0 528 -304 580 -339
14 -9 41 -25 62 -36 20 -10 47 -26 59 -36 l23 -17 1 -816 c0 -575 -3 -816 -10
-816 -6 0 -32 13 -58 30 -26 16 -49 30 -52 30 -2 0 -40 23 -85 51 -74 46 -115
70 -175 103 -34 19 -367 217 -415 246 -25 16 -61 37 -80 48 -19 10 -129 75
-245 144 -115 69 -229 136 -251 149 -33 19 -487 289 -554 329 -156 95 -374
220 -381 220 -5 0 -9 5 -9 10 0 6 -4 10 -9 10 -5 0 -133 74 -286 165 -152 91
-279 165 -282 165 -2 0 -24 14 -48 30 -24 17 -48 30 -53 30 -6 0 -12 3 -14 8
-1 4 -18 15 -35 24 -18 10 -48 26 -65 35 -18 10 -35 21 -38 24 -3 4 -29 19
-58 34 -46 24 -59 27 -90 19 -73 -18 -69 37 -68 -988 1 -504 -2 -916 -5 -916
-3 0 -34 18 -68 40 -34 22 -66 40 -71 40 -4 0 -10 4 -12 8 -2 6 -164 112 -255
167 -25 15 -213 134 -253 160 -19 12 -172 109 -340 215 -342 216 -443 281
-450 291 -4 6 -5 3524 -1 3552 1 8 34 -10 184 -100z m4707 -778 c61 -36 130
-76 153 -89 23 -13 196 -114 385 -225 189 -110 348 -201 353 -201 5 0 9 -3 9
-7 0 -5 10 -13 23 -19 28 -14 61 -32 341 -197 127 -73 231 -138 233 -144 2 -5
-9 -16 -24 -23 -16 -8 -55 -31 -88 -51 -33 -20 -139 -83 -235 -139 -96 -57
-226 -134 -288 -172 -63 -37 -115 -68 -117 -68 -3 0 -33 -18 -67 -40 -35 -22
-69 -40 -75 -40 -7 0 -13 -3 -13 -8 0 -4 -28 -23 -62 -42 -35 -19 -70 -39 -80
-45 -9 -5 -43 -26 -75 -45 -32 -19 -130 -77 -219 -130 l-160 -96 -35 22 c-19
13 -40 23 -46 23 -7 1 -13 6 -13 11 0 6 -6 10 -14 10 -7 0 -19 7 -26 15 -7 9
-15 13 -18 10 -3 -3 -13 2 -22 10 -9 8 -34 25 -57 37 -34 20 -172 100 -274
161 -431 255 -639 377 -674 396 -16 9 -31 19 -33 24 -2 4 -8 7 -13 7 -5 0 -26
11 -47 23 -72 46 -92 57 -99 58 -5 0 -15 6 -23 13 -8 7 -71 46 -139 86 -67 39
-119 75 -115 80 5 4 36 22 69 40 33 18 110 61 170 95 61 34 139 78 175 97 112
61 194 108 210 118 8 5 32 18 52 29 20 11 174 97 343 190 168 94 310 171 315
171 6 0 10 3 10 8 0 4 35 25 78 47 42 22 79 43 82 46 3 3 12 9 20 12 8 3 16 6
17 6 1 1 52 -28 113 -64z m1577 -1917 l3 -846 -61 -36 c-33 -20 -62 -36 -64
-36 -3 0 -38 -20 -78 -45 -41 -25 -80 -45 -86 -45 -6 0 -11 -4 -11 -8 0 -4
-12 -13 -27 -20 -16 -6 -41 -20 -58 -30 -16 -10 -50 -30 -75 -44 -53 -30 -148
-84 -170 -97 -23 -14 -297 -173 -353 -204 -27 -15 -95 -54 -151 -86 -55 -32
-117 -68 -136 -78 -19 -11 -63 -37 -97 -57 -34 -20 -66 -36 -71 -36 -6 0 -12
-6 -15 -12 -2 -7 -7 -10 -10 -7 -10 8 -10 1670 0 1679 16 14 266 160 274 160
5 0 9 5 9 10 0 6 4 10 10 10 8 0 89 46 160 90 8 5 56 33 105 62 50 28 93 56
97 62 4 6 8 7 8 2 0 -5 8 -2 18 6 9 8 85 55 167 103 83 49 194 114 247 147 54
32 102 58 107 58 5 0 11 4 13 8 3 7 117 76 180 109 15 8 30 19 34 24 26 43 29
-20 31 -843z m-4532 -202 c10 -6 25 -17 33 -23 7 -7 20 -13 28 -13 8 0 14 -4
14 -10 0 -5 4 -10 9 -10 4 0 64 -33 132 -74 68 -40 167 -99 219 -129 52 -31
101 -61 108 -67 6 -6 12 -8 12 -4 0 4 8 0 18 -8 9 -8 42 -29 72 -47 30 -17 64
-37 75 -44 11 -6 47 -28 80 -47 34 -19 70 -40 80 -47 11 -7 57 -34 102 -60 46
-26 83 -50 83 -53 -1 -3 -49 -34 -108 -70 -59 -37 -272 -169 -474 -295 -202
-127 -379 -237 -392 -245 -14 -8 -58 -35 -98 -60 -40 -25 -77 -47 -83 -49 -5
-2 -12 -7 -15 -11 -3 -3 -30 -21 -60 -38 -30 -18 -72 -44 -92 -57 l-38 -25 0
22 c-1 29 -1 1537 0 1595 l0 42 138 -81 c75 -45 146 -86 157 -92z"/>
</g>
</svg>
