<?xml version="1.0" standalone="no"?>
<!DOCTYPE svg PUBLIC "-//W3C//DTD SVG 20010904//EN"
 "http://www.w3.org/TR/2001/REC-SVG-20010904/DTD/svg10.dtd">
<svg version="1.0" xmlns="http://www.w3.org/2000/svg"
 width="256.000000pt" height="256.000000pt" viewBox="0 0 256.000000 256.000000"
 preserveAspectRatio="xMidYMid meet">
<metadata>
Created by potrace 1.14, written by Peter Selinger 2001-2017
</metadata>
<g transform="translate(0.000000,256.000000) scale(0.100000,-0.100000)"
fill="#000000" stroke="none">
<path d="M1020 2156 l0 -253 105 -1 104 0 3 151 3 152 130 0 130 0 0 -208 c0
-115 -2 -212 -5 -216 -3 -4 -214 -7 -470 -7 l-465 0 -65 -30 c-81 -39 -135
-92 -171 -169 -69 -149 -2 -341 146 -418 74 -38 127 -43 450 -43 l310 1 3 166
2 166 -104 -1 -104 0 0 -58 c1 -32 -2 -61 -5 -65 -4 -3 -99 -5 -212 -5 -227 1
-244 5 -283 62 -33 49 -26 110 17 154 l31 31 568 5 567 5 -1 410 c-1 226 -2
413 -3 418 0 4 -154 7 -341 7 l-340 0 0 -254z"/>
<path d="M1394 1441 c-2 -2 -4 -78 -4 -167 l0 -164 103 3 102 2 3 63 3 63 199
-3 200 -3 31 -31 c61 -61 51 -156 -21 -198 -31 -18 -60 -19 -510 -19 l-477 -1
0 -418 -1 -418 342 0 342 0 -2 248 c-1 136 -2 250 -3 253 0 4 -47 7 -103 7
l-103 0 0 -152 0 -151 -131 -1 -132 -2 0 214 c-1 118 2 214 6 215 4 0 180 2
392 3 346 2 390 4 430 21 89 36 148 91 187 174 67 141 25 299 -105 398 -79 60
-122 67 -450 67 -162 1 -296 -1 -298 -3z"/>
</g>
</svg>
