<svg width="18" height="16" viewBox="0 0 18 16" fill="none" xmlns="http://www.w3.org/2000/svg">
<path d="M13.4817 9.591C13.9238 8.8477 14.6301 8.8477 15.0722 9.591L17.811 14.2837C18.2531 15.027 17.8923 15.6316 17.0132 15.6316H11.4898C10.6209 15.6316 10.2602 15.027 10.6921 14.2837L13.4817 9.591ZM8.1819 0.557468C8.624 -0.185822 9.3201 -0.185822 9.7622 0.557468L10.372 1.63278L11.81 4.10053C12.1606 4.80419 12.1606 5.6317 11.81 6.3354L6.97763 14.5018C6.53556 15.1658 5.80893 15.587 4.99592 15.6316H0.986749C0.107689 15.6316 -0.253091 15.0369 0.188989 14.2837L8.1819 0.557468Z" fill="white"/>
</svg>
