<svg width="1440" height="146" viewBox="0 0 1440 146" fill="none" xmlns="http://www.w3.org/2000/svg">
<path d="M561.8 144.8C551.533 144.8 542.667 143 535.2 139.4C527.867 135.8 522.067 130.867 517.8 124.6C513.667 118.2 511.267 111 510.6 103H535.6C536.8 108.733 539.733 113.533 544.4 117.4C549.067 121.133 554.867 123 561.8 123C569.267 123 575.333 120.267 580 114.8C584.8 109.333 587.2 102.533 587.2 94.4C587.2 86 584.8 79.3333 580 74.4C575.333 69.4667 569.4 67 562.2 67C556.2 67 551 68.4667 546.6 71.4C542.2 74.3333 539.067 78 537.2 82.4H512.6L524.6 2.39999H602.2V24.8H543.8L537.4 57.2C540.333 54 544.333 51.4 549.4 49.4C554.467 47.2667 560.133 46.2 566.4 46.2C576.4 46.2 584.733 48.4667 591.4 53C598.067 57.4 603.133 63.2667 606.6 70.6C610.067 77.8 611.8 85.6667 611.8 94.2C611.8 103.933 609.667 112.6 605.4 120.2C601.267 127.8 595.4 133.8 587.8 138.2C580.333 142.6 571.667 144.8 561.8 144.8Z" fill="#E42575"/>
<path d="M693.023 144.8C680.09 144.8 669.023 141.8 659.823 135.8C650.623 129.667 643.49 121.2 638.423 110.4C633.49 99.4667 631.023 86.8 631.023 72.4C631.023 58.1333 633.49 45.5333 638.423 34.6C643.49 23.6667 650.623 15.2 659.823 9.2C669.023 3.06666 680.09 0 693.023 0C705.957 0 717.023 3.06666 726.223 9.2C735.423 15.2 742.49 23.6667 747.423 34.6C752.49 45.5333 755.023 58.1333 755.023 72.4C755.023 86.8 752.49 99.4667 747.423 110.4C742.49 121.2 735.423 129.667 726.223 135.8C717.023 141.8 705.957 144.8 693.023 144.8ZM693.023 121.8C703.557 121.8 712.157 117.4 718.823 108.6C725.49 99.8 728.823 87.7333 728.823 72.4C728.823 57.0667 725.49 45 718.823 36.2C712.157 27.4 703.557 23 693.023 23C682.357 23 673.69 27.4 667.023 36.2C660.49 45 657.223 57.0667 657.223 72.4C657.223 87.7333 660.49 99.8 667.023 108.6C673.69 117.4 682.357 121.8 693.023 121.8Z" fill="#A197AA"/>
<path d="M835.016 144.8C822.082 144.8 811.016 141.8 801.816 135.8C792.616 129.667 785.482 121.2 780.416 110.4C775.482 99.4667 773.016 86.8 773.016 72.4C773.016 58.1333 775.482 45.5333 780.416 34.6C785.482 23.6667 792.616 15.2 801.816 9.2C811.016 3.06666 822.082 0 835.016 0C847.949 0 859.016 3.06666 868.216 9.2C877.416 15.2 884.482 23.6667 889.416 34.6C894.482 45.5333 897.016 58.1333 897.016 72.4C897.016 86.8 894.482 99.4667 889.416 110.4C884.482 121.2 877.416 129.667 868.216 135.8C859.016 141.8 847.949 144.8 835.016 144.8ZM835.016 121.8C845.549 121.8 854.149 117.4 860.816 108.6C867.482 99.8 870.816 87.7333 870.816 72.4C870.816 57.0667 867.482 45 860.816 36.2C854.149 27.4 845.549 23 835.016 23C824.349 23 815.682 27.4 809.016 36.2C802.482 45 799.216 57.0667 799.216 72.4C799.216 87.7333 802.482 99.8 809.016 108.6C815.682 117.4 824.349 121.8 835.016 121.8Z" fill="#A197AA"/>
<g opacity="0.05">
<path d="M1015.2 145.2C1004.93 145.2 996.067 143.4 988.6 139.8C981.267 136.2 975.467 131.267 971.2 125C967.067 118.6 964.667 111.4 964 103.4H989C990.2 109.134 993.133 113.934 997.8 117.8C1002.47 121.534 1008.27 123.4 1015.2 123.4C1022.67 123.4 1028.73 120.667 1033.4 115.2C1038.2 109.734 1040.6 102.934 1040.6 94.8004C1040.6 86.4004 1038.2 79.7337 1033.4 74.8004C1028.73 69.8671 1022.8 67.4004 1015.6 67.4004C1009.6 67.4004 1004.4 68.8671 1000 71.8004C995.6 74.7337 992.467 78.4004 990.6 82.8004H966L978 2.80038H1055.6V25.2004H997.2L990.8 57.6004C993.733 54.4004 997.733 51.8004 1002.8 49.8004C1007.87 47.6671 1013.53 46.6004 1019.8 46.6004C1029.8 46.6004 1038.13 48.867 1044.8 53.4004C1051.47 57.8004 1056.53 63.6671 1060 71.0004C1063.47 78.2004 1065.2 86.0671 1065.2 94.6004C1065.2 104.334 1063.07 113 1058.8 120.6C1054.67 128.2 1048.8 134.2 1041.2 138.6C1033.73 143 1025.07 145.2 1015.2 145.2Z" fill="#E42575"/>
<path d="M1146.42 145.2C1133.49 145.2 1122.42 142.2 1113.22 136.2C1104.02 130.067 1096.89 121.6 1091.82 110.8C1086.89 99.8671 1084.42 87.2004 1084.42 72.8004C1084.42 58.5337 1086.89 45.9337 1091.82 35.0004C1096.89 24.0671 1104.02 15.6004 1113.22 9.60039C1122.42 3.46705 1133.49 0.400391 1146.42 0.400391C1159.36 0.400391 1170.42 3.46705 1179.62 9.60039C1188.82 15.6004 1195.89 24.0671 1200.82 35.0004C1205.89 45.9337 1208.42 58.5337 1208.42 72.8004C1208.42 87.2004 1205.89 99.8671 1200.82 110.8C1195.89 121.6 1188.82 130.067 1179.62 136.2C1170.42 142.2 1159.36 145.2 1146.42 145.2ZM1146.42 122.2C1156.96 122.2 1165.56 117.8 1172.22 109C1178.89 100.2 1182.22 88.1337 1182.22 72.8004C1182.22 57.467 1178.89 45.4004 1172.22 36.6004C1165.56 27.8004 1156.96 23.4004 1146.42 23.4004C1135.76 23.4004 1127.09 27.8004 1120.42 36.6004C1113.89 45.4004 1110.62 57.467 1110.62 72.8004C1110.62 88.1337 1113.89 100.2 1120.42 109C1127.09 117.8 1135.76 122.2 1146.42 122.2Z" fill="#A197AA"/>
<path d="M1288.42 145.2C1275.48 145.2 1264.42 142.2 1255.22 136.2C1246.02 130.067 1238.88 121.6 1233.82 110.8C1228.88 99.8671 1226.42 87.2004 1226.42 72.8004C1226.42 58.5337 1228.88 45.9337 1233.82 35.0004C1238.88 24.0671 1246.02 15.6004 1255.22 9.60039C1264.42 3.46705 1275.48 0.400391 1288.42 0.400391C1301.35 0.400391 1312.42 3.46705 1321.62 9.60039C1330.82 15.6004 1337.88 24.0671 1342.82 35.0004C1347.88 45.9337 1350.42 58.5337 1350.42 72.8004C1350.42 87.2004 1347.88 99.8671 1342.82 110.8C1337.88 121.6 1330.82 130.067 1321.62 136.2C1312.42 142.2 1301.35 145.2 1288.42 145.2ZM1288.42 122.2C1298.95 122.2 1307.55 117.8 1314.22 109C1320.88 100.2 1324.22 88.1337 1324.22 72.8004C1324.22 57.467 1320.88 45.4004 1314.22 36.6004C1307.55 27.8004 1298.95 23.4004 1288.42 23.4004C1277.75 23.4004 1269.08 27.8004 1262.42 36.6004C1255.88 45.4004 1252.62 57.467 1252.62 72.8004C1252.62 88.1337 1255.88 100.2 1262.42 109C1269.08 117.8 1277.75 122.2 1288.42 122.2Z" fill="#A197AA"/>
</g>
<g opacity="0.05">
<path d="M109.2 145.2C98.9333 145.2 90.0667 143.4 82.6 139.8C75.2667 136.2 69.4667 131.267 65.2 125C61.0667 118.6 58.6667 111.4 58 103.4H83C84.2 109.134 87.1333 113.934 91.8 117.8C96.4667 121.534 102.267 123.4 109.2 123.4C116.667 123.4 122.733 120.667 127.4 115.2C132.2 109.734 134.6 102.934 134.6 94.8004C134.6 86.4004 132.2 79.7337 127.4 74.8004C122.733 69.8671 116.8 67.4004 109.6 67.4004C103.6 67.4004 98.4 68.8671 94 71.8004C89.6 74.7337 86.4667 78.4004 84.6 82.8004H60L72 2.80038H149.6V25.2004H91.2L84.8 57.6004C87.7333 54.4004 91.7333 51.8004 96.8 49.8004C101.867 47.6671 107.533 46.6004 113.8 46.6004C123.8 46.6004 132.133 48.867 138.8 53.4004C145.467 57.8004 150.533 63.6671 154 71.0004C157.467 78.2004 159.2 86.0671 159.2 94.6004C159.2 104.334 157.067 113 152.8 120.6C148.667 128.2 142.8 134.2 135.2 138.6C127.733 143 119.067 145.2 109.2 145.2Z" fill="#E42575"/>
<path d="M240.423 145.2C227.49 145.2 216.423 142.2 207.223 136.2C198.023 130.067 190.89 121.6 185.823 110.8C180.89 99.8671 178.423 87.2004 178.423 72.8004C178.423 58.5337 180.89 45.9337 185.823 35.0004C190.89 24.0671 198.023 15.6004 207.223 9.60039C216.423 3.46705 227.49 0.400391 240.423 0.400391C253.357 0.400391 264.423 3.46705 273.623 9.60039C282.823 15.6004 289.89 24.0671 294.823 35.0004C299.89 45.9337 302.423 58.5337 302.423 72.8004C302.423 87.2004 299.89 99.8671 294.823 110.8C289.89 121.6 282.823 130.067 273.623 136.2C264.423 142.2 253.357 145.2 240.423 145.2ZM240.423 122.2C250.957 122.2 259.557 117.8 266.223 109C272.89 100.2 276.223 88.1337 276.223 72.8004C276.223 57.467 272.89 45.4004 266.223 36.6004C259.557 27.8004 250.957 23.4004 240.423 23.4004C229.757 23.4004 221.09 27.8004 214.423 36.6004C207.89 45.4004 204.623 57.467 204.623 72.8004C204.623 88.1337 207.89 100.2 214.423 109C221.09 117.8 229.757 122.2 240.423 122.2Z" fill="#A197AA"/>
<path d="M382.416 145.2C369.482 145.2 358.416 142.2 349.216 136.2C340.016 130.067 332.882 121.6 327.816 110.8C322.882 99.8671 320.416 87.2004 320.416 72.8004C320.416 58.5337 322.882 45.9337 327.816 35.0004C332.882 24.0671 340.016 15.6004 349.216 9.60039C358.416 3.46705 369.482 0.400391 382.416 0.400391C395.349 0.400391 406.416 3.46705 415.616 9.60039C424.816 15.6004 431.882 24.0671 436.816 35.0004C441.882 45.9337 444.416 58.5337 444.416 72.8004C444.416 87.2004 441.882 99.8671 436.816 110.8C431.882 121.6 424.816 130.067 415.616 136.2C406.416 142.2 395.349 145.2 382.416 145.2ZM382.416 122.2C392.949 122.2 401.549 117.8 408.216 109C414.882 100.2 418.216 88.1337 418.216 72.8004C418.216 57.467 414.882 45.4004 408.216 36.6004C401.549 27.8004 392.949 23.4004 382.416 23.4004C371.749 23.4004 363.082 27.8004 356.416 36.6004C349.882 45.4004 346.616 57.467 346.616 72.8004C346.616 88.1337 349.882 100.2 356.416 109C363.082 117.8 371.749 122.2 382.416 122.2Z" fill="#A197AA"/>
</g>
<g opacity="0.05">
<path d="M1464.2 145.2C1453.93 145.2 1445.07 143.4 1437.6 139.8C1430.27 136.2 1424.47 131.267 1420.2 125C1416.07 118.6 1413.67 111.4 1413 103.4H1438C1439.2 109.134 1442.13 113.934 1446.8 117.8C1451.47 121.534 1457.27 123.4 1464.2 123.4C1471.67 123.4 1477.73 120.667 1482.4 115.2C1487.2 109.734 1489.6 102.934 1489.6 94.8004C1489.6 86.4004 1487.2 79.7337 1482.4 74.8004C1477.73 69.8671 1471.8 67.4004 1464.6 67.4004C1458.6 67.4004 1453.4 68.8671 1449 71.8004C1444.6 74.7337 1441.47 78.4004 1439.6 82.8004H1415L1427 2.80038H1504.6V25.2004H1446.2L1439.8 57.6004C1442.73 54.4004 1446.73 51.8004 1451.8 49.8004C1456.87 47.6671 1462.53 46.6004 1468.8 46.6004C1478.8 46.6004 1487.13 48.867 1493.8 53.4004C1500.47 57.8004 1505.53 63.6671 1509 71.0004C1512.47 78.2004 1514.2 86.0671 1514.2 94.6004C1514.2 104.334 1512.07 113 1507.8 120.6C1503.67 128.2 1497.8 134.2 1490.2 138.6C1482.73 143 1474.07 145.2 1464.2 145.2Z" fill="#E42575"/>
<path d="M1595.42 145.2C1582.49 145.2 1571.42 142.2 1562.22 136.2C1553.02 130.067 1545.89 121.6 1540.82 110.8C1535.89 99.8671 1533.42 87.2004 1533.42 72.8004C1533.42 58.5337 1535.89 45.9337 1540.82 35.0004C1545.89 24.0671 1553.02 15.6004 1562.22 9.60039C1571.42 3.46705 1582.49 0.400391 1595.42 0.400391C1608.36 0.400391 1619.42 3.46705 1628.62 9.60039C1637.82 15.6004 1644.89 24.0671 1649.82 35.0004C1654.89 45.9337 1657.42 58.5337 1657.42 72.8004C1657.42 87.2004 1654.89 99.8671 1649.82 110.8C1644.89 121.6 1637.82 130.067 1628.62 136.2C1619.42 142.2 1608.36 145.2 1595.42 145.2ZM1595.42 122.2C1605.96 122.2 1614.56 117.8 1621.22 109C1627.89 100.2 1631.22 88.1337 1631.22 72.8004C1631.22 57.467 1627.89 45.4004 1621.22 36.6004C1614.56 27.8004 1605.96 23.4004 1595.42 23.4004C1584.76 23.4004 1576.09 27.8004 1569.42 36.6004C1562.89 45.4004 1559.62 57.467 1559.62 72.8004C1559.62 88.1337 1562.89 100.2 1569.42 109C1576.09 117.8 1584.76 122.2 1595.42 122.2Z" fill="#A197AA"/>
</g>
</svg>
