<svg width="388" height="145" viewBox="0 0 388 145" fill="none" xmlns="http://www.w3.org/2000/svg">
<path d="M51.8 144.8C41.5333 144.8 32.6666 143 25.2 139.4C17.8666 135.8 12.0666 130.867 7.79998 124.6C3.66664 118.2 1.26664 111 0.599976 103H25.6C26.8 108.733 29.7333 113.533 34.4 117.4C39.0666 121.133 44.8666 123 51.8 123C59.2667 123 65.3333 120.267 70 114.8C74.8 109.333 77.2 102.533 77.2 94.4C77.2 86 74.8 79.3333 70 74.4C65.3333 69.4667 59.4 67 52.2 67C46.2 67 41 68.4667 36.6 71.4C32.2 74.3333 29.0666 78 27.2 82.4H2.59998L14.6 2.39999H92.2V24.8H33.8L27.4 57.2C30.3333 54 34.3333 51.4 39.4 49.4C44.4666 47.2667 50.1333 46.2 56.4 46.2C66.4 46.2 74.7333 48.4667 81.4 53C88.0666 57.4 93.1333 63.2667 96.6 70.6C100.067 77.8 101.8 85.6667 101.8 94.2C101.8 103.933 99.6666 112.6 95.4 120.2C91.2667 127.8 85.4 133.8 77.8 138.2C70.3333 142.6 61.6666 144.8 51.8 144.8Z" fill="#E42575"/>
<path d="M183.023 144.8C170.09 144.8 159.023 141.8 149.823 135.8C140.623 129.667 133.49 121.2 128.423 110.4C123.49 99.4667 121.023 86.8 121.023 72.4C121.023 58.1333 123.49 45.5333 128.423 34.6C133.49 23.6667 140.623 15.2 149.823 9.2C159.023 3.06666 170.09 0 183.023 0C195.957 0 207.023 3.06666 216.223 9.2C225.423 15.2 232.49 23.6667 237.423 34.6C242.49 45.5333 245.023 58.1333 245.023 72.4C245.023 86.8 242.49 99.4667 237.423 110.4C232.49 121.2 225.423 129.667 216.223 135.8C207.023 141.8 195.957 144.8 183.023 144.8ZM183.023 121.8C193.557 121.8 202.157 117.4 208.823 108.6C215.49 99.8 218.823 87.7333 218.823 72.4C218.823 57.0667 215.49 45 208.823 36.2C202.157 27.4 193.557 23 183.023 23C172.357 23 163.69 27.4 157.023 36.2C150.49 45 147.223 57.0667 147.223 72.4C147.223 87.7333 150.49 99.8 157.023 108.6C163.69 117.4 172.357 121.8 183.023 121.8Z" fill="#A197AA"/>
<path d="M325.016 144.8C312.082 144.8 301.016 141.8 291.816 135.8C282.616 129.667 275.482 121.2 270.416 110.4C265.482 99.4667 263.016 86.8 263.016 72.4C263.016 58.1333 265.482 45.5333 270.416 34.6C275.482 23.6667 282.616 15.2 291.816 9.2C301.016 3.06666 312.082 0 325.016 0C337.949 0 349.016 3.06666 358.216 9.2C367.416 15.2 374.482 23.6667 379.416 34.6C384.482 45.5333 387.016 58.1333 387.016 72.4C387.016 86.8 384.482 99.4667 379.416 110.4C374.482 121.2 367.416 129.667 358.216 135.8C349.016 141.8 337.949 144.8 325.016 144.8ZM325.016 121.8C335.549 121.8 344.149 117.4 350.816 108.6C357.482 99.8 360.816 87.7333 360.816 72.4C360.816 57.0667 357.482 45 350.816 36.2C344.149 27.4 335.549 23 325.016 23C314.349 23 305.682 27.4 299.016 36.2C292.482 45 289.216 57.0667 289.216 72.4C289.216 87.7333 292.482 99.8 299.016 108.6C305.682 117.4 314.349 121.8 325.016 121.8Z" fill="#A197AA"/>
</svg>
