<svg width="20" height="20" viewBox="0 0 20 20" fill="none" xmlns="http://www.w3.org/2000/svg">
<path fill-rule="evenodd" clip-rule="evenodd" d="M13.8882 11.5967L16.1508 13.8537L10 20L3.85566 13.8537L6.11834 11.5967L10 15.4797L13.8882 11.5967ZM10 7.70732L12.2952 10.0033L10 12.2992L7.71131 10.0098V10.0033L8.11444 9.6L8.30949 9.40488L10 7.70732ZM2.26268 7.73984L4.52536 10.0033L2.26268 12.2602L0 9.99675L2.26268 7.73984ZM17.7373 7.73984L20 10.0033L17.7373 12.2602L15.4746 9.99675L17.7373 7.73984ZM10 0L16.1443 6.14634L13.8817 8.40976L10 4.52033L6.11834 8.40325L3.85566 6.14634L10 0Z" fill="white"/>
</svg>
