<svg width="19" height="16" viewBox="0 0 19 16" fill="none" xmlns="http://www.w3.org/2000/svg">
<path d="M13.5828 4.7106C13.2516 4.5162 12.8196 4.5162 12.4524 4.7106L9.8604 6.21181L8.1 7.19101L5.508 8.69221C5.1768 8.88661 4.7448 8.88661 4.3776 8.69221L2.3184 7.51861C1.9872 7.32421 1.7532 6.96421 1.7532 6.57181V4.257C1.7532 3.8646 1.9512 3.5082 2.3184 3.3102L4.3452 2.169C4.6764 1.9746 5.1084 1.9746 5.4756 2.169L7.5024 3.3102C7.8336 3.5046 8.0676 3.8646 8.0676 4.257V5.7582L9.828 4.7466V3.2454C9.828 2.853 9.63 2.4966 9.2628 2.2986L5.5116 0.1458C5.1804 -0.0486 4.7484 -0.0486 4.3812 0.1458L0.5652 2.2986C0.198 2.493 0 2.853 0 3.2454V7.58341C0 7.97581 0.198 8.33221 0.5652 8.53021L4.3848 10.683C4.716 10.8774 5.148 10.8774 5.5152 10.683L8.1072 9.21421L9.8676 8.20261L12.4596 6.73381C12.7908 6.53941 13.2228 6.53941 13.59 6.73381L15.6168 7.87501C15.948 8.06941 16.182 8.42941 16.182 8.82181V11.1366C16.182 11.529 15.984 11.8854 15.6168 12.0834L13.59 13.257C13.2588 13.4514 12.8268 13.4514 12.4596 13.257L10.4328 12.1158C10.1016 11.9214 9.8676 11.5614 9.8676 11.169V9.66781L8.1072 10.6794V12.1806C8.1072 12.573 8.3052 12.9294 8.6724 13.1274L12.492 15.2802C12.8232 15.4746 13.2552 15.4746 13.6224 15.2802L17.442 13.1274C17.7732 12.933 18.0072 12.573 18.0072 12.1806V7.84261C18.0072 7.45021 17.8092 7.09381 17.442 6.89581L13.5828 4.7106Z" fill="white"/>
</svg>
