<svg width="18" height="22" viewBox="0 0 18 22" fill="none" xmlns="http://www.w3.org/2000/svg">
<path d="M9 1.25V2.33847M5.75986 17.3953C7.91321 17.6374 10.0868 17.6374 12.2401 17.3953C12.2249 17.6048 12.192 17.8128 12.1418 18.017L12.053 18.3781C11.7748 19.5096 10.891 20.3901 9.76254 20.6601C9.26119 20.78 8.73881 20.78 8.23746 20.6601C7.10905 20.3901 6.22518 19.5096 5.94697 18.3781L5.85817 18.017C5.80796 17.8128 5.7751 17.6048 5.75986 17.3953ZM2.53011 7.35197C3.13063 5.13563 4.82918 3.36602 7.00491 2.66074C8.34211 2.22729 9.79618 2.22657 11.131 2.66741C13.2681 3.37322 14.9041 5.11841 15.4776 7.30404L16.1094 9.71214L16.6156 12.0048C16.7716 12.711 16.9837 13.4373 17.0955 14.1518C17.1149 14.2757 17.125 14.4027 17.125 14.5321C17.125 15.6872 16.3152 16.6824 15.1884 16.9119L14.7902 16.9931C10.9689 17.7715 7.03105 17.7715 3.20978 16.9931L2.81156 16.9119C1.68484 16.6824 0.875 15.6872 0.875 14.5321C0.875 14.4027 0.885068 14.2757 0.90446 14.1518C1.0163 13.4373 1.22845 12.711 1.38438 12.0048L1.89063 9.71214L2.53011 7.35197Z" stroke="#A197AA" stroke-width="1.5" stroke-linecap="round"/>
</svg>
