<svg width="30" height="30" viewBox="0 0 30 30" fill="none" xmlns="http://www.w3.org/2000/svg">
<path d="M21.8125 28.4375C20.4 28.4375 18.9125 28.1 17.375 27.45C15.875 26.8125 14.3625 25.9375 12.8875 24.875C11.425 23.8 10.0125 22.6 8.675 21.2875C7.35 19.95 6.15 18.5375 5.0875 17.0875C4.0125 15.5875 3.15 14.0875 2.5375 12.6375C1.8875 11.0875 1.5625 9.5875 1.5625 8.175C1.5625 7.2 1.7375 6.275 2.075 5.4125C2.425 4.525 2.9875 3.7 3.75 2.9875C4.7125 2.0375 5.8125 1.5625 6.9875 1.5625C7.475 1.5625 7.975 1.675 8.4 1.875C8.8875 2.1 9.3 2.4375 9.6 2.8875L12.5 6.975C12.7625 7.3375 12.9625 7.6875 13.1 8.0375C13.2625 8.4125 13.35 8.7875 13.35 9.15C13.35 9.625 13.2125 10.0875 12.95 10.525C12.7625 10.8625 12.475 11.225 12.1125 11.5875L11.2625 12.475C11.275 12.5125 11.2875 12.5375 11.3 12.5625C11.45 12.825 11.75 13.275 12.325 13.95C12.9375 14.65 13.5125 15.2875 14.0875 15.875C14.825 16.6 15.4375 17.175 16.0125 17.65C16.725 18.25 17.1875 18.55 17.4625 18.6875L17.4375 18.75L18.35 17.85C18.7375 17.4625 19.1125 17.175 19.475 16.9875C20.1625 16.5625 21.0375 16.4875 21.9125 16.85C22.2375 16.9875 22.5875 17.175 22.9625 17.4375L27.1125 20.3875C27.575 20.7 27.9125 21.1 28.1125 21.575C28.3 22.05 28.3875 22.4875 28.3875 22.925C28.3875 23.525 28.25 24.125 27.9875 24.6875C27.725 25.25 27.4 25.7375 26.9875 26.1875C26.275 26.975 25.5 27.5375 24.6 27.9C23.7375 28.25 22.8 28.4375 21.8125 28.4375ZM6.9875 3.4375C6.3 3.4375 5.6625 3.7375 5.05 4.3375C4.475 4.875 4.075 5.4625 3.825 6.1C3.5625 6.75 3.4375 7.4375 3.4375 8.175C3.4375 9.3375 3.7125 10.6 4.2625 11.9C4.825 13.225 5.6125 14.6 6.6125 15.975C7.6125 17.35 8.75 18.6875 10 19.95C11.25 21.1875 12.6 22.3375 13.9875 23.35C15.3375 24.3375 16.725 25.1375 18.1 25.7125C20.2375 26.625 22.2375 26.8375 23.8875 26.15C24.525 25.8875 25.0875 25.4875 25.6 24.9125C25.8875 24.6 26.1125 24.2625 26.3 23.8625C26.45 23.55 26.525 23.225 26.525 22.9C26.525 22.7 26.4875 22.5 26.3875 22.275C26.35 22.2 26.275 22.0625 26.0375 21.9L21.8875 18.95C21.6375 18.775 21.4125 18.65 21.2 18.5625C20.925 18.45 20.8125 18.3375 20.3875 18.6C20.1375 18.725 19.9125 18.9125 19.6625 19.1625L18.7125 20.1C18.225 20.575 17.475 20.6875 16.9 20.475L16.5625 20.325C16.05 20.05 15.45 19.625 14.7875 19.0625C14.1875 18.55 13.5375 17.95 12.75 17.175C12.1375 16.55 11.525 15.8875 10.8875 15.15C10.3 14.4625 9.875 13.875 9.6125 13.3875L9.4625 13.0125C9.3875 12.725 9.3625 12.5625 9.3625 12.3875C9.3625 11.9375 9.525 11.5375 9.8375 11.225L10.775 10.25C11.025 10 11.2125 9.7625 11.3375 9.55C11.4375 9.3875 11.475 9.25 11.475 9.125C11.475 9.025 11.4375 8.875 11.375 8.725C11.2875 8.525 11.15 8.3 10.975 8.0625L8.075 3.9625C7.95 3.7875 7.8 3.6625 7.6125 3.575C7.4125 3.4875 7.2 3.4375 6.9875 3.4375ZM17.4375 18.7625L17.2375 19.6125L17.575 18.7375C17.5125 18.725 17.4625 18.7375 17.4375 18.7625Z" fill="white"/>
</svg>
