<svg width="205" height="59" viewBox="0 0 205 59" fill="none" xmlns="http://www.w3.org/2000/svg">
<g clip-path="url(#clip0_495_30783)">
<path d="M109.6 23.4876C109.6 23.6063 109.623 23.7238 109.667 23.8335C109.711 23.9431 109.776 24.0428 109.858 24.1267C109.94 24.2106 110.037 24.2772 110.144 24.3226C110.251 24.368 110.365 24.3914 110.481 24.3914H114.718V40.6796C114.718 40.7621 114.734 40.8437 114.765 40.9199C114.796 40.9961 114.841 41.0654 114.898 41.1237C114.954 41.182 115.022 41.2283 115.096 41.2598C115.17 41.2914 115.25 41.3076 115.331 41.3076H120.807C120.888 41.3076 120.967 41.2914 121.042 41.2598C121.116 41.2283 121.183 41.182 121.24 41.1237C121.297 41.0654 121.342 40.9961 121.373 40.9199C121.404 40.8437 121.42 40.7621 121.42 40.6796V24.3761H125.642C125.869 24.3708 126.086 24.2754 126.247 24.1098C126.408 23.9441 126.499 23.7212 126.503 23.4876V18.2693H109.575L109.6 23.4876ZM110.596 19.3058H125.532V23.3906H120.404V40.2864H115.714V23.3549H110.596V19.3058Z" fill="white"/>
<path d="M137.67 17.6924C134.942 17.6924 132.823 18.477 131.312 20.0463C129.802 21.6155 129.047 23.8281 129.047 26.6841V40.6797C129.047 40.7621 129.063 40.8438 129.093 40.92C129.124 40.9962 129.169 41.0654 129.226 41.1238C129.283 41.1821 129.351 41.2283 129.425 41.2599C129.499 41.2915 129.579 41.3077 129.659 41.3077H135.136C135.298 41.3064 135.452 41.2396 135.566 41.122C135.68 41.0043 135.743 40.8453 135.743 40.6797V35.8238H138.731V40.6797C138.731 40.7621 138.747 40.8438 138.777 40.92C138.808 40.9962 138.853 41.0654 138.91 41.1238C138.967 41.1821 139.035 41.2283 139.109 41.2599C139.183 41.2915 139.263 41.3077 139.343 41.3077H144.82C144.9 41.3077 144.98 41.2915 145.054 41.2599C145.129 41.2283 145.196 41.1821 145.253 41.1238C145.31 41.0654 145.355 40.9962 145.386 40.92C145.416 40.8438 145.432 40.7621 145.432 40.6797V26.4186C145.432 23.4469 144.802 21.2496 143.54 19.8267C142.279 18.4038 140.322 17.6924 137.67 17.6924ZM144.412 40.2865H139.722V34.8026H134.743V40.2865H130.053V26.6585C130.053 24.0749 130.7 22.1499 132.044 20.7662C133.388 19.3825 135.221 18.7238 137.695 18.7238C140.025 18.7238 141.743 19.3314 142.803 20.5262C143.864 21.721 144.437 23.7379 144.437 26.4288L144.412 40.2865Z" fill="white"/>
<path d="M137.292 23.4571C136.526 23.4571 134.733 23.789 134.733 26.8781V30.7689H139.712V26.8781C139.773 26.0472 139.614 25.2149 139.254 24.4681C139.045 24.1348 138.753 23.8652 138.408 23.6873C138.063 23.5095 137.678 23.43 137.292 23.4571ZM138.726 29.7477H135.739V26.8781C135.739 25.2782 136.26 24.4783 137.302 24.4783C137.518 24.4574 137.735 24.4967 137.93 24.592C138.126 24.6873 138.292 24.835 138.413 25.0195C138.668 25.6074 138.776 26.2517 138.726 26.8934V29.7477Z" fill="white"/>
<path d="M154.843 34.0928C154.509 33.7354 154.345 33.0257 154.345 31.9585V18.2693H147.668V33.0767C147.668 35.6638 148.347 37.6875 149.704 39.1478C151.062 40.6081 152.961 41.3366 155.4 41.3332H157.178V34.6239H156.834C155.838 34.6239 155.186 34.4451 154.843 34.0928ZM156.177 40.2864H155.395C153.224 40.2864 151.596 39.6737 150.416 38.4125C149.236 37.1513 148.654 35.3898 148.654 33.0512V19.2905H153.349V31.9585C153.349 33.332 153.598 34.2358 154.131 34.8026C154.693 35.3217 155.42 35.6122 156.177 35.6195V40.2864Z" fill="white"/>
<path d="M178.647 17.6924C176.101 17.6924 174.063 18.4804 172.533 20.0565C171.003 21.6325 170.238 23.7311 170.238 26.3522V40.6797C170.238 40.7621 170.253 40.8438 170.284 40.92C170.315 40.9962 170.36 41.0654 170.417 41.1238C170.474 41.1821 170.541 41.2283 170.616 41.2599C170.69 41.2915 170.77 41.3077 170.85 41.3077H176.327C176.407 41.3077 176.487 41.2915 176.561 41.2599C176.635 41.2283 176.703 41.1821 176.76 41.1238C176.817 41.0654 176.862 40.9962 176.892 40.92C176.923 40.8438 176.939 40.7621 176.939 40.6797V26.5871C176.939 25.1846 177.41 24.4817 178.353 24.4783C179.296 24.4749 179.785 25.1778 179.822 26.5871V40.6797C179.822 40.8453 179.886 41.0043 179.999 41.122C180.113 41.2396 180.268 41.3064 180.429 41.3077H185.906C185.986 41.3077 186.066 41.2915 186.14 41.2599C186.215 41.2283 186.282 41.1821 186.339 41.1238C186.396 41.0654 186.441 40.9962 186.472 40.92C186.503 40.8438 186.518 40.7621 186.518 40.6797V26.5871C186.518 23.7175 185.846 21.5185 184.502 19.9901C183.158 18.4617 181.206 17.6958 178.647 17.6924ZM185.488 40.2865H180.798V26.5871C180.798 23.6817 178.911 23.4571 178.333 23.4571C177.611 23.4571 175.923 23.7634 175.923 26.5871V40.2865H171.233V26.3522C171.233 23.9881 171.891 22.1653 173.225 20.7764C174.559 19.3876 176.342 18.734 178.632 18.734C180.922 18.734 182.555 19.3774 183.71 20.6947C184.865 22.0121 185.473 24.0136 185.473 26.6075L185.488 40.2865Z" fill="white"/>
<path d="M188.097 18.2693V23.4213C188.097 23.6745 188.195 23.9174 188.369 24.0964C188.544 24.2755 188.781 24.3761 189.028 24.3761H193.215V40.6796C193.215 40.7621 193.231 40.8437 193.262 40.9199C193.292 40.9961 193.338 41.0654 193.394 41.1237C193.451 41.182 193.519 41.2283 193.593 41.2598C193.667 41.2914 193.747 41.3076 193.827 41.3076H199.304C199.385 41.3076 199.464 41.2914 199.539 41.2598C199.613 41.2283 199.68 41.182 199.737 41.1237C199.794 41.0654 199.839 40.9961 199.87 40.9199C199.901 40.8437 199.917 40.7621 199.917 40.6796V24.3761H204.089C204.336 24.3761 204.573 24.2755 204.747 24.0964C204.922 23.9174 205.02 23.6745 205.02 23.4213V18.2693H188.097ZM204.004 23.3753H198.901V40.2864H194.211V23.3549H189.093V19.2701H204.004V23.3753Z" fill="white"/>
<path d="M159.324 27.1589V32.3671H168.037V27.2304H161.067C160.375 27.2304 159.822 27.2049 159.324 27.1589ZM167.032 31.3408H160.32V28.2414H161.047H167.022L167.032 31.3408Z" fill="white"/>
<path d="M159.324 34.7209V40.6797C159.324 40.7621 159.34 40.8438 159.371 40.92C159.402 40.9962 159.447 41.0654 159.504 41.1238C159.56 41.1821 159.628 41.2283 159.702 41.2599C159.777 41.2915 159.856 41.3077 159.937 41.3077H167.405C167.485 41.3077 167.565 41.2915 167.639 41.2599C167.714 41.2283 167.781 41.1821 167.838 41.1238C167.895 41.0654 167.94 40.9962 167.971 40.92C168.001 40.8438 168.017 40.7621 168.017 40.6797V34.7209H160.345C159.976 34.7209 159.638 34.7209 159.324 34.7209ZM167.041 40.2865H160.32V35.7422H167.041V40.2865Z" fill="white"/>
<path d="M159.324 24.3762H168.037V18.249H159.324V24.3762ZM160.32 19.2702H167.041V23.355H160.32V19.2702Z" fill="white"/>
<path d="M78.1281 25.7853V34.5421H79.3579V25.6934C79.3579 24.8426 79.5218 24.0002 79.8401 23.2145C80.1585 22.4289 80.6251 21.7154 81.2131 21.1153C81.8012 20.5151 82.499 20.0399 83.2666 19.7171C84.0342 19.3944 84.8564 19.2303 85.686 19.2343H86.7963L104.148 19.1883V23.1761H98.9945V39.7605H94.9716V23.1761H85.5914C84.9442 23.1761 83.4356 23.4468 83.4356 25.9589V30.1254H86.8361V34.5983H83.4356V39.8269H78.1281H77.0029C75.9037 39.8289 74.8183 39.5771 73.827 39.09C72.8358 38.603 71.9643 37.8932 71.2772 37.0134L59.288 21.6954V19.4028H64.0976L75.783 34.1592C75.8464 34.2403 75.9267 34.3059 76.018 34.3509C76.1094 34.396 76.2094 34.4195 76.3108 34.4196C76.3888 34.4185 76.4661 34.4047 76.5398 34.3787C76.6724 34.3303 76.7871 34.241 76.8682 34.123C76.9493 34.0051 76.9929 33.8644 76.9929 33.7201V18.7237C76.9929 18.5382 76.921 18.3602 76.7931 18.2291C76.6652 18.0979 76.4917 18.0242 76.3108 18.0242H70.8091C70.6282 18.0242 70.4547 18.0979 70.3268 18.2291C70.1989 18.3602 70.127 18.5382 70.127 18.7237V24.8203L64.954 18.2846C64.8896 18.2033 64.8084 18.1378 64.7163 18.0927C64.6241 18.0477 64.5233 18.0243 64.4213 18.0242H58.6059C58.5164 18.0242 58.4277 18.0423 58.3449 18.0774C58.2621 18.1126 58.187 18.1641 58.1236 18.2291C58.0603 18.294 58.01 18.3711 57.9758 18.456C57.9415 18.5409 57.9238 18.6318 57.9238 18.7237V40.557C57.9238 40.6489 57.9415 40.7398 57.9758 40.8247C58.01 40.9096 58.0603 40.9867 58.1236 41.0517C58.187 41.1166 58.2621 41.1681 58.3449 41.2033C58.4277 41.2384 58.5164 41.2565 58.6059 41.2565H63.9433C64.1238 41.2552 64.2965 41.1811 64.4242 41.0502C64.5518 40.9193 64.6241 40.7421 64.6254 40.557V30.779L70.2167 37.9274C71.0296 38.9722 72.0621 39.8152 73.2372 40.3934C74.4123 40.9716 75.6995 41.2702 77.0029 41.2667H80.2142H84.1426C84.3235 41.2667 84.497 41.1931 84.6249 41.0619C84.7528 40.9307 84.8247 40.7527 84.8247 40.5672V35.9718H87.2793C87.5297 35.9705 87.7696 35.8678 87.9467 35.6862C88.1238 35.5045 88.2239 35.2586 88.2252 35.0017V29.671C88.2252 29.4137 88.1256 29.1669 87.9482 28.985C87.7708 28.8031 87.5301 28.7008 87.2793 28.7008H84.8247V25.9742C84.8247 24.5854 85.3226 24.5854 85.6163 24.5854H93.6373V40.46C93.6373 40.6455 93.7091 40.8234 93.8371 40.9546C93.965 41.0858 94.1385 41.1595 94.3194 41.1595H99.6766C99.8575 41.1595 100.031 41.0858 100.159 40.9546C100.287 40.8234 100.359 40.6455 100.359 40.46V24.5752H104.556C104.807 24.5752 105.047 24.473 105.225 24.291C105.402 24.1091 105.502 23.8623 105.502 23.605V18.0395H85.681C83.6779 18.0395 81.7567 18.8556 80.3403 20.3082C78.9238 21.7608 78.1281 23.731 78.1281 25.7853ZM71.4913 19.4028H75.6287V31.7747L71.4913 26.5512V19.4028ZM63.2612 39.8269H59.2781V23.9625L63.2612 29.0378V39.8269Z" fill="white"/>
<path d="M50.0426 8.32814L37.3117 0.510836C37.207 0.449488 37.0886 0.417217 36.9681 0.417217C36.8476 0.417217 36.7292 0.449488 36.6246 0.510836H36.5847L25.8901 7.85839L13.1193 0.0972491C13.0169 0.0378982 12.9015 0.00628396 12.7839 0.00539057C12.6663 0.00449718 12.5504 0.0343542 12.4472 0.0921431L0.338566 7.27631C0.248317 7.32891 0.172854 7.40454 0.119496 7.49586L0.0896228 7.53161C0.0896228 7.53161 0.0896228 7.58267 0.0597496 7.6082C0.0439229 7.63516 0.0321721 7.66442 0.0248975 7.695C0.0224669 7.72047 0.0224669 7.74612 0.0248975 7.77159C0.0224871 7.80729 0.0224871 7.84312 0.0248975 7.87882H3.12586e-06V50.6315C-0.000857195 50.7512 0.0284905 50.8692 0.0851962 50.9738C0.141902 51.0785 0.224038 51.1664 0.32363 51.2289L12.4173 58.8879C12.5214 58.9508 12.64 58.9839 12.7608 58.9839C12.8817 58.9839 13.0003 58.9508 13.1044 58.8879L24.8944 51.6067L37.1922 58.9083C37.2969 58.9691 37.4153 59.0008 37.5357 59.0002C37.6521 58.9993 37.7665 58.9695 37.8693 58.9134L50.0426 51.8927C50.1483 51.8325 50.2364 51.7444 50.2977 51.6376C50.359 51.5307 50.3912 51.409 50.3912 51.285V8.93065C50.3893 8.80778 50.3562 8.68753 50.2951 8.58183C50.2339 8.47614 50.1469 8.38868 50.0426 8.32814ZM36.281 2.40517V14.149L27.1996 8.64472L36.281 2.40517ZM13.443 1.9252L35.5442 15.3183L24.277 21.1902L13.7566 14.8077C13.6651 14.7543 13.563 14.7229 13.4579 14.7158L13.443 1.9252ZM13.2936 16.2476L23.555 22.3748V35.4513L2.05628 22.7373L13.2936 16.2476ZM12.0937 1.90988V13.8988L2.03636 7.88392L12.0937 1.90988ZM1.36421 9.09405L11.9493 15.4306L1.36919 21.5578L1.36421 9.09405ZM13.4579 57.0906V44.8362L23.5301 50.8102L13.4579 57.0906ZM36.8586 57.0906L13.1143 43.0133C13.0124 42.9496 12.8952 42.916 12.7758 42.9163C12.6548 42.9158 12.536 42.9494 12.4322 43.0133C12.3291 43.0743 12.2436 43.1622 12.1841 43.268C12.1247 43.3737 12.0935 43.4937 12.0937 43.6158V57.0497L1.36421 50.2434V23.9372L36.8436 44.9332L36.8586 57.0906ZM37.3565 43.626L25.1284 36.401L36.5798 30.0032L48.5291 36.9984L37.3565 43.626ZM49.0419 50.8766L38.1979 57.111V44.7187L49.007 38.2953L49.0419 50.8766ZM49.0419 35.6913L36.5947 28.4152L24.8944 34.9305V22.4156L37.2668 16.0076L37.3316 15.9565L37.4013 15.9055L37.4909 15.8289C37.5087 15.8077 37.5253 15.7856 37.5407 15.7625C37.5407 15.737 37.5407 15.7063 37.5805 15.6757C37.5934 15.6497 37.6035 15.6223 37.6104 15.594C37.6127 15.5617 37.6127 15.5293 37.6104 15.497C37.6104 15.4715 37.6104 15.451 37.6104 15.4255V2.32858L48.9772 9.32382L49.0419 35.6913Z" fill="white"/>
</g>
<defs>
<clipPath id="clip0_495_30783">
<rect width="205" height="59" fill="white"/>
</clipPath>
</defs>
</svg>
