<svg width="174" height="50" viewBox="0 0 174 50" fill="none" xmlns="http://www.w3.org/2000/svg">
<g clip-path="url(#clip0_290_18096)">
<path d="M93.026 19.9048C93.026 20.0053 93.0454 20.1049 93.083 20.1978C93.1205 20.2908 93.1756 20.3752 93.2451 20.4463C93.3146 20.5174 93.397 20.5739 93.4878 20.6124C93.5785 20.6508 93.6758 20.6707 93.774 20.6707H97.3703V34.4742C97.3703 34.5441 97.3838 34.6133 97.4099 34.6779C97.436 34.7425 97.4743 34.8011 97.5226 34.8505C97.5708 34.9 97.6281 34.9392 97.6912 34.9659C97.7542 34.9927 97.8218 35.0064 97.8901 35.0064H102.539C102.607 35.0064 102.675 34.9927 102.738 34.9659C102.801 34.9392 102.858 34.9 102.906 34.8505C102.954 34.8011 102.993 34.7425 103.019 34.6779C103.045 34.6133 103.058 34.5441 103.058 34.4742V20.6577H106.642C106.835 20.6532 107.019 20.5723 107.156 20.432C107.292 20.2916 107.37 20.1027 107.373 19.9048V15.4824H93.0049L93.026 19.9048ZM93.8712 16.3608H106.549V19.8225H102.196V34.141H98.2155V19.7922H93.8712V16.3608Z" fill="url(#paint0_linear_290_18096)"/>
<path d="M116.853 14.9932C114.537 14.9932 112.738 15.6581 111.456 16.988C110.174 18.3178 109.533 20.1929 109.533 22.6132V34.4739C109.533 34.5438 109.547 34.613 109.573 34.6776C109.599 34.7422 109.637 34.8008 109.685 34.8503C109.734 34.8997 109.791 34.9389 109.854 34.9656C109.917 34.9924 109.985 35.0061 110.053 35.0061H114.702C114.839 35.005 114.97 34.9484 115.066 34.8487C115.163 34.749 115.217 34.6143 115.217 34.4739V30.3588H117.753V34.4739C117.753 34.5438 117.766 34.613 117.792 34.6776C117.818 34.7422 117.857 34.8008 117.905 34.8503C117.953 34.8997 118.011 34.9389 118.074 34.9656C118.137 34.9924 118.204 35.0061 118.273 35.0061H122.921C122.989 35.0061 123.057 34.9924 123.12 34.9656C123.183 34.9389 123.24 34.8997 123.289 34.8503C123.337 34.8008 123.375 34.7422 123.401 34.6776C123.427 34.613 123.441 34.5438 123.441 34.4739V22.3882C123.441 19.8698 122.906 18.0077 121.835 16.8019C120.764 15.5961 119.104 14.9932 116.853 14.9932ZM122.575 34.1407H118.594V29.4934H114.368V34.1407H110.387V22.5916C110.387 20.4021 110.936 18.7707 112.077 17.5981C113.218 16.4254 114.773 15.8672 116.874 15.8672C118.851 15.8672 120.309 16.3822 121.21 17.3947C122.11 18.4073 122.596 20.1165 122.596 22.3969L122.575 34.1407Z" fill="url(#paint1_linear_290_18096)"/>
<path d="M116.532 19.8784C115.881 19.8784 114.359 20.1597 114.359 22.7776V26.0749H118.585V22.7776C118.637 22.0734 118.502 21.3681 118.197 20.7352C118.019 20.4528 117.771 20.2243 117.479 20.0735C117.186 19.9228 116.859 19.8554 116.532 19.8784ZM117.749 25.2095H115.213V22.7776C115.213 21.4218 115.655 20.7439 116.54 20.7439C116.723 20.7262 116.907 20.7595 117.073 20.8402C117.239 20.921 117.38 21.0462 117.482 21.2025C117.7 21.7007 117.791 22.2468 117.749 22.7906V25.2095Z" fill="url(#paint2_linear_290_18096)"/>
<path d="M131.428 28.8922C131.144 28.5893 131.005 27.9878 131.005 27.0835V15.4824H125.338V28.0311C125.338 30.2235 125.914 31.9385 127.066 33.1761C128.219 34.4136 129.83 35.031 131.901 35.0281H133.409V29.3422H133.118C132.273 29.3422 131.719 29.1908 131.428 28.8922ZM132.56 34.141H131.897C130.054 34.141 128.672 33.6218 127.671 32.553C126.669 31.4842 126.175 29.9913 126.175 28.0095V16.3478H130.16V27.0835C130.16 28.2475 130.371 29.0134 130.823 29.4937C131.3 29.9336 131.918 30.1798 132.56 30.186V34.141Z" fill="url(#paint3_linear_290_18096)"/>
<path d="M151.632 14.9932C149.471 14.9932 147.741 15.661 146.442 16.9966C145.144 18.3323 144.494 20.1107 144.494 22.332V34.4739C144.494 34.5438 144.508 34.613 144.534 34.6776C144.56 34.7422 144.598 34.8008 144.646 34.8503C144.695 34.8997 144.752 34.9389 144.815 34.9656C144.878 34.9924 144.946 35.0061 145.014 35.0061H149.662C149.731 35.0061 149.798 34.9924 149.861 34.9656C149.924 34.9389 149.982 34.8997 150.03 34.8503C150.078 34.8008 150.117 34.7422 150.143 34.6776C150.169 34.613 150.182 34.5438 150.182 34.4739V22.531C150.182 21.3425 150.582 20.7468 151.382 20.7439C152.183 20.741 152.598 21.3367 152.629 22.531V34.4739C152.629 34.6143 152.683 34.749 152.78 34.8487C152.876 34.9484 153.008 35.005 153.145 35.0061H157.793C157.862 35.0061 157.929 34.9924 157.992 34.9656C158.055 34.9389 158.113 34.8997 158.161 34.8503C158.209 34.8008 158.247 34.7422 158.273 34.6776C158.3 34.613 158.313 34.5438 158.313 34.4739V22.531C158.313 20.0992 157.743 18.2356 156.602 16.9404C155.461 15.6451 153.804 14.996 151.632 14.9932ZM157.438 34.1407H153.457V22.531C153.457 20.0689 151.856 19.8785 151.366 19.8785C150.753 19.8785 149.32 20.1381 149.32 22.531V34.1407H145.339V22.332C145.339 20.3285 145.897 18.7837 147.03 17.6067C148.162 16.4298 149.675 15.8759 151.619 15.8759C153.563 15.8759 154.949 16.4211 155.93 17.5375C156.91 18.6539 157.426 20.3502 157.426 22.5483L157.438 34.1407Z" fill="url(#paint4_linear_290_18096)"/>
<path d="M159.653 15.4824V19.8485C159.653 20.0631 159.737 20.2689 159.885 20.4207C160.033 20.5724 160.234 20.6577 160.444 20.6577H163.998V34.4742C163.998 34.5441 164.011 34.6133 164.037 34.6779C164.063 34.7425 164.102 34.8011 164.15 34.8505C164.198 34.9 164.255 34.9392 164.318 34.9659C164.382 34.9927 164.449 35.0064 164.517 35.0064H169.166C169.234 35.0064 169.302 34.9927 169.365 34.9659C169.428 34.9392 169.485 34.9 169.534 34.8505C169.582 34.8011 169.62 34.7425 169.646 34.6779C169.672 34.6133 169.686 34.5441 169.686 34.4742V20.6577H173.227C173.437 20.6577 173.638 20.5724 173.786 20.4207C173.934 20.2689 174.017 20.0631 174.017 19.8485V15.4824H159.653ZM173.155 19.8096H168.824V34.141H164.843V19.7922H160.499V16.3305H173.155V19.8096Z" fill="url(#paint5_linear_290_18096)"/>
<path d="M135.231 23.0156V27.4293H142.627V23.0762H136.711C136.123 23.0762 135.654 23.0546 135.231 23.0156ZM141.773 26.5595H136.077V23.933H136.694H141.765L141.773 26.5595Z" fill="url(#paint6_linear_290_18096)"/>
<path d="M135.231 29.4248V34.4746C135.231 34.5445 135.245 34.6137 135.271 34.6782C135.297 34.7428 135.335 34.8015 135.384 34.8509C135.432 34.9003 135.489 34.9395 135.552 34.9663C135.615 34.993 135.683 35.0068 135.751 35.0068H142.09C142.158 35.0068 142.226 34.993 142.289 34.9663C142.352 34.9395 142.409 34.9003 142.458 34.8509C142.506 34.8015 142.544 34.7428 142.57 34.6782C142.597 34.6137 142.61 34.5445 142.61 34.4746V29.4248H136.098C135.785 29.4248 135.498 29.4248 135.231 29.4248ZM141.782 34.1414H136.077V30.2902H141.782V34.1414Z" fill="url(#paint7_linear_290_18096)"/>
<path d="M135.231 20.6574H142.627V15.4648H135.231V20.6574ZM136.077 16.3303H141.782V19.792H136.077V16.3303Z" fill="url(#paint8_linear_290_18096)"/>
<path d="M66.314 21.8517V29.2727H67.3578V21.7738C67.3578 21.0527 67.4969 20.3388 67.7672 19.673C68.0374 19.0072 68.4335 18.4026 68.9326 17.894C69.4316 17.3853 70.024 16.9827 70.6755 16.7091C71.327 16.4356 72.0249 16.2965 72.729 16.2999H73.6714L88.3989 16.261V19.6405H84.0251V33.695H80.6105V19.6405H72.6487C72.0994 19.6405 70.8189 19.8698 70.8189 21.9988V25.5297H73.7052V29.3203H70.8189V33.7513H66.314H65.359C64.426 33.753 63.5047 33.5396 62.6634 33.1268C61.8221 32.7141 61.0823 32.1126 60.4991 31.367L50.323 18.3856V16.4427H54.4052L64.3236 28.9481C64.3774 29.0169 64.4455 29.0724 64.5231 29.1106C64.6006 29.1488 64.6855 29.1687 64.7715 29.1688C64.8377 29.1679 64.9033 29.1562 64.9659 29.1342C65.0784 29.0932 65.1758 29.0175 65.2446 28.9175C65.3135 28.8176 65.3505 28.6983 65.3505 28.576V15.8672C65.3505 15.71 65.2895 15.5592 65.1809 15.448C65.0724 15.3369 64.9251 15.2744 64.7715 15.2744H60.1018C59.9483 15.2744 59.801 15.3369 59.6925 15.448C59.5839 15.5592 59.5229 15.71 59.5229 15.8672V21.0338L55.1321 15.4951C55.0775 15.4262 55.0086 15.3707 54.9303 15.3325C54.8521 15.2943 54.7666 15.2745 54.6799 15.2744H49.744C49.668 15.2744 49.5927 15.2897 49.5224 15.3195C49.4522 15.3493 49.3884 15.393 49.3346 15.448C49.2809 15.5031 49.2382 15.5684 49.2091 15.6404C49.18 15.7123 49.165 15.7894 49.165 15.8672V34.37C49.165 34.4479 49.18 34.525 49.2091 34.5969C49.2382 34.6688 49.2809 34.7342 49.3346 34.7892C49.3884 34.8443 49.4522 34.8879 49.5224 34.9177C49.5927 34.9475 49.668 34.9629 49.744 34.9629H54.2742C54.4274 34.9617 54.5741 34.8989 54.6824 34.788C54.7907 34.677 54.8521 34.5269 54.8532 34.37V26.0836L59.599 32.1416C60.2889 33.027 61.1653 33.7414 62.1627 34.2314C63.1601 34.7214 64.2527 34.9744 65.359 34.9715H68.0847H71.419C71.5725 34.9715 71.7198 34.9091 71.8284 34.7979C71.9369 34.6867 71.9979 34.5359 71.9979 34.3787V30.4843H74.0814C74.294 30.4831 74.4975 30.3962 74.6479 30.2422C74.7982 30.0883 74.8832 29.8798 74.8843 29.6621V25.1446C74.8843 24.9266 74.7997 24.7174 74.6491 24.5632C74.4985 24.4091 74.2943 24.3224 74.0814 24.3224H71.9979V22.0118C71.9979 20.8348 72.4205 20.8348 72.6699 20.8348H79.4779V34.2878C79.4779 34.4451 79.5389 34.5958 79.6475 34.707C79.7561 34.8182 79.9033 34.8806 80.0569 34.8806H84.604C84.7576 34.8806 84.9048 34.8182 85.0134 34.707C85.122 34.5958 85.183 34.4451 85.183 34.2878V20.8261H88.7455C88.9584 20.8261 89.1626 20.7395 89.3132 20.5853C89.4638 20.4311 89.5484 20.222 89.5484 20.004V15.2874H72.7248C71.0246 15.2874 69.394 15.979 68.1917 17.21C66.9894 18.4411 66.314 20.1107 66.314 21.8517ZM60.6808 16.4427H64.1926V26.9274L60.6808 22.5007V16.4427ZM53.6953 33.7513H50.3145V20.3069L53.6953 24.608V33.7513Z" fill="url(#paint9_linear_290_18096)"/>
<path d="M42.4752 7.05808L31.6694 0.433243C31.5806 0.381253 31.4801 0.353904 31.3778 0.353904C31.2755 0.353904 31.175 0.381253 31.0862 0.433243H31.0524L21.9751 6.65999L11.1354 0.0827455C11.0485 0.0324482 10.9506 0.00565642 10.8507 0.00489932C10.7509 0.00414221 10.6526 0.0294447 10.5649 0.0784184L0.287381 6.16669C0.21078 6.21127 0.146728 6.27537 0.101439 6.35276L0.076083 6.38305C0.076083 6.38305 0.076083 6.42632 0.0507272 6.44796C0.0372938 6.4708 0.02732 6.49561 0.0211454 6.52152C0.0190824 6.5431 0.0190824 6.56484 0.0211454 6.58642C0.0190995 6.61668 0.0190995 6.64704 0.0211454 6.67729H1.56045e-05V42.9084C-0.000714619 43.0098 0.0241951 43.1098 0.0723258 43.1985C0.120457 43.2872 0.190172 43.3617 0.274704 43.4146L10.5396 49.9053C10.6279 49.9586 10.7286 49.9867 10.8312 49.9867C10.9337 49.9867 11.0344 49.9586 11.1228 49.9053L21.1299 43.7348L31.568 49.9226C31.6569 49.9741 31.7574 50.001 31.8596 50.0005C31.9584 49.9997 32.0555 49.9745 32.1427 49.927L42.4752 43.9772C42.5649 43.9262 42.6397 43.8515 42.6917 43.761C42.7437 43.6704 42.7711 43.5673 42.771 43.4622V7.56868C42.7695 7.46455 42.7414 7.36264 42.6895 7.27307C42.6376 7.1835 42.5637 7.10939 42.4752 7.05808ZM30.7946 2.03861V11.991L23.0865 7.32636L30.7946 2.03861ZM11.4101 1.63186L30.1692 12.9819L20.6058 17.9581L11.6764 12.5492C11.5987 12.504 11.512 12.4773 11.4228 12.4713L11.4101 1.63186ZM11.2834 13.7695L19.9931 18.962V30.0438L1.74534 19.2692L11.2834 13.7695ZM10.2649 1.61888V11.779L1.72844 6.68162L10.2649 1.61888ZM1.15793 7.70715L10.1423 13.0771L1.16216 18.2697L1.15793 7.70715ZM11.4228 48.3822V37.9971L19.9719 43.0598L11.4228 48.3822ZM31.2849 48.3822L11.1312 36.4523C11.0447 36.3983 10.9452 36.3698 10.8439 36.3701C10.7411 36.3697 10.6403 36.3981 10.5523 36.4523C10.4648 36.504 10.3921 36.5785 10.3417 36.6681C10.2912 36.7577 10.2647 36.8594 10.2649 36.9629V48.3476L1.15793 42.5795V20.2861L31.2722 38.0793L31.2849 48.3822ZM31.7075 36.9715L21.3285 30.8486L31.0482 25.4268L41.1905 31.3549L31.7075 36.9715ZM41.6258 43.1161L32.4216 48.3995V37.8975L41.5962 32.454L41.6258 43.1161ZM41.6258 30.2472L31.0609 24.081L21.1299 29.6024V18.9966L31.6314 13.5661L31.6863 13.5228L31.7455 13.4795L31.8216 13.4146C31.8367 13.3967 31.8508 13.3779 31.8638 13.3584C31.8638 13.3367 31.8638 13.3108 31.8976 13.2848C31.9086 13.2628 31.9171 13.2396 31.923 13.2156C31.925 13.1882 31.925 13.1607 31.923 13.1334C31.923 13.1117 31.923 13.0944 31.923 13.0728V1.9737L41.5709 7.90187L41.6258 30.2472Z" fill="url(#paint10_linear_290_18096)"/>
</g>
<defs>
<linearGradient id="paint0_linear_290_18096" x1="-8.5409" y1="23.8121" x2="181.477" y2="26.144" gradientUnits="userSpaceOnUse">
<stop stop-color="#0CE8E1"/>
<stop offset="1" stop-color="#FF0CCB"/>
</linearGradient>
<linearGradient id="paint1_linear_290_18096" x1="-8.53612" y1="23.4311" x2="181.482" y2="25.7629" gradientUnits="userSpaceOnUse">
<stop stop-color="#0CE8E1"/>
<stop offset="1" stop-color="#FF0CCB"/>
</linearGradient>
<linearGradient id="paint2_linear_290_18096" x1="-8.51064" y1="21.3799" x2="181.507" y2="23.7118" gradientUnits="userSpaceOnUse">
<stop stop-color="#0CE8E1"/>
<stop offset="1" stop-color="#FF0CCB"/>
</linearGradient>
<linearGradient id="paint3_linear_290_18096" x1="-8.5366" y1="23.4443" x2="181.481" y2="25.7762" gradientUnits="userSpaceOnUse">
<stop stop-color="#0CE8E1"/>
<stop offset="1" stop-color="#FF0CCB"/>
</linearGradient>
<linearGradient id="paint4_linear_290_18096" x1="-8.53231" y1="22.981" x2="181.49" y2="25.3129" gradientUnits="userSpaceOnUse">
<stop stop-color="#0CE8E1"/>
<stop offset="1" stop-color="#FF0CCB"/>
</linearGradient>
<linearGradient id="paint5_linear_290_18096" x1="-8.53171" y1="22.9554" x2="181.49" y2="25.2872" gradientUnits="userSpaceOnUse">
<stop stop-color="#0CE8E1"/>
<stop offset="1" stop-color="#FF0CCB"/>
</linearGradient>
<linearGradient id="paint6_linear_290_18096" x1="-8.53599" y1="23.3575" x2="181.486" y2="25.6852" gradientUnits="userSpaceOnUse">
<stop stop-color="#0CE8E1"/>
<stop offset="1" stop-color="#FF0CCB"/>
</linearGradient>
<linearGradient id="paint7_linear_290_18096" x1="-8.62044" y1="30.3162" x2="181.397" y2="32.6481" gradientUnits="userSpaceOnUse">
<stop stop-color="#0CE8E1"/>
<stop offset="1" stop-color="#FF0CCB"/>
</linearGradient>
<linearGradient id="paint8_linear_290_18096" x1="-8.44724" y1="16.1745" x2="181.571" y2="18.5064" gradientUnits="userSpaceOnUse">
<stop stop-color="#0CE8E1"/>
<stop offset="1" stop-color="#FF0CCB"/>
</linearGradient>
<linearGradient id="paint9_linear_290_18096" x1="-8.54478" y1="24.1191" x2="181.473" y2="26.4509" gradientUnits="userSpaceOnUse">
<stop stop-color="#0CE8E1"/>
<stop offset="1" stop-color="#FF0CCB"/>
</linearGradient>
<linearGradient id="paint10_linear_290_18096" x1="-8.55334" y1="24.7517" x2="181.469" y2="27.0836" gradientUnits="userSpaceOnUse">
<stop stop-color="#0CE8E1"/>
<stop offset="1" stop-color="#FF0CCB"/>
</linearGradient>
<clipPath id="clip0_290_18096">
<rect width="174" height="50" fill="white"/>
</clipPath>
</defs>
</svg>
