<svg width="43" height="50" viewBox="0 0 43 50" fill="none" xmlns="http://www.w3.org/2000/svg">
<path d="M42.4752 7.05759L31.6694 0.432755C31.5806 0.380765 31.4801 0.353416 31.3778 0.353416C31.2755 0.353416 31.175 0.380765 31.0862 0.432755H31.0524L21.975 6.6595L11.1354 0.0822573C11.0485 0.0319599 10.9505 0.00516814 10.8507 0.00441104C10.7509 0.00365393 10.6525 0.0289565 10.5649 0.0779301L0.287366 6.1662C0.210764 6.21079 0.146713 6.27488 0.101424 6.35227L0.0760678 6.38256C0.0760678 6.38256 0.0760678 6.42583 0.050712 6.44747C0.0372786 6.47032 0.0273047 6.49512 0.0211302 6.52103C0.0190672 6.54261 0.0190672 6.56435 0.0211302 6.58594C0.0190843 6.61619 0.0190843 6.64655 0.0211302 6.67681H3.45741e-07V42.9079C-0.000729878 43.0094 0.0241798 43.1093 0.0723105 43.198C0.120441 43.2867 0.190157 43.3612 0.274688 43.4142L10.5396 49.9049C10.6279 49.9581 10.7286 49.9862 10.8312 49.9862C10.9337 49.9862 11.0344 49.9581 11.1227 49.9049L21.1298 43.7344L31.568 49.9222C31.6569 49.9736 31.7574 50.0005 31.8596 50C31.9584 49.9993 32.0555 49.974 32.1427 49.9265L42.4752 43.9767C42.5649 43.9257 42.6397 43.8511 42.6917 43.7605C42.7437 43.67 42.7711 43.5668 42.771 43.4618V7.56819C42.7695 7.46406 42.7414 7.36215 42.6895 7.27258C42.6376 7.18301 42.5637 7.1089 42.4752 7.05759ZM30.7946 2.03812V11.9905L23.0865 7.32587L30.7946 2.03812ZM11.4101 1.63137L30.1692 12.9814L20.6058 17.9576L11.6764 12.5487C11.5987 12.5035 11.512 12.4769 11.4228 12.4708L11.4101 1.63137ZM11.2833 13.769L19.9931 18.9615V30.0433L1.74533 19.2688L11.2833 13.769ZM10.2649 1.61839V11.7785L1.72842 6.68113L10.2649 1.61839ZM1.15792 7.70666L10.1423 13.0766L1.16214 18.2692L1.15792 7.70666ZM11.4228 48.3817V37.9966L19.9719 43.0593L11.4228 48.3817ZM31.2848 48.3817L11.1312 36.4518C11.0447 36.3978 10.9452 36.3693 10.8438 36.3696C10.7411 36.3692 10.6403 36.3976 10.5522 36.4518C10.4647 36.5035 10.3921 36.578 10.3416 36.6676C10.2912 36.7573 10.2647 36.8589 10.2649 36.9624V48.3471L1.15792 42.579V20.2856L31.2722 38.0788L31.2848 48.3817ZM31.7074 36.9711L21.3285 30.8482L31.0482 25.4263L41.1905 31.3544L31.7074 36.9711ZM41.6258 43.1156L32.4216 48.399V37.8971L41.5962 32.4535L41.6258 43.1156ZM41.6258 30.2467L31.0609 24.0805L21.1298 29.6019V18.9961L31.6314 13.5656L31.6863 13.5223L31.7455 13.4791L31.8215 13.4141C31.8366 13.3962 31.8507 13.3774 31.8638 13.3579C31.8638 13.3363 31.8638 13.3103 31.8976 13.2843C31.9086 13.2623 31.9171 13.2391 31.923 13.2151C31.9249 13.1877 31.9249 13.1603 31.923 13.1329C31.923 13.1112 31.923 13.0939 31.923 13.0723V1.97321L41.5709 7.90138L41.6258 30.2467Z" fill="url(#paint0_linear_299_41253)"/>
<defs>
<linearGradient id="paint0_linear_299_41253" x1="-8.55336" y1="24.7512" x2="181.469" y2="27.0831" gradientUnits="userSpaceOnUse">
<stop stop-color="#0CE8E1"/>
<stop offset="1" stop-color="#FF0CCB"/>
</linearGradient>
</defs>
</svg>
