<svg width="264" height="128" viewBox="0 0 264 128" fill="none" xmlns="http://www.w3.org/2000/svg">
<g filter="url(#filter0_d)">
<path d="M130.279 67.3415V49.0594C130.279 46.7282 129.911 45.1331 129.114 44.3355C128.316 43.538 127.028 43.1086 125.126 43.1086C121.016 43.1086 118.93 45.4398 118.93 50.041V67.3415H110.954V37.1577H118.562V41.5748C119.482 39.857 120.77 38.5687 122.304 37.6485C123.838 36.7896 125.862 36.3601 128.316 36.3601C129.727 36.3601 131.077 36.6055 132.304 36.9736C133.531 37.4031 134.574 38.0779 135.494 38.9368C136.353 39.7957 137.028 40.8386 137.58 42.0656C138.071 43.3539 138.316 44.765 138.316 46.4214V67.3415H130.279Z" fill="black"/>
<path d="M146.352 67.335V42.7953H141.874V37.1512H146.352C146.352 29.7893 150.647 26.1083 159.174 26.1083V32.55C158.132 32.55 157.334 32.6113 156.72 32.734C156.046 32.9181 155.555 33.1635 155.187 33.5316C154.819 33.8997 154.573 34.3905 154.451 34.9426C154.267 35.5561 154.205 36.2923 154.205 37.1512H159.358V42.7953H154.205V67.335H146.352Z" fill="black"/>
<path d="M181.503 47.4654H188.927V56.0543C188.927 57.6494 188.681 59.1831 188.252 60.5941C187.761 62.0665 187.025 63.3548 186.043 64.4591C185 65.6248 183.712 66.4836 182.24 67.1585C180.706 67.8333 178.865 68.1401 176.718 68.1401C174.51 68.1401 172.608 67.8333 171.074 67.1585C169.54 66.4836 168.252 65.6248 167.27 64.5205C166.227 63.4162 165.491 62.1279 165.062 60.6555C164.632 59.1831 164.387 57.6494 164.387 55.9929V28.9993H172.24V37.1587H188.927V42.8029H172.24V55.1954C172.24 57.0972 172.608 58.631 173.344 59.6125C174.019 60.6555 175.184 61.2076 176.841 61.2076C178.436 61.2076 179.602 60.7168 180.399 59.6739C181.135 58.631 181.503 57.2199 181.503 55.3181V47.4654Z" fill="black"/>
<path d="M195.43 67.335V37.1512H203.405V67.335H195.43ZM195.43 33.5316V26.1083H203.405V33.5316H195.43Z" fill="black"/>
<path d="M209.064 67.3436V61.2087L224.463 43.4787H210.107V37.1598H234.647V43.6014L219.248 60.8406H235.076V67.3436H209.064Z" fill="black"/>
<path d="M118.568 76.3766C118.479 76.8496 118.287 77.297 117.993 77.7189C117.699 78.1408 117.29 78.4731 116.766 78.7288C116.242 78.9845 115.603 79.1123 114.874 79.1123H113.378L112.777 82.5384H110.975L112.56 73.6153H115.845C116.753 73.6153 117.443 73.8199 117.916 74.2161C118.389 74.6252 118.62 75.1621 118.62 75.8397C118.62 76.0314 118.607 76.2104 118.568 76.3766ZM115.053 77.7061C115.539 77.7061 115.922 77.5911 116.203 77.3482C116.485 77.1053 116.664 76.7857 116.74 76.3766C116.753 76.2999 116.766 76.1848 116.766 76.0442C116.766 75.3667 116.344 75.0343 115.513 75.0343H114.107L113.634 77.7061H115.053Z" fill="black" fill-opacity="0.75"/>
<path d="M122.552 82.65C121.951 82.65 121.414 82.5221 120.954 82.2792C120.481 82.0363 120.123 81.6784 119.867 81.231C119.612 80.7835 119.484 80.2594 119.484 79.6713C119.484 78.866 119.676 78.1373 120.059 77.4725C120.43 76.8206 120.954 76.2964 121.619 75.9129C122.271 75.5294 123.012 75.3376 123.818 75.3376C124.418 75.3376 124.968 75.4655 125.441 75.7084C125.914 75.964 126.272 76.322 126.54 76.7694C126.796 77.2169 126.924 77.741 126.924 78.329C126.924 79.1344 126.732 79.8759 126.349 80.5278C125.965 81.1798 125.441 81.704 124.776 82.0747C124.099 82.4582 123.357 82.65 122.552 82.65ZM122.795 81.1159C123.217 81.1159 123.613 80.9881 123.958 80.7452C124.303 80.5023 124.585 80.1699 124.776 79.7608C124.968 79.3517 125.07 78.9171 125.07 78.4697C125.07 77.9583 124.93 77.562 124.648 77.2808C124.354 77.0123 123.996 76.8717 123.562 76.8717C123.127 76.8717 122.744 76.9995 122.411 77.2424C122.066 77.4853 121.811 77.8177 121.619 78.2268C121.427 78.6486 121.338 79.0833 121.338 79.5435C121.338 80.0421 121.478 80.4384 121.747 80.7068C122.015 80.9753 122.36 81.1159 122.795 81.1159Z" fill="black" fill-opacity="0.75"/>
<path d="M139.26 75.4402L135.936 82.5224H133.993L133.584 77.6007L131.41 82.5224H129.467L128.649 75.4402H130.452L130.758 80.8349L133.072 75.4402H134.964L135.348 80.8221L137.534 75.4402H139.26Z" fill="black" fill-opacity="0.75"/>
<path d="M143.991 75.3376C144.898 75.3376 145.614 75.5805 146.138 76.0791C146.662 76.5777 146.931 77.2552 146.931 78.0989C146.931 78.3674 146.905 78.6103 146.867 78.8276C146.816 79.0833 146.765 79.3006 146.701 79.4924H141.523C141.511 79.5563 141.511 79.633 141.511 79.748C141.511 80.1955 141.638 80.5406 141.907 80.7835C142.163 81.0392 142.508 81.167 142.93 81.167C143.288 81.167 143.594 81.0903 143.863 80.9241C144.118 80.7707 144.323 80.5662 144.489 80.3105H146.42C146.1 80.9881 145.614 81.5505 144.962 81.9852C144.297 82.4326 143.543 82.65 142.712 82.65C141.805 82.65 141.089 82.3943 140.539 81.8829C139.989 81.3716 139.721 80.6813 139.721 79.7992C139.721 79.5435 139.746 79.275 139.798 78.9938C139.925 78.2651 140.194 77.6131 140.59 77.0634C140.986 76.5137 141.472 76.0791 142.06 75.7851C142.648 75.491 143.288 75.3376 143.991 75.3376ZM145.09 78.4057C145.103 78.2651 145.116 78.1756 145.116 78.1117C145.116 77.7026 144.988 77.383 144.719 77.1529C144.451 76.9228 144.106 76.8078 143.684 76.8078C143.236 76.8078 142.827 76.9484 142.469 77.2296C142.111 77.5237 141.856 77.9072 141.715 78.4057H145.09Z" fill="black" fill-opacity="0.75"/>
<path d="M150.986 76.6928C151.293 76.2709 151.651 75.9385 152.06 75.6956C152.469 75.4527 152.916 75.3377 153.389 75.3377L153.057 77.2169H152.584C152.06 77.2169 151.638 77.3319 151.318 77.562C150.999 77.7921 150.756 78.1884 150.615 78.7381L149.951 82.5221H148.148L149.401 75.44H151.203L150.986 76.6928Z" fill="black" fill-opacity="0.75"/>
<path d="M158.323 75.3376C159.23 75.3376 159.946 75.5805 160.47 76.0791C160.995 76.5777 161.263 77.2552 161.263 78.0989C161.263 78.3674 161.238 78.6103 161.199 78.8276C161.148 79.0833 161.097 79.3006 161.033 79.4924H155.856C155.843 79.5563 155.843 79.633 155.843 79.748C155.843 80.1955 155.971 80.5406 156.239 80.7835C156.495 81.0392 156.84 81.167 157.262 81.167C157.62 81.167 157.927 81.0903 158.195 80.9241C158.451 80.7707 158.655 80.5662 158.821 80.3105H160.752C160.432 80.9881 159.946 81.5505 159.294 81.9852C158.63 82.4326 157.875 82.65 157.044 82.65C156.137 82.65 155.421 82.3943 154.871 81.8829C154.322 81.3716 154.053 80.6813 154.053 79.7992C154.053 79.5435 154.079 79.275 154.13 78.9938C154.258 78.2651 154.526 77.6131 154.922 77.0634C155.319 76.5137 155.804 76.0791 156.392 75.7851C156.981 75.491 157.62 75.3376 158.323 75.3376ZM159.422 78.4057C159.435 78.2651 159.448 78.1756 159.448 78.1117C159.448 77.7026 159.32 77.383 159.052 77.1529C158.783 76.9228 158.438 76.8078 158.016 76.8078C157.569 76.8078 157.16 76.9484 156.802 77.2296C156.444 77.5237 156.188 77.9072 156.047 78.4057H159.422Z" fill="black" fill-opacity="0.75"/>
<path d="M162.639 78.9551C162.767 78.2392 163.022 77.6 163.406 77.0503C163.777 76.5006 164.25 76.0659 164.799 75.7719C165.349 75.4779 165.924 75.3245 166.525 75.3245C166.985 75.3245 167.407 75.4268 167.791 75.6185C168.174 75.8231 168.455 76.0915 168.647 76.4239L169.248 73.0618H171.05L169.376 82.5217H167.573L167.765 81.4734C167.484 81.8186 167.126 82.0998 166.691 82.3172C166.244 82.5345 165.758 82.6368 165.234 82.6368C164.71 82.6368 164.25 82.5217 163.853 82.2788C163.444 82.0487 163.125 81.7163 162.907 81.2817C162.677 80.8598 162.562 80.3613 162.562 79.786C162.562 79.5175 162.588 79.2491 162.639 78.9551ZM168.2 78.9806C168.238 78.7633 168.251 78.5971 168.251 78.4948C168.251 77.9963 168.11 77.6 167.816 77.3187C167.522 77.0375 167.151 76.8969 166.704 76.8969C166.372 76.8969 166.052 76.9736 165.745 77.1398C165.426 77.306 165.157 77.5361 164.927 77.8429C164.697 78.1625 164.544 78.5332 164.467 78.9551C164.441 79.1212 164.429 79.2746 164.429 79.4153C164.429 79.9266 164.569 80.3357 164.863 80.6169C165.157 80.911 165.515 81.0644 165.963 81.0644C166.295 81.0644 166.615 80.9749 166.934 80.8087C167.254 80.6425 167.522 80.4124 167.752 80.0928C167.97 79.7732 168.123 79.4025 168.2 78.9806Z" fill="black" fill-opacity="0.75"/>
<path d="M178.725 76.475C179.006 76.1299 179.364 75.8614 179.811 75.6441C180.259 75.4268 180.732 75.3245 181.256 75.3245C181.78 75.3245 182.253 75.4395 182.662 75.6569C183.058 75.887 183.378 76.2193 183.595 76.6412C183.813 77.0631 183.928 77.5616 183.928 78.1369C183.928 78.4054 183.902 78.6738 183.851 78.9551C183.723 79.6837 183.467 80.3229 183.084 80.8726C182.7 81.4351 182.24 81.8697 181.691 82.1765C181.141 82.4833 180.578 82.6368 179.978 82.6368C179.453 82.6368 179.006 82.5345 178.635 82.3172C178.265 82.1126 177.996 81.8442 177.83 81.5118L177.651 82.5217H175.848L177.523 73.0618H179.326L178.725 76.475ZM182.023 78.9551C182.048 78.7889 182.061 78.6355 182.061 78.4948C182.061 77.9963 181.921 77.6 181.627 77.3187C181.333 77.0375 180.962 76.8969 180.514 76.8969C180.195 76.8969 179.875 76.9736 179.556 77.1398C179.236 77.306 178.968 77.5489 178.737 77.8684C178.507 78.188 178.354 78.5588 178.277 78.9806C178.239 79.1979 178.226 79.3641 178.226 79.4664C178.226 79.965 178.38 80.3613 178.674 80.6425C178.968 80.9237 179.326 81.0644 179.773 81.0644C180.105 81.0644 180.425 80.9749 180.745 80.8087C181.064 80.6425 181.333 80.3996 181.563 80.08C181.793 79.7604 181.946 79.3897 182.023 78.9551Z" fill="black" fill-opacity="0.75"/>
<path d="M187.586 75.4402L188.532 80.3875L191.28 75.4402H193.185L186.959 85.8717H185.055L187.202 82.3434L185.579 75.4402H187.586Z" fill="black" fill-opacity="0.75"/>
<path d="M206.26 73.6153L202.22 79.4319L201.67 82.5384H199.868L200.43 79.4319L198.423 73.6153H200.443L201.632 77.6678L204.24 73.6153H206.26Z" fill="black" fill-opacity="0.75"/>
<path d="M214.29 75.4402L213.037 82.5223H211.247L211.401 81.6275C211.132 81.9343 210.787 82.1772 210.391 82.3434C209.995 82.5223 209.573 82.6118 209.125 82.6118C208.397 82.6118 207.809 82.4073 207.387 82.011C206.965 81.6147 206.748 81.0522 206.748 80.3236C206.748 80.0551 206.773 79.8122 206.812 79.5949L207.54 75.4402H209.33L208.64 79.3392C208.614 79.4926 208.601 79.646 208.601 79.7866C208.601 80.2085 208.716 80.5281 208.946 80.7454C209.176 80.9755 209.496 81.0906 209.918 81.0906C210.404 81.0906 210.813 80.9372 211.158 80.6304C211.503 80.3363 211.72 79.9017 211.81 79.3392L212.5 75.4402H214.29Z" fill="black" fill-opacity="0.75"/>
<path d="M215.62 78.9551C215.748 78.2392 216.004 77.6 216.387 77.0503C216.758 76.5006 217.231 76.0659 217.781 75.7719C218.331 75.4779 218.906 75.3245 219.507 75.3245C219.967 75.3245 220.389 75.4268 220.772 75.6185C221.156 75.8231 221.437 76.0915 221.629 76.4239L222.23 73.0618H224.032L222.357 82.5217H220.555L220.747 81.4734C220.465 81.8186 220.107 82.0998 219.673 82.3172C219.225 82.5345 218.74 82.6368 218.215 82.6368C217.691 82.6368 217.231 82.5217 216.835 82.2788C216.426 82.0487 216.106 81.7163 215.889 81.2817C215.659 80.8598 215.544 80.3613 215.544 79.786C215.544 79.5175 215.569 79.2491 215.62 78.9551ZM221.181 78.9806C221.22 78.7633 221.232 78.5971 221.232 78.4948C221.232 77.9963 221.092 77.6 220.798 77.3187C220.504 77.0375 220.133 76.8969 219.686 76.8969C219.353 76.8969 219.034 76.9736 218.727 77.1398C218.407 77.306 218.139 77.5361 217.909 77.8429C217.679 78.1625 217.525 78.5332 217.448 78.9551C217.423 79.1212 217.41 79.2746 217.41 79.4153C217.41 79.9266 217.551 80.3357 217.845 80.6169C218.139 80.911 218.497 81.0644 218.944 81.0644C219.276 81.0644 219.596 80.9749 219.916 80.8087C220.235 80.6425 220.504 80.4124 220.734 80.0928C220.951 79.7732 221.105 79.4025 221.181 78.9806Z" fill="black" fill-opacity="0.75"/>
<path d="M227.064 74.6047C226.782 74.6047 226.552 74.528 226.386 74.3618C226.22 74.1956 226.13 73.991 226.13 73.7481C226.13 73.403 226.258 73.109 226.527 72.8661C226.782 72.6232 227.089 72.5081 227.434 72.5081C227.703 72.5081 227.933 72.5848 228.099 72.751C228.265 72.9172 228.355 73.1217 228.355 73.3646C228.355 73.7098 228.227 73.991 227.971 74.2339C227.716 74.4768 227.409 74.6047 227.064 74.6047ZM227.805 75.4484L226.552 82.5306H224.75L226.003 75.4484H227.805Z" fill="black" fill-opacity="0.75"/>
<path d="M230.865 81.0522H234.009L233.741 82.5224H228.563L228.819 81.0778L232.641 76.9103H229.561L229.816 75.4402H234.955L234.712 76.8848L230.865 81.0522Z" fill="black" fill-opacity="0.75"/>
<path d="M60 96C82.0914 96 99.9999 78.0915 99.9999 56.0001C99.9999 33.9087 82.0914 16 60 16C37.9086 16 20 33.9087 20 56.0001C20 78.0915 37.9086 96 60 96Z" fill="url(#paint0_linear)"/>
<g filter="url(#filter1_d)">
<path d="M42.2455 78.5342C44.9514 78.5342 47.1449 76.3406 47.1449 73.6347C47.1449 70.9289 44.9514 68.7355 42.2455 68.7355C39.5397 68.7355 37.3461 70.9289 37.3461 73.6347C37.3461 76.3406 39.5397 78.5342 42.2455 78.5342Z" fill="#10137B"/>
<path d="M77.7784 43.0218C80.4842 43.0218 82.6777 40.8282 82.6777 38.1224C82.6777 35.4165 80.4842 33.2231 77.7784 33.2231C75.0725 33.2231 72.879 35.4165 72.879 38.1224C72.879 40.8282 75.0725 43.0218 77.7784 43.0218Z" fill="#10137B"/>
<path fill-rule="evenodd" clip-rule="evenodd" d="M76.1596 40.2558C76.1596 40.2558 76.5133 42.5865 76.8981 46.0965C76.9882 46.8816 77.0813 47.7134 77.134 48.601C77.2861 51.1458 77.3233 54.0475 77.3481 56.9492C77.3637 58.352 77.342 59.7578 77.3203 61.1202C77.2923 62.5726 77.2923 63.9816 77.2054 65.2944C77.1464 66.1851 77.0347 67.0105 76.9416 67.7988C76.5196 71.3088 76.1596 73.6394 76.1596 73.6394H79.3933C79.3933 73.6394 79.0302 71.3088 78.6113 67.7988C78.5151 67.0105 78.4034 66.1851 78.3444 65.2944C78.2575 63.9816 78.2575 62.5726 78.2327 61.1202C78.2078 59.7578 78.1892 58.352 78.2016 56.9492C78.2295 54.0475 78.2637 51.1458 78.4158 48.601C78.4685 47.7134 78.5648 46.8816 78.6517 46.0965C79.0396 42.5865 79.3933 40.2558 79.3933 40.2558H76.1596Z" fill="#10137B"/>
<path d="M77.7598 78.5342C75.054 78.5342 72.8605 76.3406 72.8605 73.6347C72.8605 70.9289 75.054 68.7355 77.7598 68.7355C80.4657 68.7355 82.6593 70.9289 82.6593 73.6347C82.6593 76.3406 80.4657 78.5342 77.7598 78.5342Z" fill="#10137B"/>
<path d="M42.2474 43.0218C39.5416 43.0218 37.3481 40.8282 37.3481 38.1224C37.3481 35.4165 39.5416 33.2231 42.2474 33.2231C44.9533 33.2231 47.1469 35.4165 47.1469 38.1224C47.1469 40.8282 44.9533 43.0218 42.2474 43.0218Z" fill="#10137B"/>
<path fill-rule="evenodd" clip-rule="evenodd" d="M40.6267 40.2558C40.6267 40.2558 40.9805 42.5865 41.3653 46.0965C41.4553 46.8816 41.5484 47.7134 41.6012 48.601C41.7532 51.1458 41.7904 54.0475 41.8153 56.9492C41.8308 58.352 41.8091 59.7578 41.7874 61.1202C41.7595 62.5726 41.7594 63.9816 41.6725 65.2944C41.6136 66.1851 41.5019 67.0105 41.4088 67.7988C40.9867 71.3088 40.6267 73.6394 40.6267 73.6394H43.8605C43.8605 73.6394 43.4974 71.3088 43.0784 67.7988C42.9822 67.0105 42.8705 66.1851 42.8115 65.2944C42.7246 63.9816 42.7246 62.5726 42.6998 61.1202C42.675 59.7578 42.6563 58.352 42.6687 56.9492C42.6966 54.0475 42.7308 51.1458 42.8829 48.601C42.9357 47.7134 43.0319 46.8816 43.1188 46.0965C43.5067 42.5865 43.8605 40.2558 43.8605 40.2558H40.6267Z" fill="#10137B"/>
<path fill-rule="evenodd" clip-rule="evenodd" d="M41.4263 41.4451C41.4263 41.4451 44.146 43.3656 48.0927 46.3238C48.9805 46.9888 49.9272 47.6931 50.8968 48.4755C53.6901 50.7293 56.7762 53.3935 59.8572 56.0697C61.349 57.3608 62.8189 58.6823 64.243 59.9634C65.7579 61.3327 67.2458 62.6412 68.5734 63.9243C69.4676 64.7891 70.2738 65.6467 71.0401 66.4445C74.4442 69.9956 76.6799 72.445 76.6799 72.445L78.863 70.0594C78.863 70.0594 76.137 68.1458 72.1672 65.2128C71.2731 64.5546 70.3162 63.8619 69.3424 63.084C67.8974 61.9291 66.4095 60.6207 64.8589 59.2903C63.4035 58.0435 61.9063 56.7518 60.4333 55.4401C57.3879 52.7249 54.3501 50.0081 51.7621 47.5299C50.8637 46.6697 50.047 45.8234 49.2765 45.0302C45.8494 41.5042 43.6094 39.0595 43.6094 39.0595L41.4263 41.4451Z" fill="#10137B"/>
</g>
</g>
<defs>
<filter id="filter0_d" x="0" y="0" width="263.076" height="128" filterUnits="userSpaceOnUse" color-interpolation-filters="sRGB">
<feFlood flood-opacity="0" result="BackgroundImageFix"/>
<feColorMatrix in="SourceAlpha" type="matrix" values="0 0 0 0 0 0 0 0 0 0 0 0 0 0 0 0 0 0 127 0" result="hardAlpha"/>
<feOffset dx="4" dy="8"/>
<feGaussianBlur stdDeviation="12"/>
<feComposite in2="hardAlpha" operator="out"/>
<feColorMatrix type="matrix" values="0 0 0 0 0 0 0 0 0 0 0 0 0 0 0 0 0 0 0.24 0"/>
<feBlend mode="normal" in2="BackgroundImageFix" result="effect1_dropShadow"/>
<feBlend mode="normal" in="SourceGraphic" in2="effect1_dropShadow" result="shape"/>
</filter>
<filter id="filter1_d" x="33.3461" y="33.2231" width="53.3316" height="53.3111" filterUnits="userSpaceOnUse" color-interpolation-filters="sRGB">
<feFlood flood-opacity="0" result="BackgroundImageFix"/>
<feColorMatrix in="SourceAlpha" type="matrix" values="0 0 0 0 0 0 0 0 0 0 0 0 0 0 0 0 0 0 127 0" result="hardAlpha"/>
<feOffset dy="4"/>
<feGaussianBlur stdDeviation="2"/>
<feComposite in2="hardAlpha" operator="out"/>
<feColorMatrix type="matrix" values="0 0 0 0 0 0 0 0 0 0 0 0 0 0 0 0 0 0 0.25 0"/>
<feBlend mode="normal" in2="BackgroundImageFix" result="effect1_dropShadow"/>
<feBlend mode="normal" in="SourceGraphic" in2="effect1_dropShadow" result="shape"/>
</filter>
<linearGradient id="paint0_linear" x1="20" y1="56" x2="88.0517" y2="84.5148" gradientUnits="userSpaceOnUse">
<stop stop-color="#366ce3"/>
<stop offset="1" stop-color="#2CF2B8"/>
</linearGradient>
</defs>
</svg>
