<svg width="26" height="26" viewBox="0 0 26 26" fill="none" xmlns="http://www.w3.org/2000/svg">
<path d="M24.0828 16.0812C22.1198 16.6267 20.0471 16.6411 18.0767 16.1229C16.1064 15.6046 14.3089 14.5724 12.8683 13.1318C11.4276 11.6911 10.3954 9.89374 9.8772 7.92335C9.35898 5.95297 9.37333 3.88031 9.9188 1.9173L9.91912 1.91739C7.98296 2.45602 6.22171 3.49255 4.81085 4.92373C3.39998 6.35492 2.38873 8.1308 1.87785 10.0745C1.36696 12.0181 1.37427 14.0617 1.89905 16.0017C2.42382 17.9417 3.44774 19.7103 4.86881 21.1313C6.28988 22.5524 8.0585 23.5763 9.99846 24.101C11.9384 24.6258 13.982 24.6331 15.9257 24.1222C17.8694 23.6113 19.6452 22.6 21.0764 21.1891C22.5076 19.7782 23.5441 18.017 24.0827 16.0808L24.0828 16.0812Z" stroke="white" stroke-width="2" stroke-linecap="round" stroke-linejoin="round"/>
</svg>
