<svg width="298" height="467" viewBox="0 0 298 467" fill="none" xmlns="http://www.w3.org/2000/svg">
<g opacity="0.25" clip-path="url(#clip0_290_17947)">
<path d="M405.312 65.8531L302.202 3.99089C301.359 3.4963 300.4 3.23559 299.424 3.23559C298.447 3.23559 297.488 3.4963 296.646 3.99089L296.327 4.25032V3.99089L209.805 62.2013L106.276 0.778049C105.432 0.27766 104.469 0.0136719 103.489 0.0136719C102.508 0.0136719 101.545 0.27766 100.701 0.778049L2.74801 57.5716C2.02625 58.0057 1.41321 58.5995 0.95583 59.3077C0.95583 59.4075 0.796525 59.4873 0.736786 59.5871C0.677046 59.6869 0.577481 60.0061 0.477915 60.2057C0.364519 60.4367 0.271245 60.677 0.199131 60.9241C0.178396 61.1164 0.178396 61.3105 0.199131 61.5028C0.129765 61.7772 0.089713 62.0581 0.0796525 62.3409H0V400.767C0.00135311 401.707 0.241582 402.63 0.698008 403.451C1.15443 404.271 1.812 404.962 2.60862 405.457L100.561 466.162C101.399 466.677 102.358 466.962 103.34 466.986C104.323 467.011 105.295 466.774 106.157 466.301C106.157 466.301 106.157 466.301 106.316 466.182L201.461 408.47L301.027 466.241C301.855 466.725 302.796 466.98 303.755 466.98C304.713 466.98 305.655 466.725 306.483 466.241L405.113 410.705C405.964 410.224 406.672 409.526 407.165 408.681C407.659 407.836 407.919 406.875 407.92 405.896V70.6425C407.938 69.6859 407.707 68.7411 407.249 67.9013C406.792 67.0615 406.124 66.3556 405.312 65.8531ZM293.798 18.9576V112.07L220.319 68.4473L293.798 18.9576ZM108.985 15.2259L287.904 121.389L196.662 167.726L111.513 117.019C110.768 116.58 109.928 116.327 109.064 116.281L108.985 15.2259ZM107.79 128.573L190.927 177.205L190.768 280.735L16.6474 179.959L107.79 128.573ZM97.9527 15.1261V110.015L16.4881 62.3809L97.9527 15.1261ZM11.0319 71.9994L96.7579 122.128L11.0319 170.44V71.9994ZM108.985 451.654V354.81L190.628 402.144L108.985 451.654ZM298.338 451.873L106.237 340.442C105.397 339.949 104.442 339.687 103.469 339.683C102.505 339.69 101.558 339.944 100.721 340.422C99.8812 340.907 99.1838 341.605 98.6981 342.446C98.2123 343.286 97.9553 344.24 97.9527 345.211V451.534L11.0319 397.654V189.578L298.338 355.867V451.873ZM302.321 345.291L203.552 288.118L296.108 237.471L392.786 292.848L302.321 345.291ZM396.988 402.683L309.37 452.013V353.952L396.988 303.205V402.683ZM396.988 282.491L296.447 224.919L201.82 276.484L201.979 177.425L301.883 126.698H302.002H302.122C302.477 126.421 302.835 126.148 303.197 125.879C303.367 125.696 303.527 125.502 303.675 125.301C303.825 125.13 303.965 124.95 304.093 124.762C304.22 124.539 304.326 124.305 304.412 124.063C304.518 123.866 304.605 123.659 304.671 123.445C304.738 123.183 304.785 122.916 304.81 122.647C304.853 122.456 304.886 122.262 304.91 122.068V18.4387L396.968 73.8353L396.988 282.491Z" fill="url(#paint0_linear_290_17947)"/>
</g>
<defs>
<linearGradient id="paint0_linear_290_17947" x1="346" y1="67.9997" x2="-105" y2="582" gradientUnits="userSpaceOnUse">
<stop stop-color="white" stop-opacity="0.06"/>
<stop offset="0.38917" stop-color="#EA2377" stop-opacity="0.65"/>
</linearGradient>
<clipPath id="clip0_290_17947">
<rect width="408" height="467" fill="white"/>
</clipPath>
</defs>
</svg>
