<svg width="277" height="467" viewBox="0 0 277 467" fill="none" xmlns="http://www.w3.org/2000/svg">
<g opacity="0.25" clip-path="url(#clip0_290_17839)">
<path d="M274.312 65.8531L171.202 3.99089C170.359 3.4963 169.4 3.23559 168.424 3.23559C167.447 3.23559 166.488 3.4963 165.646 3.99089L165.327 4.25032V3.99089L78.8047 62.2013L-24.7237 0.778049C-25.5679 0.27766 -26.5307 0.0136719 -27.5115 0.0136719C-28.4923 0.0136719 -29.4551 0.27766 -30.2993 0.778049L-128.252 57.5716C-128.974 58.0057 -129.587 58.5995 -130.044 59.3077C-130.044 59.4075 -130.203 59.4873 -130.263 59.5871C-130.323 59.6869 -130.423 60.0061 -130.522 60.2057C-130.635 60.4367 -130.729 60.677 -130.801 60.9241C-130.822 61.1164 -130.822 61.3105 -130.801 61.5028C-130.87 61.7772 -130.91 62.0581 -130.92 62.3409H-131V400.767C-130.999 401.707 -130.758 402.63 -130.302 403.451C-129.846 404.271 -129.188 404.962 -128.391 405.457L-30.4387 466.162C-29.6011 466.677 -28.6424 466.962 -27.6597 466.986C-26.677 467.011 -25.7053 466.774 -24.8431 466.301C-24.8431 466.301 -24.8431 466.301 -24.6838 466.182L70.4611 408.47L170.027 466.241C170.855 466.725 171.796 466.98 172.755 466.98C173.713 466.98 174.655 466.725 175.483 466.241L274.113 410.705C274.964 410.224 275.672 409.526 276.165 408.681C276.659 407.836 276.919 406.875 276.92 405.896V70.6425C276.938 69.6859 276.707 68.7411 276.249 67.9013C275.792 67.0615 275.124 66.3556 274.312 65.8531ZM162.798 18.9576V112.07L89.3188 68.4473L162.798 18.9576ZM-22.0155 15.2259L156.904 121.389L65.662 167.726L-19.4865 117.019C-20.2321 116.58 -21.0721 116.327 -21.9358 116.281L-22.0155 15.2259ZM-23.2103 128.573L59.927 177.205L59.7677 280.735L-114.353 179.959L-23.2103 128.573ZM-33.0473 15.1261V110.015L-114.512 62.3809L-33.0473 15.1261ZM-119.968 71.9994L-34.2421 122.128L-119.968 170.44V71.9994ZM-22.0155 451.654V354.81L59.6283 402.144L-22.0155 451.654ZM167.338 451.873L-24.7635 340.442C-25.6032 339.949 -26.5582 339.687 -27.5314 339.683C-28.4954 339.69 -29.4415 339.944 -30.2794 340.422C-31.1188 340.907 -31.8162 341.605 -32.3019 342.446C-32.7877 343.286 -33.0447 344.24 -33.0473 345.211V451.534L-119.968 397.654V189.578L167.338 355.867V451.873ZM171.321 345.291L72.552 288.118L165.108 237.471L261.786 292.848L171.321 345.291ZM265.988 402.683L178.37 452.013V353.952L265.988 303.205V402.683ZM265.988 282.491L165.447 224.919L70.8195 276.484L70.9788 177.425L170.883 126.698H171.002H171.122C171.477 126.421 171.835 126.148 172.197 125.879C172.367 125.696 172.527 125.502 172.675 125.301C172.825 125.13 172.965 124.95 173.093 124.762C173.22 124.539 173.326 124.305 173.412 124.063C173.518 123.866 173.605 123.659 173.671 123.445C173.738 123.183 173.785 122.916 173.81 122.647C173.853 122.456 173.886 122.262 173.91 122.068V18.4387L265.968 73.8353L265.988 282.491Z" fill="url(#paint0_linear_290_17839)"/>
</g>
<defs>
<linearGradient id="paint0_linear_290_17839" x1="215" y1="67.9997" x2="-236" y2="582" gradientUnits="userSpaceOnUse">
<stop stop-color="white" stop-opacity="0.06"/>
<stop offset="0.38917" stop-color="#EA2377" stop-opacity="0.65"/>
</linearGradient>
<clipPath id="clip0_290_17839">
<rect width="408" height="467" fill="white" transform="translate(-131)"/>
</clipPath>
</defs>
</svg>
